G04*
G04 #@! TF.GenerationSoftware,Altium Limited,Altium Designer,19.0.15 (446)*
G04*
G04 Layer_Physical_Order=1*
G04 Layer_Color=255*
%FSLAX25Y25*%
%MOIN*%
G70*
G01*
G75*
%ADD15C,0.01181*%
%ADD16C,0.02000*%
%ADD17C,0.05906*%
%ADD18R,0.05906X0.05906*%
%ADD19C,0.02362*%
G36*
X407959Y240602D02*
X410369Y240024D01*
X412659Y239075D01*
X414773Y237780D01*
X416657Y236170D01*
X418267Y234285D01*
X419562Y232172D01*
X420511Y229882D01*
X421090Y227471D01*
X421284Y225000D01*
X421090Y222529D01*
X420511Y220118D01*
X419562Y217828D01*
X418267Y215715D01*
X416657Y213830D01*
X414773Y212220D01*
X412659Y210925D01*
X410369Y209976D01*
X407959Y209398D01*
X405500Y209204D01*
X405500D01*
X403041Y209398D01*
X400631Y209976D01*
X398341Y210925D01*
X396227Y212220D01*
X394343Y213830D01*
X392733Y215715D01*
X391438Y217828D01*
X390489Y220118D01*
X389910Y222529D01*
X389716Y225000D01*
X389910Y227471D01*
X390489Y229882D01*
X391438Y232172D01*
X392733Y234285D01*
X394343Y236170D01*
X396227Y237780D01*
X398341Y239075D01*
X400631Y240024D01*
X403041Y240602D01*
X405500Y240796D01*
X405500Y240748D01*
X405500Y240796D01*
X407959Y240602D01*
D02*
G37*
G36*
X352209D02*
X354619Y240024D01*
X356909Y239075D01*
X359023Y237780D01*
X360907Y236170D01*
X362517Y234285D01*
X363812Y232172D01*
X364761Y229882D01*
X365340Y227471D01*
X365534Y225000D01*
X365340Y222529D01*
X364761Y220118D01*
X363812Y217828D01*
X362517Y215715D01*
X360907Y213830D01*
X359023Y212220D01*
X356909Y210925D01*
X354619Y209976D01*
X352209Y209398D01*
X349750Y209204D01*
X349750D01*
X347291Y209398D01*
X344881Y209976D01*
X342591Y210925D01*
X340477Y212220D01*
X338593Y213830D01*
X336983Y215715D01*
X335687Y217828D01*
X334739Y220118D01*
X334160Y222529D01*
X333966Y225000D01*
X334160Y227471D01*
X334739Y229882D01*
X335687Y232172D01*
X336983Y234285D01*
X338593Y236170D01*
X340477Y237780D01*
X342591Y239075D01*
X344881Y240024D01*
X347291Y240602D01*
X349750Y240796D01*
X349750Y240748D01*
X349750Y240796D01*
X352209Y240602D01*
D02*
G37*
G36*
X296459D02*
X298869Y240024D01*
X301159Y239075D01*
X303273Y237780D01*
X305157Y236170D01*
X306767Y234285D01*
X308063Y232172D01*
X309011Y229882D01*
X309590Y227471D01*
X309784Y225000D01*
X309590Y222529D01*
X309011Y220118D01*
X308063Y217828D01*
X306767Y215715D01*
X305157Y213830D01*
X303273Y212220D01*
X301159Y210925D01*
X298869Y209976D01*
X296459Y209398D01*
X294000Y209204D01*
X294000D01*
X291541Y209398D01*
X289131Y209976D01*
X286841Y210925D01*
X284727Y212220D01*
X282843Y213830D01*
X281233Y215715D01*
X279938Y217828D01*
X278989Y220118D01*
X278410Y222529D01*
X278216Y225000D01*
X278410Y227471D01*
X278989Y229882D01*
X279938Y232172D01*
X281233Y234285D01*
X282843Y236170D01*
X284727Y237780D01*
X286841Y239075D01*
X289131Y240024D01*
X291541Y240602D01*
X294000Y240796D01*
X294000Y240748D01*
X294000Y240796D01*
X296459Y240602D01*
D02*
G37*
G36*
X408130Y248511D02*
X410746Y248066D01*
X413295Y247332D01*
X415747Y246316D01*
X418069Y245033D01*
X420232Y243498D01*
X422211Y241730D01*
X423979Y239751D01*
X425514Y237587D01*
X426797Y235265D01*
X427813Y232814D01*
X428547Y230265D01*
X428992Y227649D01*
X429141Y225000D01*
X428992Y222351D01*
X428547Y219735D01*
X427813Y217186D01*
X426797Y214735D01*
X425514Y212413D01*
X423979Y210249D01*
X422211Y208270D01*
X420232Y206502D01*
X418069Y204967D01*
X415747Y203684D01*
X413295Y202668D01*
X410746Y201934D01*
X408130Y201489D01*
X405500Y201342D01*
X405500D01*
X402870Y201489D01*
X400254Y201934D01*
X397705Y202668D01*
X395253Y203684D01*
X392931Y204967D01*
X390768Y206502D01*
X388789Y208270D01*
X387021Y210249D01*
X385486Y212413D01*
X384203Y214735D01*
X383187Y217186D01*
X382453Y219735D01*
X382008Y222351D01*
X381859Y225000D01*
X382008Y227649D01*
X382453Y230265D01*
X383187Y232814D01*
X384203Y235265D01*
X385486Y237587D01*
X387021Y239751D01*
X388789Y241730D01*
X390768Y243498D01*
X392931Y245033D01*
X395253Y246316D01*
X397705Y247332D01*
X400254Y248066D01*
X402870Y248511D01*
X405500Y248658D01*
X405500Y248622D01*
X405500Y244726D01*
X402941Y244559D01*
X400410Y244055D01*
X397966Y243226D01*
X395652Y242084D01*
X393507Y240651D01*
X391566Y238949D01*
X389865Y237009D01*
X388431Y234864D01*
X387290Y232549D01*
X386461Y230106D01*
X385957Y227575D01*
X385788Y225000D01*
X385957Y222425D01*
X386461Y219894D01*
X387290Y217451D01*
X388431Y215136D01*
X389865Y212991D01*
X391566Y211051D01*
X393507Y209349D01*
X395652Y207916D01*
X397966Y206774D01*
X400410Y205945D01*
X402941Y205441D01*
X405500Y205274D01*
X405500D01*
X408059Y205441D01*
X410590Y205945D01*
X413034Y206774D01*
X415348Y207916D01*
X417493Y209349D01*
X419434Y211051D01*
X421135Y212991D01*
X422569Y215136D01*
X423710Y217451D01*
X424539Y219894D01*
X425043Y222425D01*
X425212Y225000D01*
X425043Y227575D01*
X424539Y230106D01*
X423710Y232549D01*
X422569Y234864D01*
X421135Y237009D01*
X419434Y238949D01*
X417493Y240651D01*
X415348Y242084D01*
X413034Y243226D01*
X410590Y244055D01*
X408059Y244559D01*
X405500Y244726D01*
X405500Y244685D01*
X405500Y248658D01*
X408130Y248511D01*
D02*
G37*
G36*
X352380D02*
X354996Y248066D01*
X357545Y247332D01*
X359997Y246316D01*
X362319Y245033D01*
X364482Y243498D01*
X366461Y241730D01*
X368229Y239751D01*
X369764Y237587D01*
X371047Y235265D01*
X372063Y232814D01*
X372797Y230265D01*
X373242Y227649D01*
X373391Y225000D01*
X373242Y222351D01*
X372797Y219735D01*
X372063Y217186D01*
X371047Y214735D01*
X369764Y212413D01*
X368229Y210249D01*
X366461Y208270D01*
X364482Y206502D01*
X362319Y204967D01*
X359997Y203684D01*
X357545Y202668D01*
X354996Y201934D01*
X352380Y201489D01*
X349750Y201342D01*
X349750D01*
X347120Y201489D01*
X344504Y201934D01*
X341955Y202668D01*
X339503Y203684D01*
X337181Y204967D01*
X335017Y206502D01*
X333039Y208270D01*
X331271Y210249D01*
X329736Y212413D01*
X328452Y214735D01*
X327437Y217186D01*
X326703Y219735D01*
X326258Y222351D01*
X326110Y225000D01*
X326258Y227649D01*
X326703Y230265D01*
X327437Y232814D01*
X328452Y235265D01*
X329736Y237587D01*
X331271Y239751D01*
X333039Y241730D01*
X335017Y243498D01*
X337181Y245033D01*
X339503Y246316D01*
X341955Y247332D01*
X344504Y248066D01*
X347120Y248511D01*
X349750Y248658D01*
X349750Y248622D01*
X349750Y244726D01*
X347191Y244559D01*
X344660Y244055D01*
X342216Y243226D01*
X339902Y242084D01*
X337756Y240651D01*
X335816Y238949D01*
X334115Y237009D01*
X332681Y234864D01*
X331540Y232549D01*
X330711Y230106D01*
X330207Y227575D01*
X330038Y225000D01*
X330207Y222425D01*
X330711Y219894D01*
X331540Y217451D01*
X332681Y215136D01*
X334115Y212991D01*
X335816Y211051D01*
X337756Y209349D01*
X339902Y207916D01*
X342216Y206774D01*
X344660Y205945D01*
X347191Y205441D01*
X349750Y205274D01*
X349750D01*
X352309Y205441D01*
X354840Y205945D01*
X357284Y206774D01*
X359598Y207916D01*
X361743Y209349D01*
X363684Y211051D01*
X365385Y212991D01*
X366819Y215136D01*
X367960Y217451D01*
X368789Y219894D01*
X369293Y222425D01*
X369462Y225000D01*
X369293Y227575D01*
X368789Y230106D01*
X367960Y232549D01*
X366819Y234864D01*
X365385Y237009D01*
X363684Y238949D01*
X361743Y240651D01*
X359598Y242084D01*
X357284Y243226D01*
X354840Y244055D01*
X352309Y244559D01*
X349750Y244726D01*
X349750Y244685D01*
X349750Y248658D01*
X352380Y248511D01*
D02*
G37*
G36*
X296630D02*
X299246Y248066D01*
X301795Y247332D01*
X304247Y246316D01*
X306569Y245033D01*
X308733Y243498D01*
X310711Y241730D01*
X312479Y239751D01*
X314014Y237587D01*
X315298Y235265D01*
X316313Y232814D01*
X317047Y230265D01*
X317492Y227649D01*
X317640Y225000D01*
X317492Y222351D01*
X317047Y219735D01*
X316313Y217186D01*
X315298Y214735D01*
X314014Y212413D01*
X312479Y210249D01*
X310711Y208270D01*
X308733Y206502D01*
X306569Y204967D01*
X304247Y203684D01*
X301795Y202668D01*
X299246Y201934D01*
X296630Y201489D01*
X294000Y201342D01*
X294000D01*
X291370Y201489D01*
X288754Y201934D01*
X286205Y202668D01*
X283753Y203684D01*
X281431Y204967D01*
X279268Y206502D01*
X277289Y208270D01*
X275521Y210249D01*
X273986Y212413D01*
X272703Y214735D01*
X271687Y217186D01*
X270953Y219735D01*
X270508Y222351D01*
X270359Y225000D01*
X270508Y227649D01*
X270953Y230265D01*
X271687Y232814D01*
X272703Y235265D01*
X273986Y237587D01*
X275521Y239751D01*
X277289Y241730D01*
X279268Y243498D01*
X281431Y245033D01*
X283753Y246316D01*
X286205Y247332D01*
X288754Y248066D01*
X291370Y248511D01*
X294000Y248658D01*
X294000Y248622D01*
X294000Y244726D01*
X291441Y244559D01*
X288910Y244055D01*
X286466Y243226D01*
X284152Y242084D01*
X282007Y240651D01*
X280066Y238949D01*
X278365Y237009D01*
X276931Y234864D01*
X275790Y232549D01*
X274961Y230106D01*
X274457Y227575D01*
X274288Y225000D01*
X274457Y222425D01*
X274961Y219894D01*
X275790Y217451D01*
X276931Y215136D01*
X278365Y212991D01*
X280066Y211051D01*
X282007Y209349D01*
X284152Y207916D01*
X286466Y206774D01*
X288910Y205945D01*
X291441Y205441D01*
X294000Y205274D01*
X294000D01*
X296559Y205441D01*
X299090Y205945D01*
X301534Y206774D01*
X303848Y207916D01*
X305994Y209349D01*
X307934Y211051D01*
X309635Y212991D01*
X311069Y215136D01*
X312210Y217451D01*
X313039Y219894D01*
X313543Y222425D01*
X313712Y225000D01*
X313543Y227575D01*
X313039Y230106D01*
X312210Y232549D01*
X311069Y234864D01*
X309635Y237009D01*
X307934Y238949D01*
X305994Y240651D01*
X303848Y242084D01*
X301534Y243226D01*
X299090Y244055D01*
X296559Y244559D01*
X294000Y244726D01*
X294000Y244685D01*
X294000Y248658D01*
X296630Y248511D01*
D02*
G37*
D15*
X294000Y246654D02*
D03*
Y225000D02*
D03*
X405500Y246654D02*
D03*
Y225000D02*
D03*
X349750Y246654D02*
D03*
Y225000D02*
D03*
D16*
Y246654D02*
X405500D01*
X294000D02*
X349750D01*
X284500Y249000D02*
Y256685D01*
Y249000D02*
X286846Y246654D01*
X294000D01*
D17*
X324500Y256685D02*
D03*
X314500D02*
D03*
X304500D02*
D03*
X294500D02*
D03*
D18*
X284500D02*
D03*
D19*
X413500Y224500D02*
D03*
X341500Y225000D02*
D03*
X285500Y225500D02*
D03*
M02*
