G04*
G04 #@! TF.GenerationSoftware,Altium Limited,Altium Designer,19.0.15 (446)*
G04*
G04 Layer_Color=65535*
%FSLAX25Y25*%
%MOIN*%
G70*
G01*
G75*
%ADD10C,0.00394*%
%ADD11C,0.00787*%
D10*
X294000Y244685D02*
X293004Y244659D01*
X292010Y244583D01*
X291021Y244456D01*
X290040Y244279D01*
X289069Y244053D01*
X288111Y243778D01*
X287168Y243456D01*
X286242Y243085D01*
X285336Y242668D01*
X284453Y242206D01*
X283594Y241700D01*
X282762Y241151D01*
X281959Y240561D01*
X281187Y239931D01*
X280448Y239262D01*
X279743Y238557D01*
X279075Y237817D01*
X278445Y237044D01*
X277855Y236241D01*
X277307Y235408D01*
X276802Y234549D01*
X276340Y233665D01*
X275924Y232759D01*
X275555Y231833D01*
X275233Y230890D01*
X274958Y229932D01*
X274733Y228961D01*
X274557Y227979D01*
X274431Y226991D01*
X274356Y225996D01*
X274331Y225000D01*
X274356Y224004D01*
X274431Y223009D01*
X274557Y222021D01*
X274733Y221039D01*
X274958Y220068D01*
X275233Y219110D01*
X275555Y218167D01*
X275924Y217241D01*
X276340Y216335D01*
X276802Y215451D01*
X277307Y214592D01*
X277855Y213760D01*
X278445Y212956D01*
X279075Y212183D01*
X279743Y211443D01*
X280447Y210738D01*
X281187Y210069D01*
X281959Y209439D01*
X282762Y208849D01*
X283594Y208300D01*
X284453Y207794D01*
X285336Y207332D01*
X286242Y206915D01*
X287168Y206544D01*
X288111Y206222D01*
X289069Y205947D01*
X290040Y205721D01*
X291021Y205544D01*
X292009Y205417D01*
X293003Y205341D01*
X294000Y205315D01*
X294000D02*
X294997Y205341D01*
X295990Y205417D01*
X296979Y205544D01*
X297960Y205721D01*
X298931Y205947D01*
X299889Y206222D01*
X300832Y206544D01*
X301758Y206915D01*
X302663Y207332D01*
X303547Y207794D01*
X304406Y208300D01*
X305238Y208849D01*
X306041Y209439D01*
X306813Y210069D01*
X307553Y210738D01*
X308257Y211443D01*
X308925Y212183D01*
X309555Y212956D01*
X310145Y213760D01*
X310693Y214592D01*
X311198Y215451D01*
X311660Y216335D01*
X312076Y217241D01*
X312445Y218167D01*
X312768Y219110D01*
X313042Y220068D01*
X313267Y221040D01*
X313443Y222021D01*
X313568Y223010D01*
X313644Y224004D01*
X313669Y225000D01*
X313644Y225997D01*
X313568Y226991D01*
X313443Y227979D01*
X313267Y228961D01*
X313042Y229932D01*
X312768Y230890D01*
X312445Y231834D01*
X312076Y232759D01*
X311660Y233665D01*
X311198Y234549D01*
X310693Y235408D01*
X310144Y236241D01*
X309555Y237044D01*
X308925Y237817D01*
X308257Y238557D01*
X307552Y239262D01*
X306813Y239931D01*
X306041Y240561D01*
X305238Y241151D01*
X304405Y241700D01*
X303547Y242207D01*
X302663Y242669D01*
X301758Y243085D01*
X300832Y243456D01*
X299889Y243778D01*
X298931Y244053D01*
X297960Y244279D01*
X296979Y244456D01*
X295990Y244583D01*
X294996Y244659D01*
X294000Y244685D01*
X294000Y201378D02*
X295002Y201400D01*
X296002Y201465D01*
X296999Y201571D01*
X297990Y201721D01*
X298974Y201912D01*
X299949Y202144D01*
X300913Y202418D01*
X301865Y202732D01*
X302802Y203087D01*
X303724Y203481D01*
X304628Y203913D01*
X305513Y204384D01*
X306377Y204892D01*
X307219Y205435D01*
X308037Y206015D01*
X308829Y206628D01*
X309595Y207274D01*
X310333Y207953D01*
X311042Y208662D01*
X311719Y209400D01*
X312365Y210167D01*
X312978Y210960D01*
X313556Y211778D01*
X314100Y212620D01*
X314607Y213485D01*
X315076Y214370D01*
X315508Y215275D01*
X315902Y216197D01*
X316255Y217134D01*
X316569Y218087D01*
X316842Y219051D01*
X317074Y220026D01*
X317264Y221010D01*
X317412Y222001D01*
X317518Y222998D01*
X317582Y223998D01*
X317603Y225000D01*
X317582Y226002D01*
X317518Y227003D01*
X317412Y227999D01*
X317264Y228990D01*
X317073Y229974D01*
X316842Y230949D01*
X316569Y231914D01*
X316255Y232866D01*
X315901Y233804D01*
X315508Y234726D01*
X315076Y235630D01*
X314606Y236515D01*
X314099Y237380D01*
X313556Y238222D01*
X312978Y239041D01*
X312365Y239834D01*
X311719Y240600D01*
X311041Y241339D01*
X310333Y242048D01*
X309595Y242726D01*
X308829Y243372D01*
X308036Y243986D01*
X307218Y244565D01*
X306377Y245109D01*
X305512Y245616D01*
X304627Y246087D01*
X303723Y246520D01*
X302802Y246914D01*
X301864Y247268D01*
X300912Y247582D01*
X299948Y247856D01*
X298973Y248089D01*
X297990Y248280D01*
X296998Y248429D01*
X296002Y248535D01*
X295002Y248600D01*
X294000Y248622D01*
X292998Y248600D01*
X291998Y248535D01*
X291001Y248429D01*
X290010Y248279D01*
X289026Y248088D01*
X288051Y247856D01*
X287087Y247582D01*
X286136Y247268D01*
X285198Y246913D01*
X284276Y246519D01*
X283372Y246087D01*
X282487Y245616D01*
X281623Y245109D01*
X280781Y244565D01*
X279963Y243985D01*
X279171Y243372D01*
X278405Y242726D01*
X277667Y242047D01*
X276958Y241338D01*
X276281Y240600D01*
X275635Y239833D01*
X275022Y239040D01*
X274444Y238222D01*
X273901Y237380D01*
X273393Y236515D01*
X272923Y235630D01*
X272492Y234725D01*
X272098Y233803D01*
X271745Y232866D01*
X271431Y231914D01*
X271158Y230949D01*
X270926Y229974D01*
X270736Y228990D01*
X270588Y227999D01*
X270482Y227002D01*
X270418Y226002D01*
X270397Y225000D01*
X270418Y223998D01*
X270482Y222998D01*
X270588Y222001D01*
X270736Y221010D01*
X270926Y220026D01*
X271158Y219051D01*
X271431Y218086D01*
X271745Y217134D01*
X272098Y216197D01*
X272492Y215275D01*
X272923Y214370D01*
X273393Y213485D01*
X273901Y212620D01*
X274444Y211778D01*
X275022Y210960D01*
X275635Y210167D01*
X276281Y209400D01*
X276958Y208662D01*
X277667Y207953D01*
X278405Y207274D01*
X279171Y206628D01*
X279963Y206015D01*
X280781Y205435D01*
X281623Y204891D01*
X282487Y204384D01*
X283372Y203913D01*
X284276Y203481D01*
X285198Y203087D01*
X286135Y202732D01*
X287087Y202418D01*
X288051Y202144D01*
X289026Y201912D01*
X290010Y201721D01*
X291001Y201571D01*
X291998Y201465D01*
X292998Y201400D01*
X294000Y201378D01*
Y240748D02*
X292992Y240715D01*
X291987Y240617D01*
X290991Y240456D01*
X290008Y240230D01*
X289041Y239943D01*
X288094Y239594D01*
X287172Y239185D01*
X286277Y238717D01*
X285415Y238194D01*
X284588Y237616D01*
X283799Y236987D01*
X283052Y236308D01*
X282351Y235583D01*
X281697Y234815D01*
X281094Y234006D01*
X280543Y233160D01*
X280049Y232281D01*
X279611Y231371D01*
X279233Y230436D01*
X278915Y229479D01*
X278659Y228502D01*
X278466Y227512D01*
X278337Y226511D01*
X278273Y225504D01*
Y224496D01*
X278337Y223489D01*
X278466Y222488D01*
X278659Y221498D01*
X278915Y220521D01*
X279233Y219564D01*
X279611Y218629D01*
X280048Y217719D01*
X280543Y216840D01*
X281094Y215994D01*
X281697Y215185D01*
X282351Y214417D01*
X283052Y213692D01*
X283799Y213013D01*
X284588Y212384D01*
X285415Y211806D01*
X286277Y211283D01*
X287172Y210815D01*
X288094Y210406D01*
X289041Y210057D01*
X290008Y209770D01*
X290991Y209544D01*
X291987Y209383D01*
X292991Y209285D01*
X294000Y209252D01*
X294000Y209252D02*
X295008Y209285D01*
X296013Y209383D01*
X297009Y209544D01*
X297992Y209770D01*
X298959Y210057D01*
X299906Y210406D01*
X300828Y210815D01*
X301723Y211283D01*
X302585Y211806D01*
X303412Y212384D01*
X304201Y213013D01*
X304948Y213692D01*
X305649Y214417D01*
X306303Y215185D01*
X306906Y215994D01*
X307456Y216840D01*
X307951Y217719D01*
X308389Y218629D01*
X308768Y219564D01*
X309085Y220521D01*
X309341Y221497D01*
X309534Y222488D01*
X309663Y223488D01*
X309727Y224496D01*
Y225504D01*
X309663Y226511D01*
X309534Y227512D01*
X309341Y228502D01*
X309085Y229479D01*
X308768Y230436D01*
X308389Y231371D01*
X307951Y232281D01*
X307457Y233160D01*
X306906Y234006D01*
X306303Y234815D01*
X305649Y235583D01*
X304948Y236308D01*
X304201Y236987D01*
X303413Y237616D01*
X302585Y238194D01*
X301723Y238717D01*
X300828Y239185D01*
X299906Y239594D01*
X298959Y239943D01*
X297992Y240230D01*
X297009Y240456D01*
X296013Y240617D01*
X295008Y240715D01*
X294000Y240748D01*
X405500Y244685D02*
X404503Y244659D01*
X403510Y244583D01*
X402521Y244456D01*
X401540Y244279D01*
X400569Y244053D01*
X399611Y243778D01*
X398668Y243456D01*
X397742Y243085D01*
X396836Y242668D01*
X395953Y242206D01*
X395094Y241700D01*
X394262Y241151D01*
X393459Y240561D01*
X392687Y239931D01*
X391948Y239262D01*
X391243Y238557D01*
X390575Y237817D01*
X389945Y237044D01*
X389355Y236241D01*
X388807Y235408D01*
X388302Y234549D01*
X387840Y233665D01*
X387424Y232759D01*
X387055Y231833D01*
X386733Y230890D01*
X386458Y229932D01*
X386233Y228961D01*
X386057Y227979D01*
X385931Y226991D01*
X385856Y225996D01*
X385831Y225000D01*
X385856Y224004D01*
X385931Y223009D01*
X386057Y222021D01*
X386233Y221039D01*
X386458Y220068D01*
X386733Y219110D01*
X387055Y218167D01*
X387424Y217241D01*
X387840Y216335D01*
X388302Y215451D01*
X388807Y214592D01*
X389355Y213760D01*
X389945Y212956D01*
X390575Y212183D01*
X391243Y211443D01*
X391947Y210738D01*
X392687Y210069D01*
X393459Y209439D01*
X394262Y208849D01*
X395094Y208300D01*
X395953Y207794D01*
X396836Y207332D01*
X397742Y206915D01*
X398668Y206544D01*
X399611Y206222D01*
X400569Y205947D01*
X401540Y205721D01*
X402521Y205544D01*
X403510Y205417D01*
X404503Y205341D01*
X405500Y205315D01*
X405500D02*
X406496Y205341D01*
X407490Y205417D01*
X408479Y205544D01*
X409460Y205721D01*
X410431Y205947D01*
X411389Y206222D01*
X412332Y206544D01*
X413258Y206915D01*
X414163Y207332D01*
X415047Y207794D01*
X415906Y208300D01*
X416738Y208849D01*
X417541Y209439D01*
X418313Y210069D01*
X419053Y210738D01*
X419757Y211443D01*
X420425Y212183D01*
X421055Y212956D01*
X421645Y213760D01*
X422193Y214592D01*
X422698Y215451D01*
X423160Y216335D01*
X423576Y217241D01*
X423945Y218167D01*
X424267Y219110D01*
X424542Y220068D01*
X424767Y221040D01*
X424943Y222021D01*
X425069Y223010D01*
X425144Y224004D01*
X425169Y225000D01*
X425144Y225997D01*
X425069Y226991D01*
X424943Y227979D01*
X424767Y228961D01*
X424542Y229932D01*
X424267Y230890D01*
X423945Y231834D01*
X423576Y232759D01*
X423160Y233665D01*
X422698Y234549D01*
X422193Y235408D01*
X421644Y236241D01*
X421055Y237044D01*
X420425Y237817D01*
X419757Y238557D01*
X419052Y239262D01*
X418313Y239931D01*
X417541Y240561D01*
X416738Y241151D01*
X415905Y241700D01*
X415047Y242207D01*
X414163Y242669D01*
X413258Y243085D01*
X412332Y243456D01*
X411389Y243778D01*
X410431Y244053D01*
X409460Y244279D01*
X408479Y244456D01*
X407490Y244583D01*
X406496Y244659D01*
X405500Y244685D01*
X405500Y201378D02*
X406502Y201400D01*
X407502Y201465D01*
X408499Y201571D01*
X409490Y201721D01*
X410474Y201912D01*
X411449Y202144D01*
X412413Y202418D01*
X413365Y202732D01*
X414302Y203087D01*
X415224Y203481D01*
X416128Y203913D01*
X417013Y204384D01*
X417877Y204892D01*
X418719Y205435D01*
X419537Y206015D01*
X420329Y206628D01*
X421095Y207274D01*
X421833Y207953D01*
X422542Y208662D01*
X423219Y209400D01*
X423865Y210167D01*
X424478Y210960D01*
X425056Y211778D01*
X425600Y212620D01*
X426107Y213485D01*
X426577Y214370D01*
X427008Y215275D01*
X427402Y216197D01*
X427755Y217134D01*
X428069Y218087D01*
X428342Y219051D01*
X428574Y220026D01*
X428764Y221010D01*
X428912Y222001D01*
X429018Y222998D01*
X429082Y223998D01*
X429103Y225000D01*
X429082Y226002D01*
X429018Y227003D01*
X428912Y227999D01*
X428764Y228990D01*
X428574Y229974D01*
X428342Y230949D01*
X428069Y231914D01*
X427755Y232866D01*
X427401Y233804D01*
X427008Y234726D01*
X426576Y235630D01*
X426106Y236515D01*
X425599Y237380D01*
X425056Y238222D01*
X424478Y239041D01*
X423865Y239834D01*
X423219Y240600D01*
X422541Y241339D01*
X421833Y242048D01*
X421095Y242726D01*
X420329Y243372D01*
X419536Y243986D01*
X418718Y244565D01*
X417876Y245109D01*
X417012Y245616D01*
X416127Y246087D01*
X415223Y246520D01*
X414302Y246914D01*
X413364Y247268D01*
X412413Y247582D01*
X411448Y247856D01*
X410473Y248089D01*
X409489Y248280D01*
X408498Y248429D01*
X407502Y248535D01*
X406502Y248600D01*
X405500Y248622D01*
X404498Y248600D01*
X403498Y248535D01*
X402501Y248429D01*
X401510Y248279D01*
X400526Y248088D01*
X399551Y247856D01*
X398587Y247582D01*
X397636Y247268D01*
X396698Y246913D01*
X395776Y246519D01*
X394872Y246087D01*
X393987Y245616D01*
X393123Y245109D01*
X392281Y244565D01*
X391463Y243985D01*
X390671Y243372D01*
X389905Y242726D01*
X389167Y242047D01*
X388458Y241338D01*
X387781Y240600D01*
X387135Y239833D01*
X386522Y239040D01*
X385944Y238222D01*
X385401Y237380D01*
X384893Y236515D01*
X384423Y235630D01*
X383992Y234725D01*
X383598Y233803D01*
X383245Y232866D01*
X382931Y231914D01*
X382658Y230949D01*
X382426Y229974D01*
X382236Y228990D01*
X382088Y227999D01*
X381982Y227002D01*
X381918Y226002D01*
X381897Y225000D01*
X381918Y223998D01*
X381982Y222998D01*
X382088Y222001D01*
X382236Y221010D01*
X382426Y220026D01*
X382658Y219051D01*
X382931Y218086D01*
X383245Y217134D01*
X383598Y216197D01*
X383992Y215275D01*
X384423Y214370D01*
X384893Y213485D01*
X385401Y212620D01*
X385944Y211778D01*
X386522Y210960D01*
X387135Y210167D01*
X387781Y209400D01*
X388458Y208662D01*
X389167Y207953D01*
X389905Y207274D01*
X390671Y206628D01*
X391463Y206015D01*
X392281Y205435D01*
X393123Y204891D01*
X393987Y204384D01*
X394872Y203913D01*
X395776Y203481D01*
X396698Y203087D01*
X397635Y202732D01*
X398587Y202418D01*
X399551Y202144D01*
X400526Y201912D01*
X401510Y201721D01*
X402501Y201571D01*
X403498Y201465D01*
X404498Y201400D01*
X405500Y201378D01*
Y240748D02*
X404492Y240715D01*
X403487Y240617D01*
X402491Y240456D01*
X401508Y240230D01*
X400541Y239943D01*
X399594Y239594D01*
X398672Y239185D01*
X397777Y238717D01*
X396915Y238194D01*
X396088Y237616D01*
X395299Y236987D01*
X394552Y236308D01*
X393851Y235583D01*
X393197Y234815D01*
X392594Y234006D01*
X392043Y233160D01*
X391549Y232281D01*
X391111Y231371D01*
X390733Y230436D01*
X390415Y229479D01*
X390159Y228502D01*
X389966Y227512D01*
X389837Y226511D01*
X389773Y225504D01*
Y224496D01*
X389837Y223489D01*
X389966Y222488D01*
X390159Y221498D01*
X390415Y220521D01*
X390733Y219564D01*
X391111Y218629D01*
X391548Y217719D01*
X392043Y216840D01*
X392594Y215994D01*
X393197Y215185D01*
X393851Y214417D01*
X394552Y213692D01*
X395299Y213013D01*
X396088Y212384D01*
X396915Y211806D01*
X397777Y211283D01*
X398672Y210815D01*
X399594Y210406D01*
X400541Y210057D01*
X401508Y209770D01*
X402491Y209544D01*
X403487Y209383D01*
X404492Y209285D01*
X405500Y209252D01*
X405500Y209252D02*
X406508Y209285D01*
X407513Y209383D01*
X408509Y209544D01*
X409492Y209770D01*
X410459Y210057D01*
X411406Y210406D01*
X412328Y210815D01*
X413223Y211283D01*
X414085Y211806D01*
X414912Y212384D01*
X415701Y213013D01*
X416448Y213692D01*
X417149Y214417D01*
X417803Y215185D01*
X418406Y215994D01*
X418957Y216840D01*
X419451Y217719D01*
X419889Y218629D01*
X420267Y219564D01*
X420585Y220521D01*
X420841Y221497D01*
X421034Y222488D01*
X421163Y223488D01*
X421227Y224496D01*
Y225504D01*
X421163Y226511D01*
X421034Y227512D01*
X420841Y228502D01*
X420585Y229479D01*
X420267Y230436D01*
X419889Y231371D01*
X419452Y232281D01*
X418957Y233160D01*
X418406Y234006D01*
X417803Y234815D01*
X417149Y235583D01*
X416448Y236308D01*
X415701Y236987D01*
X414913Y237616D01*
X414085Y238194D01*
X413223Y238717D01*
X412328Y239185D01*
X411406Y239594D01*
X410459Y239943D01*
X409492Y240230D01*
X408509Y240456D01*
X407513Y240617D01*
X406508Y240715D01*
X405500Y240748D01*
X349750Y244685D02*
X348753Y244659D01*
X347760Y244583D01*
X346771Y244456D01*
X345790Y244279D01*
X344819Y244053D01*
X343861Y243778D01*
X342918Y243456D01*
X341992Y243085D01*
X341087Y242668D01*
X340203Y242206D01*
X339344Y241700D01*
X338512Y241151D01*
X337709Y240561D01*
X336937Y239931D01*
X336197Y239262D01*
X335493Y238557D01*
X334825Y237817D01*
X334195Y237044D01*
X333605Y236241D01*
X333057Y235408D01*
X332552Y234549D01*
X332090Y233665D01*
X331674Y232759D01*
X331305Y231833D01*
X330982Y230890D01*
X330708Y229932D01*
X330483Y228961D01*
X330307Y227979D01*
X330182Y226991D01*
X330106Y225996D01*
X330081Y225000D01*
X330106Y224004D01*
X330182Y223009D01*
X330307Y222021D01*
X330483Y221039D01*
X330708Y220068D01*
X330982Y219110D01*
X331305Y218167D01*
X331674Y217241D01*
X332090Y216335D01*
X332552Y215451D01*
X333057Y214592D01*
X333605Y213760D01*
X334195Y212956D01*
X334825Y212183D01*
X335493Y211443D01*
X336197Y210738D01*
X336937Y210069D01*
X337709Y209439D01*
X338512Y208849D01*
X339344Y208300D01*
X340203Y207794D01*
X341087Y207332D01*
X341992Y206915D01*
X342917Y206544D01*
X343861Y206222D01*
X344819Y205947D01*
X345790Y205721D01*
X346771Y205544D01*
X347760Y205417D01*
X348753Y205341D01*
X349750Y205315D01*
X349750D02*
X350746Y205341D01*
X351740Y205417D01*
X352729Y205544D01*
X353710Y205721D01*
X354681Y205947D01*
X355639Y206222D01*
X356582Y206544D01*
X357508Y206915D01*
X358414Y207332D01*
X359297Y207794D01*
X360156Y208300D01*
X360988Y208849D01*
X361791Y209439D01*
X362563Y210069D01*
X363303Y210738D01*
X364007Y211443D01*
X364675Y212183D01*
X365305Y212956D01*
X365895Y213760D01*
X366443Y214592D01*
X366948Y215451D01*
X367410Y216335D01*
X367826Y217241D01*
X368195Y218167D01*
X368517Y219110D01*
X368792Y220068D01*
X369017Y221040D01*
X369193Y222021D01*
X369319Y223010D01*
X369394Y224004D01*
X369419Y225000D01*
X369394Y225997D01*
X369319Y226991D01*
X369193Y227979D01*
X369017Y228961D01*
X368792Y229932D01*
X368517Y230890D01*
X368195Y231834D01*
X367826Y232759D01*
X367410Y233665D01*
X366948Y234549D01*
X366443Y235408D01*
X365895Y236241D01*
X365305Y237044D01*
X364675Y237817D01*
X364007Y238557D01*
X363302Y239262D01*
X362563Y239931D01*
X361791Y240561D01*
X360987Y241151D01*
X360155Y241700D01*
X359297Y242207D01*
X358413Y242669D01*
X357508Y243085D01*
X356582Y243456D01*
X355639Y243778D01*
X354681Y244053D01*
X353710Y244279D01*
X352729Y244456D01*
X351740Y244583D01*
X350746Y244659D01*
X349750Y244685D01*
X349750Y201378D02*
X350752Y201400D01*
X351752Y201465D01*
X352749Y201571D01*
X353740Y201721D01*
X354724Y201912D01*
X355699Y202144D01*
X356663Y202418D01*
X357615Y202732D01*
X358552Y203087D01*
X359474Y203481D01*
X360378Y203913D01*
X361263Y204384D01*
X362127Y204892D01*
X362969Y205435D01*
X363787Y206015D01*
X364579Y206628D01*
X365345Y207274D01*
X366083Y207953D01*
X366792Y208662D01*
X367469Y209400D01*
X368115Y210167D01*
X368728Y210960D01*
X369306Y211778D01*
X369850Y212620D01*
X370357Y213485D01*
X370827Y214370D01*
X371258Y215275D01*
X371652Y216197D01*
X372005Y217134D01*
X372319Y218087D01*
X372592Y219051D01*
X372824Y220026D01*
X373014Y221010D01*
X373162Y222001D01*
X373268Y222998D01*
X373332Y223998D01*
X373353Y225000D01*
X373332Y226002D01*
X373268Y227003D01*
X373162Y227999D01*
X373014Y228990D01*
X372824Y229974D01*
X372592Y230949D01*
X372319Y231914D01*
X372005Y232866D01*
X371652Y233804D01*
X371258Y234726D01*
X370826Y235630D01*
X370356Y236515D01*
X369849Y237380D01*
X369306Y238222D01*
X368728Y239041D01*
X368115Y239834D01*
X367469Y240600D01*
X366791Y241339D01*
X366083Y242048D01*
X365345Y242726D01*
X364579Y243372D01*
X363786Y243986D01*
X362968Y244565D01*
X362126Y245109D01*
X361262Y245616D01*
X360377Y246087D01*
X359473Y246520D01*
X358552Y246914D01*
X357614Y247268D01*
X356663Y247582D01*
X355698Y247856D01*
X354723Y248089D01*
X353740Y248280D01*
X352748Y248429D01*
X351752Y248535D01*
X350752Y248600D01*
X349750Y248622D01*
X348748Y248600D01*
X347748Y248535D01*
X346751Y248429D01*
X345760Y248279D01*
X344776Y248088D01*
X343801Y247856D01*
X342837Y247582D01*
X341885Y247268D01*
X340948Y246913D01*
X340026Y246519D01*
X339122Y246087D01*
X338237Y245616D01*
X337373Y245109D01*
X336531Y244565D01*
X335713Y243985D01*
X334921Y243372D01*
X334155Y242726D01*
X333417Y242047D01*
X332708Y241338D01*
X332031Y240600D01*
X331385Y239833D01*
X330772Y239040D01*
X330194Y238222D01*
X329650Y237380D01*
X329143Y236515D01*
X328674Y235630D01*
X328242Y234725D01*
X327849Y233803D01*
X327495Y232866D01*
X327181Y231914D01*
X326908Y230949D01*
X326676Y229974D01*
X326486Y228990D01*
X326338Y227999D01*
X326232Y227002D01*
X326168Y226002D01*
X326147Y225000D01*
X326168Y223998D01*
X326232Y222998D01*
X326338Y222001D01*
X326486Y221010D01*
X326676Y220026D01*
X326908Y219051D01*
X327181Y218086D01*
X327495Y217134D01*
X327849Y216197D01*
X328242Y215275D01*
X328674Y214370D01*
X329143Y213485D01*
X329650Y212620D01*
X330194Y211778D01*
X330772Y210960D01*
X331385Y210167D01*
X332031Y209400D01*
X332708Y208662D01*
X333417Y207953D01*
X334155Y207274D01*
X334921Y206628D01*
X335713Y206015D01*
X336531Y205435D01*
X337373Y204891D01*
X338237Y204384D01*
X339122Y203913D01*
X340026Y203481D01*
X340948Y203087D01*
X341885Y202732D01*
X342837Y202418D01*
X343801Y202144D01*
X344776Y201912D01*
X345760Y201721D01*
X346751Y201571D01*
X347748Y201465D01*
X348748Y201400D01*
X349750Y201378D01*
Y240748D02*
X348742Y240715D01*
X347737Y240617D01*
X346741Y240456D01*
X345758Y240230D01*
X344791Y239943D01*
X343844Y239594D01*
X342922Y239185D01*
X342027Y238717D01*
X341165Y238194D01*
X340337Y237616D01*
X339549Y236987D01*
X338802Y236308D01*
X338101Y235583D01*
X337447Y234815D01*
X336844Y234006D01*
X336294Y233160D01*
X335799Y232281D01*
X335361Y231371D01*
X334982Y230436D01*
X334665Y229479D01*
X334409Y228502D01*
X334216Y227512D01*
X334087Y226511D01*
X334023Y225504D01*
Y224496D01*
X334087Y223489D01*
X334216Y222488D01*
X334409Y221498D01*
X334665Y220521D01*
X334982Y219564D01*
X335361Y218629D01*
X335799Y217719D01*
X336293Y216840D01*
X336844Y215994D01*
X337447Y215185D01*
X338101Y214417D01*
X338802Y213692D01*
X339549Y213013D01*
X340337Y212384D01*
X341165Y211806D01*
X342027Y211283D01*
X342922Y210815D01*
X343844Y210406D01*
X344791Y210057D01*
X345758Y209770D01*
X346741Y209544D01*
X347737Y209383D01*
X348742Y209285D01*
X349750Y209252D01*
X349750Y209252D02*
X350758Y209285D01*
X351763Y209383D01*
X352759Y209544D01*
X353742Y209770D01*
X354709Y210057D01*
X355656Y210406D01*
X356578Y210815D01*
X357473Y211283D01*
X358335Y211806D01*
X359162Y212384D01*
X359951Y213013D01*
X360698Y213692D01*
X361399Y214417D01*
X362053Y215185D01*
X362656Y215994D01*
X363207Y216840D01*
X363701Y217719D01*
X364139Y218629D01*
X364517Y219564D01*
X364835Y220521D01*
X365091Y221497D01*
X365284Y222488D01*
X365413Y223488D01*
X365477Y224496D01*
Y225504D01*
X365413Y226511D01*
X365284Y227512D01*
X365091Y228502D01*
X364835Y229479D01*
X364517Y230436D01*
X364139Y231371D01*
X363702Y232281D01*
X363207Y233160D01*
X362656Y234006D01*
X362053Y234815D01*
X361399Y235583D01*
X360698Y236308D01*
X359951Y236987D01*
X359162Y237616D01*
X358335Y238194D01*
X357473Y238717D01*
X356578Y239185D01*
X355656Y239594D01*
X354709Y239943D01*
X353742Y240230D01*
X352759Y240456D01*
X351763Y240617D01*
X350759Y240715D01*
X349750Y240748D01*
X294000Y244685D02*
Y248622D01*
Y244685D02*
Y248622D01*
X405500Y244685D02*
Y248622D01*
Y244685D02*
Y248622D01*
X349750Y244685D02*
Y248622D01*
Y244685D02*
Y248622D01*
D11*
X279500Y251685D02*
Y261685D01*
X329500D01*
X279500Y251685D02*
X329500D01*
Y261685D01*
M02*
