G04*
G04 #@! TF.GenerationSoftware,Altium Limited,Altium Designer,19.0.15 (446)*
G04*
G04 Layer_Color=8388736*
%FSLAX25Y25*%
%MOIN*%
G70*
G01*
G75*
%ADD97C,0.00039*%
D97*
X204441Y401437D02*
X204638D01*
Y401306D01*
X204507Y401207D02*
Y401142D01*
X204539Y401109D01*
X204638D01*
Y401207D01*
X204605Y401240D01*
X204572Y401207D01*
Y401109D01*
X204638Y401043D02*
X204507D01*
Y400945D01*
X204539Y400912D01*
X204638D01*
X204441Y400715D02*
X204638D01*
Y400814D01*
X204605Y400847D01*
X204539D01*
X204507Y400814D01*
Y400715D01*
X204638Y400453D02*
X204441D01*
Y400355D01*
X204474Y400322D01*
X204539D01*
X204572Y400355D01*
Y400453D01*
X204507Y400223D02*
Y400158D01*
X204539Y400125D01*
X204638D01*
Y400223D01*
X204605Y400256D01*
X204572Y400223D01*
Y400125D01*
X204474Y400027D02*
X204507D01*
Y400060D01*
Y399994D01*
Y400027D01*
X204605D01*
X204638Y399994D01*
X204474Y399863D02*
X204507D01*
Y399896D01*
Y399830D01*
Y399863D01*
X204605D01*
X204638Y399830D01*
Y399633D02*
Y399699D01*
X204605Y399731D01*
X204539D01*
X204507Y399699D01*
Y399633D01*
X204539Y399600D01*
X204572D01*
Y399731D01*
X204507Y399535D02*
X204638D01*
X204572D01*
X204539Y399502D01*
X204507Y399469D01*
Y399436D01*
X204638Y399338D02*
X204507D01*
Y399239D01*
X204539Y399207D01*
X204638D01*
Y398944D02*
X204507D01*
X204441Y398879D01*
X204507Y398813D01*
X204638D01*
X204539D01*
Y398944D01*
X204441Y398616D02*
X204638D01*
Y398715D01*
X204605Y398748D01*
X204539D01*
X204507Y398715D01*
Y398616D01*
Y398518D02*
Y398452D01*
X204539Y398420D01*
X204638D01*
Y398518D01*
X204605Y398551D01*
X204572Y398518D01*
Y398420D01*
X204703Y398354D02*
X204507D01*
Y398256D01*
X204539Y398223D01*
X204605D01*
X204638Y398256D01*
Y398354D01*
X204474Y398124D02*
X204507D01*
Y398157D01*
Y398092D01*
Y398124D01*
X204605D01*
X204638Y398092D01*
Y397895D02*
Y397960D01*
X204605Y397993D01*
X204539D01*
X204507Y397960D01*
Y397895D01*
X204539Y397862D01*
X204572D01*
Y397993D01*
X204441Y397665D02*
X204638D01*
Y397764D01*
X204605Y397796D01*
X204539D01*
X204507Y397764D01*
Y397665D01*
X204638Y397370D02*
X204474D01*
X204539D01*
Y397403D01*
Y397337D01*
Y397370D01*
X204474D01*
X204441Y397337D01*
X204638Y397206D02*
Y397140D01*
X204605Y397108D01*
X204539D01*
X204507Y397140D01*
Y397206D01*
X204539Y397239D01*
X204605D01*
X204638Y397206D01*
X204507Y397042D02*
X204638D01*
X204572D01*
X204539Y397009D01*
X204507Y396976D01*
Y396944D01*
X204441Y396517D02*
Y396649D01*
X204539D01*
Y396583D01*
Y396649D01*
X204638D01*
Y396452D02*
Y396386D01*
Y396419D01*
X204441D01*
Y396452D01*
X204638Y396255D02*
Y396189D01*
X204605Y396157D01*
X204539D01*
X204507Y396189D01*
Y396255D01*
X204539Y396288D01*
X204605D01*
X204638Y396255D01*
X204507Y396091D02*
X204605D01*
X204638Y396058D01*
X204605Y396025D01*
X204638Y395992D01*
X204605Y395960D01*
X204507D01*
X204474Y395566D02*
X204441Y395599D01*
Y395665D01*
X204474Y395697D01*
X204507D01*
X204539Y395665D01*
Y395599D01*
X204572Y395566D01*
X204605D01*
X204638Y395599D01*
Y395665D01*
X204605Y395697D01*
X204638Y395468D02*
Y395402D01*
X204605Y395369D01*
X204539D01*
X204507Y395402D01*
Y395468D01*
X204539Y395500D01*
X204605D01*
X204638Y395468D01*
Y395304D02*
Y395238D01*
Y395271D01*
X204441D01*
Y395304D01*
Y395009D02*
X204638D01*
Y395107D01*
X204605Y395140D01*
X204539D01*
X204507Y395107D01*
Y395009D01*
X204638Y394845D02*
Y394910D01*
X204605Y394943D01*
X204539D01*
X204507Y394910D01*
Y394845D01*
X204539Y394812D01*
X204572D01*
Y394943D01*
X204507Y394746D02*
X204638D01*
X204572D01*
X204539Y394713D01*
X204507Y394681D01*
Y394648D01*
X204638Y394549D02*
Y394484D01*
Y394517D01*
X204507D01*
Y394549D01*
X204638Y394385D02*
X204507D01*
Y394287D01*
X204539Y394254D01*
X204638D01*
X204703Y394123D02*
Y394090D01*
X204671Y394057D01*
X204507D01*
Y394156D01*
X204539Y394189D01*
X204605D01*
X204638Y394156D01*
Y394057D01*
M02*
