G04*
G04 #@! TF.GenerationSoftware,Altium Limited,Altium Designer,19.0.15 (446)*
G04*
G04 Layer_Color=8388736*
%FSLAX25Y25*%
%MOIN*%
G70*
G01*
G75*
%ADD14R,0.04737X0.04343*%
%ADD15R,0.08280X0.13398*%
%ADD16R,0.08280X0.04343*%
%ADD17R,0.04147X0.02572*%
%ADD18R,0.05524X0.05524*%
%ADD19R,0.07099X0.06706*%
%ADD20R,0.03950X0.03950*%
%ADD21R,0.04343X0.03556*%
%ADD22R,0.02572X0.07690*%
%ADD23R,0.05131X0.05131*%
%ADD24R,0.06706X0.04343*%
%ADD25R,0.04540X0.04147*%
%ADD26C,0.06706*%
%ADD27R,0.06706X0.06706*%
%ADD28R,0.06706X0.06706*%
%ADD29C,0.20485*%
%ADD30C,0.03162*%
D14*
X246500Y391248D02*
D03*
Y384949D02*
D03*
Y367498D02*
D03*
Y361199D02*
D03*
Y343748D02*
D03*
Y337449D02*
D03*
Y319998D02*
D03*
Y313699D02*
D03*
Y296248D02*
D03*
Y289949D02*
D03*
X177000Y403244D02*
D03*
Y396945D02*
D03*
Y379369D02*
D03*
Y373070D02*
D03*
Y331619D02*
D03*
Y325320D02*
D03*
Y307744D02*
D03*
Y301445D02*
D03*
Y355494D02*
D03*
Y349195D02*
D03*
X136000Y329350D02*
D03*
Y335650D02*
D03*
X126500Y355150D02*
D03*
Y348850D02*
D03*
X166902Y355150D02*
D03*
Y348850D02*
D03*
X159224Y355150D02*
D03*
Y348850D02*
D03*
X151500Y355150D02*
D03*
Y348850D02*
D03*
X145500Y295000D02*
D03*
Y288701D02*
D03*
X153500Y295051D02*
D03*
Y288752D02*
D03*
X166500Y295051D02*
D03*
Y288752D02*
D03*
X174500Y295051D02*
D03*
Y288752D02*
D03*
D15*
X166559Y384650D02*
D03*
D16*
X143331Y375594D02*
D03*
Y384650D02*
D03*
Y393705D02*
D03*
D17*
X134500Y379953D02*
D03*
Y374047D02*
D03*
D18*
X135063Y362236D02*
D03*
X142937D02*
D03*
D19*
X139000Y349441D02*
D03*
D20*
X126500Y388099D02*
D03*
Y394398D02*
D03*
D21*
X126500Y374244D02*
D03*
Y379756D02*
D03*
D22*
X144500Y306500D02*
D03*
X147059D02*
D03*
X149618D02*
D03*
X152177D02*
D03*
X154736D02*
D03*
X157295D02*
D03*
X159854D02*
D03*
X162413D02*
D03*
X164972D02*
D03*
X167532D02*
D03*
X144500Y334846D02*
D03*
X147059D02*
D03*
X149618D02*
D03*
X152177D02*
D03*
X154736D02*
D03*
X157295D02*
D03*
X159854D02*
D03*
X162413D02*
D03*
X164972D02*
D03*
X167532D02*
D03*
D23*
X136000Y314043D02*
D03*
Y306957D02*
D03*
D24*
X186354Y406090D02*
D03*
Y393098D02*
D03*
X205646D02*
D03*
Y406090D02*
D03*
X237146Y286748D02*
D03*
Y299740D02*
D03*
X217854D02*
D03*
Y286748D02*
D03*
X186354Y382456D02*
D03*
Y369464D02*
D03*
X205646D02*
D03*
Y382456D02*
D03*
X237146Y310336D02*
D03*
Y323328D02*
D03*
X217854D02*
D03*
Y310336D02*
D03*
X186354Y358821D02*
D03*
Y345829D02*
D03*
X205646D02*
D03*
Y358821D02*
D03*
X237146Y333923D02*
D03*
Y346915D02*
D03*
X217854D02*
D03*
Y333923D02*
D03*
X186354Y335186D02*
D03*
Y322194D02*
D03*
X205646D02*
D03*
Y335186D02*
D03*
X237146Y357511D02*
D03*
Y370503D02*
D03*
X217854D02*
D03*
Y357511D02*
D03*
X186354Y311551D02*
D03*
Y298559D02*
D03*
X205646D02*
D03*
Y311551D02*
D03*
X237146Y381098D02*
D03*
Y394091D02*
D03*
X217854D02*
D03*
Y381098D02*
D03*
D25*
X134500Y393752D02*
D03*
Y388437D02*
D03*
D26*
X288000Y320500D02*
D03*
Y310500D02*
D03*
X272000Y303000D02*
D03*
X262000D02*
D03*
X272000Y293000D02*
D03*
X262000D02*
D03*
X272000Y283000D02*
D03*
X260953Y359000D02*
D03*
X187000Y277000D02*
D03*
X177000D02*
D03*
X167000D02*
D03*
X157000D02*
D03*
D27*
X288000Y300500D02*
D03*
X262000Y283000D02*
D03*
X260953Y369000D02*
D03*
D28*
X147000Y277000D02*
D03*
D29*
X297500Y415000D02*
D03*
X127000D02*
D03*
X297500Y281000D02*
D03*
X127000D02*
D03*
D30*
X141000Y330488D02*
D03*
X138425Y291500D02*
D03*
X235500Y328000D02*
D03*
X253416Y292500D02*
D03*
X194000Y346372D02*
D03*
X197000Y322000D02*
D03*
Y298516D02*
D03*
X121500Y377000D02*
D03*
X131938Y368500D02*
D03*
X193500Y284072D02*
D03*
X204500Y284500D02*
D03*
X211000Y374500D02*
D03*
X197500Y392051D02*
D03*
X167000Y396687D02*
D03*
X265851Y337500D02*
D03*
X251291Y373344D02*
D03*
X246500Y354000D02*
D03*
X274500Y373275D02*
D03*
X230000Y387226D02*
D03*
X186354Y289547D02*
D03*
X258149Y318500D02*
D03*
X154736Y300000D02*
D03*
X227500Y311000D02*
D03*
X246000Y282500D02*
D03*
X230000Y360000D02*
D03*
X223000Y366500D02*
D03*
X167000Y343000D02*
D03*
X154736Y328500D02*
D03*
M02*
