G04*
G04 #@! TF.GenerationSoftware,Altium Limited,Altium Designer,19.0.15 (446)*
G04*
G04 Layer_Color=8388736*
%FSLAX25Y25*%
%MOIN*%
G70*
G01*
G75*
%ADD12C,0.01000*%
D12*
X310000Y415000D02*
X309962Y415981D01*
X309846Y416955D01*
X309655Y417918D01*
X309388Y418863D01*
X309049Y419783D01*
X308638Y420675D01*
X308158Y421531D01*
X307613Y422347D01*
X307005Y423118D01*
X306339Y423839D01*
X305618Y424505D01*
X304847Y425113D01*
X304031Y425658D01*
X303175Y426138D01*
X302284Y426548D01*
X301363Y426888D01*
X300418Y427155D01*
X299455Y427346D01*
X298481Y427461D01*
X297500Y427500D01*
Y268500D02*
X298481Y268538D01*
X299455Y268654D01*
X300418Y268845D01*
X301363Y269112D01*
X302284Y269451D01*
X303175Y269862D01*
X304031Y270342D01*
X304847Y270887D01*
X305618Y271495D01*
X306339Y272161D01*
X307005Y272882D01*
X307613Y273653D01*
X308158Y274469D01*
X308638Y275325D01*
X309049Y276217D01*
X309388Y277137D01*
X309655Y278082D01*
X309846Y279045D01*
X309962Y280019D01*
X310000Y281000D01*
X127000Y427500D02*
X126019Y427461D01*
X125045Y427346D01*
X124082Y427155D01*
X123137Y426888D01*
X122216Y426548D01*
X121325Y426138D01*
X120469Y425658D01*
X119653Y425113D01*
X118882Y424505D01*
X118161Y423839D01*
X117495Y423118D01*
X116887Y422347D01*
X116342Y421531D01*
X115862Y420675D01*
X115452Y419783D01*
X115112Y418863D01*
X114845Y417918D01*
X114654Y416955D01*
X114539Y415981D01*
X114500Y415000D01*
Y281000D02*
X114539Y280019D01*
X114654Y279045D01*
X114845Y278082D01*
X115112Y277137D01*
X115452Y276217D01*
X115862Y275325D01*
X116342Y274469D01*
X116887Y273653D01*
X117495Y272882D01*
X118161Y272161D01*
X118882Y271495D01*
X119653Y270887D01*
X120469Y270342D01*
X121325Y269862D01*
X122216Y269451D01*
X123137Y269112D01*
X124082Y268845D01*
X125045Y268654D01*
X126019Y268538D01*
X127000Y268500D01*
X297500D01*
X310000Y281000D02*
Y415000D01*
X127000Y427500D02*
X297500D01*
X114500Y281000D02*
Y415000D01*
M02*
