G04*
G04 #@! TF.GenerationSoftware,Altium Limited,Altium Designer,19.0.15 (446)*
G04*
G04 Layer_Physical_Order=2*
G04 Layer_Color=16711680*
%FSLAX25Y25*%
%MOIN*%
G70*
G01*
G75*
%ADD12C,0.01000*%
%ADD31R,0.03937X0.03543*%
%ADD37R,0.03150X0.03150*%
%ADD40R,0.04331X0.04331*%
%ADD43C,0.02000*%
%ADD44C,0.05906*%
%ADD45R,0.05906X0.05906*%
%ADD46R,0.05906X0.05906*%
%ADD47C,0.19685*%
%ADD48C,0.02362*%
%ADD49R,0.21000X0.07000*%
G04:AMPARAMS|DCode=50|XSize=35.43mil|YSize=31.5mil|CornerRadius=0mil|HoleSize=0mil|Usage=FLASHONLY|Rotation=225.000|XOffset=0mil|YOffset=0mil|HoleType=Round|Shape=Rectangle|*
%AMROTATEDRECTD50*
4,1,4,0.00139,0.02366,0.02366,0.00139,-0.00139,-0.02366,-0.02366,-0.00139,0.00139,0.02366,0.0*
%
%ADD50ROTATEDRECTD50*%

%ADD51P,0.06125X4X270.0*%
%ADD52P,0.06125X4X360.0*%
G04:AMPARAMS|DCode=53|XSize=39.37mil|YSize=35.43mil|CornerRadius=0mil|HoleSize=0mil|Usage=FLASHONLY|Rotation=135.000|XOffset=0mil|YOffset=0mil|HoleType=Round|Shape=Rectangle|*
%AMROTATEDRECTD53*
4,1,4,0.02645,-0.00139,0.00139,-0.02645,-0.02645,0.00139,-0.00139,0.02645,0.02645,-0.00139,0.0*
%
%ADD53ROTATEDRECTD53*%

%ADD54R,0.02756X0.03740*%
%ADD55R,0.03543X0.03937*%
%ADD56O,0.07874X0.02362*%
%ADD57O,0.07087X0.01378*%
%ADD58R,0.06299X0.10236*%
%ADD59R,0.04331X0.04331*%
%ADD60R,0.02756X0.03543*%
%ADD61R,0.06693X0.01968*%
%ADD62R,0.07087X0.01968*%
%ADD63R,0.05906X0.21654*%
G04:AMPARAMS|DCode=64|XSize=23.62mil|YSize=76.77mil|CornerRadius=0mil|HoleSize=0mil|Usage=FLASHONLY|Rotation=225.000|XOffset=0mil|YOffset=0mil|HoleType=Round|Shape=Round|*
%AMOVALD64*
21,1,0.05315,0.02362,0.00000,0.00000,315.0*
1,1,0.02362,-0.01879,0.01879*
1,1,0.02362,0.01879,-0.01879*
%
%ADD64OVALD64*%

G04:AMPARAMS|DCode=65|XSize=23.62mil|YSize=76.77mil|CornerRadius=0mil|HoleSize=0mil|Usage=FLASHONLY|Rotation=135.000|XOffset=0mil|YOffset=0mil|HoleType=Round|Shape=Round|*
%AMOVALD65*
21,1,0.05315,0.02362,0.00000,0.00000,225.0*
1,1,0.02362,0.01879,0.01879*
1,1,0.02362,-0.01879,-0.01879*
%
%ADD65OVALD65*%

%ADD66R,0.03150X0.03150*%
%ADD67R,0.01575X0.05315*%
%ADD68R,0.06299X0.05512*%
%ADD69R,0.05709X0.05118*%
%ADD70R,0.07480X0.07480*%
%ADD71C,0.01500*%
G36*
X289818Y422879D02*
X289809Y422690D01*
X288701Y421393D01*
X287809Y419938D01*
X287156Y418361D01*
X286758Y416701D01*
X286624Y415000D01*
X286758Y413299D01*
X287156Y411639D01*
X287809Y410062D01*
X288701Y408607D01*
X289809Y407309D01*
X291107Y406201D01*
X292562Y405309D01*
X294139Y404656D01*
X295799Y404258D01*
X297500Y404124D01*
X299201Y404258D01*
X300861Y404656D01*
X302438Y405309D01*
X303893Y406201D01*
X305086Y407220D01*
X307499Y404745D01*
X307499Y290513D01*
X305698Y288665D01*
X305198Y288681D01*
X305190Y288690D01*
X303893Y289799D01*
X302438Y290691D01*
X300861Y291344D01*
X299201Y291742D01*
X297500Y291876D01*
X295799Y291742D01*
X294139Y291344D01*
X292562Y290691D01*
X291107Y289799D01*
X289809Y288690D01*
X288701Y287393D01*
X287809Y285938D01*
X287156Y284361D01*
X286758Y282701D01*
X286624Y281000D01*
X286758Y279299D01*
X287156Y277639D01*
X287809Y276062D01*
X288701Y274607D01*
X289809Y273309D01*
X290038Y273114D01*
X290061Y272615D01*
X288000Y270500D01*
X137000Y270500D01*
X134672Y272945D01*
X134690Y273309D01*
X135799Y274607D01*
X136691Y276062D01*
X137344Y277639D01*
X137742Y279299D01*
X137876Y281000D01*
X137742Y282701D01*
X137344Y284361D01*
X136691Y285938D01*
X135799Y287393D01*
X134690Y288690D01*
X133393Y289799D01*
X131938Y290691D01*
X130361Y291344D01*
X128701Y291742D01*
X127000Y291876D01*
X125299Y291742D01*
X123639Y291344D01*
X122062Y290691D01*
X120607Y289799D01*
X119511Y288863D01*
X117000Y291500D01*
Y295555D01*
X133430D01*
Y294457D01*
X133585Y293676D01*
X134027Y293015D01*
X136365Y290676D01*
X136371Y290649D01*
X136853Y289928D01*
X137574Y289445D01*
X138425Y289276D01*
X139276Y289445D01*
X139998Y289928D01*
X140480Y290649D01*
X140649Y291500D01*
X140480Y292351D01*
X139998Y293073D01*
X139276Y293555D01*
X139249Y293560D01*
X137754Y295055D01*
X137961Y295555D01*
X139000D01*
Y304555D01*
X117000D01*
Y305555D01*
X139000D01*
Y306562D01*
X139462Y306753D01*
X142657Y303558D01*
X143319Y303116D01*
X144099Y302961D01*
X166479D01*
X181334Y288105D01*
X181996Y287663D01*
X182776Y287508D01*
X182776Y287508D01*
X185480D01*
X185503Y287493D01*
X186354Y287323D01*
X187205Y287493D01*
X187927Y287975D01*
X188409Y288696D01*
X188578Y289547D01*
X188409Y290398D01*
X187927Y291120D01*
X187205Y291602D01*
X186354Y291771D01*
X185503Y291602D01*
X185480Y291586D01*
X183621D01*
X168765Y306442D01*
X168104Y306884D01*
X167324Y307039D01*
X144944D01*
X140486Y311497D01*
X139825Y311939D01*
X139044Y312094D01*
X139000D01*
Y314555D01*
X117000D01*
Y315555D01*
X127000D01*
Y320055D01*
Y324555D01*
X117000D01*
Y405000D01*
X118966Y406966D01*
X119309Y407309D01*
X120607Y406201D01*
X122062Y405309D01*
X123639Y404656D01*
X125299Y404258D01*
X127000Y404124D01*
X128701Y404258D01*
X130361Y404656D01*
X131938Y405309D01*
X133393Y406201D01*
X134690Y407309D01*
X135799Y408607D01*
X136691Y410062D01*
X137344Y411639D01*
X137742Y413299D01*
X137876Y415000D01*
X137742Y416701D01*
X137344Y418361D01*
X136691Y419938D01*
X135799Y421393D01*
X134690Y422690D01*
X135044Y423044D01*
X137000Y425000D01*
X217602D01*
Y422031D01*
X221457D01*
Y421032D01*
X217602D01*
Y417973D01*
X219418D01*
Y415642D01*
X218193D01*
Y412386D01*
X226492D01*
Y415642D01*
X223496D01*
Y417973D01*
X225311D01*
X225476Y417541D01*
Y416791D01*
X229716D01*
Y421531D01*
X230716D01*
Y416791D01*
X239165D01*
Y421531D01*
X240165D01*
Y416791D01*
X244406D01*
Y417541D01*
X244571Y417973D01*
X246386D01*
Y415642D01*
X243390D01*
Y413482D01*
X241846D01*
Y414657D01*
X240559D01*
Y411000D01*
Y407342D01*
X241846D01*
Y409404D01*
X243390D01*
Y408130D01*
X247039D01*
Y411886D01*
X247539D01*
Y412386D01*
X251689D01*
Y415642D01*
X250464D01*
Y417973D01*
X252279D01*
Y419492D01*
X259850D01*
Y413969D01*
X263500D01*
Y420087D01*
X264500D01*
Y413969D01*
X268150D01*
Y419425D01*
X277335D01*
Y418299D01*
X280000D01*
Y421464D01*
X280500D01*
Y421965D01*
X283665D01*
Y424630D01*
X283979Y425000D01*
X287750D01*
X289818Y422879D01*
D02*
G37*
%LPC*%
G36*
X283665Y420964D02*
X281000D01*
Y418299D01*
X283665D01*
Y420964D01*
D02*
G37*
G36*
X251689Y411386D02*
X248039D01*
Y408130D01*
X251689D01*
Y411386D01*
D02*
G37*
G36*
X226492Y411386D02*
X222843D01*
Y408130D01*
X226492D01*
Y411386D01*
D02*
G37*
G36*
X221843D02*
X218193D01*
Y408130D01*
X221843D01*
Y411386D01*
D02*
G37*
G36*
X283665Y417543D02*
X277335D01*
Y411213D01*
X278461D01*
Y410345D01*
X276069Y407953D01*
X268150D01*
Y412032D01*
X259850D01*
Y399795D01*
X265266D01*
X272217Y392844D01*
Y388921D01*
X271878D01*
Y383378D01*
X272217D01*
Y382421D01*
X271878D01*
Y376878D01*
X272392D01*
Y373854D01*
X272276Y373275D01*
X272445Y372424D01*
X272927Y371702D01*
X273649Y371220D01*
X274500Y371051D01*
X275351Y371220D01*
X276073Y371702D01*
X276555Y372424D01*
X276724Y373275D01*
X276555Y374126D01*
X276470Y374252D01*
Y376878D01*
X276634D01*
Y382421D01*
X276295D01*
Y383378D01*
X276634D01*
Y388921D01*
X276295D01*
Y393689D01*
X276140Y394469D01*
X275698Y395131D01*
X268150Y402679D01*
Y403874D01*
X276913D01*
X277694Y404029D01*
X278355Y404471D01*
X281942Y408058D01*
X282384Y408720D01*
X282539Y409500D01*
Y411213D01*
X283665D01*
Y417543D01*
D02*
G37*
G36*
X167500Y398812D02*
Y397187D01*
X169124D01*
X169054Y397538D01*
X168572Y398260D01*
X167851Y398742D01*
X167500Y398812D01*
D02*
G37*
G36*
X166500D02*
X166149Y398742D01*
X165427Y398260D01*
X164945Y397538D01*
X164876Y397187D01*
X166500D01*
Y398812D01*
D02*
G37*
G36*
X169124Y396187D02*
X167500D01*
Y394563D01*
X167851Y394633D01*
X168572Y395115D01*
X169054Y395836D01*
X169124Y396187D01*
D02*
G37*
G36*
X166500D02*
X164876D01*
X164945Y395836D01*
X165427Y395115D01*
X166149Y394633D01*
X166500Y394563D01*
Y396187D01*
D02*
G37*
G36*
X264709Y397165D02*
X262043D01*
Y394500D01*
X264709D01*
Y397165D01*
D02*
G37*
G36*
X261043D02*
X258378D01*
Y394500D01*
X261043D01*
Y397165D01*
D02*
G37*
G36*
X177472Y394123D02*
X171961D01*
X171110Y393953D01*
X170388Y393471D01*
X169906Y392750D01*
X169737Y391899D01*
X169906Y391048D01*
X170388Y390326D01*
X171110Y389844D01*
X171961Y389675D01*
X177472D01*
X178323Y389844D01*
X179045Y390326D01*
X179527Y391048D01*
X179696Y391899D01*
X179527Y392750D01*
X179045Y393471D01*
X178323Y393953D01*
X177472Y394123D01*
D02*
G37*
G36*
X239559Y414657D02*
X228035D01*
Y407342D01*
X228076D01*
Y406599D01*
X227046Y405570D01*
X212785D01*
X212103Y405434D01*
X211524Y405047D01*
X211524Y405047D01*
X210238Y403762D01*
X210137Y403610D01*
X209458Y403478D01*
X209378Y403532D01*
Y403618D01*
X204622D01*
Y402787D01*
X195248D01*
X194468Y402632D01*
X193806Y402190D01*
X186058Y394442D01*
X185616Y393780D01*
X185461Y393000D01*
Y390209D01*
X184335D01*
Y389007D01*
X178052D01*
X177472Y389123D01*
X171961D01*
X171110Y388953D01*
X170388Y388471D01*
X169906Y387750D01*
X169737Y386899D01*
X169906Y386048D01*
X170388Y385326D01*
X171110Y384844D01*
X171961Y384675D01*
X177472D01*
X178323Y384844D01*
X178450Y384929D01*
X184335D01*
Y383878D01*
X190665D01*
Y385177D01*
X192665D01*
X193446Y385333D01*
X194107Y385775D01*
X198324Y389991D01*
X198351Y389997D01*
X199073Y390479D01*
X199555Y391200D01*
X199724Y392051D01*
X199555Y392902D01*
X199073Y393624D01*
X198351Y394106D01*
X197500Y394275D01*
X196649Y394106D01*
X195928Y393624D01*
X195446Y392902D01*
X195440Y392875D01*
X191821Y389256D01*
X190665D01*
Y390209D01*
X189539D01*
Y392155D01*
X196093Y398709D01*
X204622D01*
Y397878D01*
X209216D01*
X209378Y397878D01*
X209716Y397518D01*
Y397482D01*
X209378Y397122D01*
X204622D01*
Y391382D01*
X204961D01*
Y389209D01*
X203835D01*
Y382878D01*
X207951D01*
X208161Y382401D01*
X207937Y382122D01*
X207500D01*
Y378957D01*
Y375791D01*
X208710D01*
X208884Y375466D01*
X208934Y375291D01*
X208776Y374500D01*
X208945Y373649D01*
X209427Y372927D01*
X210149Y372445D01*
X211000Y372276D01*
X211851Y372445D01*
X212161Y372653D01*
X212611Y372352D01*
X212538Y371984D01*
X212643Y371455D01*
X212361Y370955D01*
X208925D01*
X208340Y370838D01*
X207844Y370507D01*
X195419Y358081D01*
X195087Y357585D01*
X194971Y357000D01*
Y351958D01*
X195087Y351373D01*
X195419Y350876D01*
X196017Y350278D01*
X194860Y349121D01*
X195160Y348822D01*
X194851Y348427D01*
X194000Y348596D01*
X193149Y348427D01*
X192428Y347944D01*
X191946Y347223D01*
X191776Y346372D01*
X191946Y345521D01*
X192428Y344799D01*
X193149Y344318D01*
X193176Y344312D01*
X195515Y341974D01*
X196176Y341532D01*
X196366Y341494D01*
X196317Y340994D01*
X187890D01*
X176942Y351942D01*
X176280Y352384D01*
X175500Y352539D01*
X171345D01*
X168039Y355845D01*
Y367938D01*
X167884Y368718D01*
X167442Y369380D01*
X144099Y392723D01*
X144094Y392750D01*
X143612Y393471D01*
X142890Y393953D01*
X142039Y394123D01*
X136528D01*
X135677Y393953D01*
X135653Y393938D01*
X132921D01*
Y394867D01*
X127378D01*
Y388930D01*
X131383D01*
X131535Y388430D01*
X131297Y388271D01*
X130037Y387012D01*
X127378D01*
Y381075D01*
X132921D01*
Y384128D01*
X133583Y384790D01*
X135948D01*
X136528Y384675D01*
X140966D01*
X141001Y384623D01*
X140734Y384122D01*
X136528D01*
X135677Y383953D01*
X134955Y383471D01*
X134473Y382750D01*
X134304Y381899D01*
X134473Y381048D01*
X134955Y380326D01*
X135677Y379844D01*
X136528Y379675D01*
X140966D01*
X141001Y379623D01*
X140734Y379122D01*
X139783D01*
Y376899D01*
Y374675D01*
X142039D01*
X142890Y374844D01*
X143612Y375326D01*
X144094Y376048D01*
X144142Y376289D01*
X144620Y376434D01*
X145961Y375093D01*
Y318500D01*
X146116Y317720D01*
X146558Y317058D01*
X148090Y315527D01*
X148751Y315085D01*
X149531Y314929D01*
X155220D01*
X155299Y314914D01*
X155575Y314968D01*
X159843D01*
Y318937D01*
X155639D01*
X155283Y319008D01*
X150376D01*
X150039Y319345D01*
Y375308D01*
X150539Y375515D01*
X160961Y365093D01*
Y353757D01*
X161116Y352977D01*
X161558Y352315D01*
X167937Y345937D01*
X168598Y345495D01*
X169379Y345339D01*
X169379Y345339D01*
X173534D01*
X184361Y334513D01*
X184361Y334513D01*
X185022Y334071D01*
X185803Y333915D01*
X185803Y333915D01*
X206824D01*
X207177Y333525D01*
X207100Y333022D01*
X206641Y332715D01*
X206159Y331994D01*
X206087Y331629D01*
X205987Y331142D01*
X205500Y331043D01*
X205136Y330970D01*
X204414Y330488D01*
X203932Y329767D01*
X203763Y328916D01*
X203932Y328065D01*
X204414Y327343D01*
X208172Y323585D01*
X208598Y323301D01*
Y322699D01*
X208172Y322415D01*
X204414Y318657D01*
X203932Y317935D01*
X203763Y317084D01*
X203932Y316233D01*
X204414Y315512D01*
X205136Y315030D01*
X205500Y314957D01*
X205987Y314858D01*
X206087Y314370D01*
X206159Y314006D01*
X206641Y313285D01*
X207363Y312803D01*
X207727Y312730D01*
X208214Y312631D01*
X208314Y312143D01*
X208386Y311779D01*
X208868Y311057D01*
X209590Y310576D01*
X209954Y310503D01*
X210441Y310403D01*
X210541Y309916D01*
X210613Y309552D01*
X210812Y309254D01*
X214194Y312636D01*
X217575Y316017D01*
X217277Y316216D01*
X216913Y316288D01*
X216426Y316388D01*
X216326Y316875D01*
X216254Y317239D01*
X215772Y317961D01*
X215050Y318443D01*
X214686Y318515D01*
X214198Y318615D01*
X214099Y319102D01*
X214026Y319466D01*
X213544Y320188D01*
X212823Y320670D01*
X212459Y320742D01*
X211971Y320842D01*
X211872Y321329D01*
X211799Y321693D01*
X211317Y322415D01*
X210892Y322699D01*
Y323301D01*
X211317Y323585D01*
X211799Y324307D01*
X211872Y324671D01*
X211971Y325158D01*
X212459Y325258D01*
X212823Y325330D01*
X213544Y325812D01*
X214026Y326534D01*
X214099Y326898D01*
X214198Y327385D01*
X214686Y327485D01*
X215050Y327557D01*
X215772Y328039D01*
X216254Y328761D01*
X216326Y329125D01*
X216426Y329612D01*
X216913Y329712D01*
X217277Y329784D01*
X217999Y330266D01*
X218344Y330784D01*
X218934Y330901D01*
X225461Y324375D01*
Y311874D01*
X225445Y311851D01*
X225276Y311000D01*
X225445Y310149D01*
X225927Y309427D01*
X226649Y308945D01*
X227500Y308776D01*
X228351Y308945D01*
X229072Y309427D01*
X229555Y310149D01*
X229724Y311000D01*
X229555Y311851D01*
X229539Y311874D01*
Y325219D01*
X229384Y326000D01*
X228942Y326661D01*
X221818Y333785D01*
X221935Y334375D01*
X222453Y334721D01*
X222935Y335442D01*
X223007Y335806D01*
X223107Y336294D01*
X223594Y336393D01*
X223958Y336466D01*
X224680Y336948D01*
X225162Y337669D01*
X225235Y338034D01*
X225334Y338521D01*
X225821Y338620D01*
X226186Y338693D01*
X226907Y339175D01*
X227191Y339600D01*
X227793D01*
X228077Y339175D01*
X228799Y338693D01*
X229163Y338620D01*
X229650Y338521D01*
X229750Y338034D01*
X229822Y337669D01*
X230304Y336948D01*
X231026Y336466D01*
X231390Y336393D01*
X231877Y336294D01*
X231977Y335806D01*
X232049Y335442D01*
X232248Y335144D01*
X235629Y338526D01*
X239011Y341907D01*
X238713Y342106D01*
X238349Y342178D01*
X237861Y342278D01*
X237762Y342765D01*
X237689Y343129D01*
X237208Y343851D01*
X236486Y344333D01*
X236122Y344405D01*
X235634Y344505D01*
X235535Y344992D01*
X235462Y345356D01*
X234980Y346078D01*
X234259Y346560D01*
X233408Y346729D01*
X232557Y346560D01*
X231835Y346078D01*
X228077Y342320D01*
X227793Y341894D01*
X227191D01*
X226907Y342320D01*
X223149Y346078D01*
X222427Y346560D01*
X221576Y346729D01*
X221125Y346639D01*
X220625Y347048D01*
Y355368D01*
X227634Y362377D01*
X228731D01*
X228883Y361877D01*
X228428Y361573D01*
X227945Y360851D01*
X227776Y360000D01*
X227945Y359149D01*
X228428Y358428D01*
X229149Y357945D01*
X230000Y357776D01*
X230101Y357796D01*
X230415Y357587D01*
X231000Y357471D01*
X257308D01*
X257500Y357007D01*
X258134Y356181D01*
X258959Y355547D01*
X259921Y355149D01*
X260953Y355013D01*
X261985Y355149D01*
X262946Y355547D01*
X263772Y356181D01*
X264405Y357007D01*
X264804Y357968D01*
X264940Y359000D01*
X264804Y360032D01*
X264405Y360993D01*
X263772Y361819D01*
X262946Y362453D01*
X261985Y362851D01*
X260953Y362987D01*
X259921Y362851D01*
X258959Y362453D01*
X258134Y361819D01*
X257500Y360993D01*
X257308Y360529D01*
X232119D01*
X232055Y360851D01*
X231573Y361573D01*
X231117Y361877D01*
X231269Y362377D01*
X249446D01*
X250031Y362493D01*
X250527Y362825D01*
X255173Y367471D01*
X257000D01*
Y365047D01*
X264906D01*
Y372953D01*
X257000D01*
Y370529D01*
X254539D01*
X253954Y370413D01*
X253458Y370081D01*
X248875Y365498D01*
X248393Y365543D01*
X248175Y365973D01*
X248331Y366207D01*
X248462Y366866D01*
X248331Y367525D01*
X248179Y367754D01*
X247988Y368146D01*
X248179Y368538D01*
X248331Y368766D01*
X248462Y369425D01*
X248331Y370084D01*
X248179Y370313D01*
X247988Y370705D01*
X248179Y371097D01*
X248331Y371325D01*
X248363Y371484D01*
X243886D01*
X239409D01*
X239440Y371325D01*
X239593Y371097D01*
X239784Y370705D01*
X239593Y370313D01*
X239440Y370084D01*
X239309Y369425D01*
X239440Y368766D01*
X239593Y368538D01*
X239784Y368146D01*
X239593Y367754D01*
X239440Y367525D01*
X239309Y366866D01*
X239440Y366207D01*
X239622Y365936D01*
X239355Y365436D01*
X228529D01*
Y372000D01*
X228413Y372585D01*
X228081Y373081D01*
X223051Y378112D01*
X222555Y378443D01*
X221970Y378559D01*
X221794D01*
X221612Y378899D01*
X221571Y379060D01*
X221691Y379661D01*
X221560Y380320D01*
X221407Y380549D01*
X221216Y380941D01*
X221407Y381333D01*
X221560Y381561D01*
X221591Y381720D01*
X217114D01*
Y382720D01*
X221591D01*
X221560Y382879D01*
X221407Y383108D01*
X221216Y383500D01*
X221407Y383892D01*
X221560Y384120D01*
X221691Y384780D01*
X221560Y385438D01*
X221407Y385667D01*
X221216Y386059D01*
X221407Y386451D01*
X221560Y386680D01*
X221691Y387339D01*
X221560Y387998D01*
X221407Y388226D01*
X221216Y388618D01*
X221407Y389010D01*
X221560Y389239D01*
X221691Y389898D01*
X221560Y390557D01*
X221407Y390785D01*
X221216Y391177D01*
X221407Y391569D01*
X221560Y391798D01*
X221691Y392457D01*
X221560Y393116D01*
X221407Y393344D01*
X221216Y393736D01*
X221407Y394128D01*
X221560Y394357D01*
X221691Y395016D01*
X221560Y395675D01*
X221407Y395903D01*
X221216Y396295D01*
X221407Y396687D01*
X221560Y396916D01*
X221691Y397575D01*
X221560Y398234D01*
X221407Y398462D01*
X221216Y398854D01*
X221407Y399246D01*
X221560Y399475D01*
X221691Y400134D01*
X221560Y400793D01*
X221186Y401351D01*
X220962Y401501D01*
X221114Y402001D01*
X227785D01*
X228468Y402137D01*
X229047Y402524D01*
X230165Y403642D01*
X230627Y403450D01*
Y402750D01*
X230763Y402067D01*
X231150Y401488D01*
X236295Y396343D01*
X236295Y396343D01*
X236874Y395956D01*
X237557Y395820D01*
X238982D01*
X239370Y395320D01*
X239309Y395016D01*
X239440Y394357D01*
X239593Y394128D01*
X239784Y393736D01*
X239593Y393344D01*
X239440Y393116D01*
X239409Y392957D01*
X243886D01*
Y391957D01*
X239409D01*
X239440Y391798D01*
X239593Y391569D01*
X239784Y391177D01*
X239593Y390785D01*
X239440Y390557D01*
X239309Y389898D01*
X239426Y389312D01*
X239240Y388863D01*
X239212Y388812D01*
X231553D01*
X230851Y389281D01*
X230000Y389450D01*
X229149Y389281D01*
X228428Y388799D01*
X227945Y388077D01*
X227776Y387226D01*
X227945Y386375D01*
X228428Y385654D01*
X229149Y385172D01*
X230000Y385002D01*
X230851Y385172D01*
X231573Y385654D01*
X231639Y385753D01*
X236596D01*
X236788Y385291D01*
X236328Y384831D01*
X235997Y384335D01*
X235880Y383750D01*
Y375765D01*
X235997Y375180D01*
X236328Y374684D01*
X237550Y373462D01*
X238046Y373130D01*
X238632Y373014D01*
X239133D01*
X239415Y372514D01*
X239409Y372484D01*
X243886D01*
X248363D01*
X248331Y372643D01*
X248179Y372872D01*
X247988Y373264D01*
X248179Y373656D01*
X248331Y373884D01*
X248363Y374043D01*
X243886D01*
Y375043D01*
X248363D01*
X248331Y375202D01*
X247958Y375761D01*
Y375885D01*
X248331Y376443D01*
X248462Y377102D01*
X248357Y377632D01*
X248639Y378132D01*
X252276D01*
Y377075D01*
X257425D01*
Y382224D01*
X252276D01*
Y381191D01*
X250061D01*
X249854Y381691D01*
X252010Y383848D01*
X252472Y383656D01*
Y383575D01*
X257622D01*
Y388368D01*
X258378D01*
Y383575D01*
X263528D01*
Y384110D01*
X266366D01*
Y383378D01*
X271122D01*
Y388921D01*
X266366D01*
Y388189D01*
X263528D01*
Y388724D01*
X262094D01*
X261887Y389224D01*
X262625Y389962D01*
X262956Y390458D01*
X263031Y390835D01*
X264709D01*
Y393500D01*
X261543D01*
X258378D01*
Y391427D01*
X257622D01*
Y397165D01*
X251291D01*
Y396545D01*
X248639D01*
X248357Y397045D01*
X248462Y397575D01*
X248331Y398234D01*
X248179Y398462D01*
X247988Y398854D01*
X248179Y399246D01*
X248331Y399475D01*
X248462Y400134D01*
X248331Y400793D01*
X247958Y401351D01*
X247399Y401725D01*
X246740Y401856D01*
X244199D01*
X243886Y401918D01*
X243737Y401889D01*
X239332D01*
X236696Y404525D01*
Y407342D01*
X239559D01*
Y411000D01*
Y414657D01*
D02*
G37*
G36*
X284469Y388921D02*
X282000D01*
Y386650D01*
X284469D01*
Y388921D01*
D02*
G37*
G36*
X281000D02*
X278532D01*
Y386650D01*
X281000D01*
Y388921D01*
D02*
G37*
G36*
X284469Y385650D02*
X282000D01*
Y383378D01*
X284469D01*
Y385650D01*
D02*
G37*
G36*
X281000D02*
X278532D01*
Y383378D01*
X281000D01*
Y385650D01*
D02*
G37*
G36*
X299953Y389721D02*
X292047D01*
Y381890D01*
X284469D01*
Y382622D01*
X278532D01*
Y377079D01*
X279961D01*
Y367217D01*
X247052Y334308D01*
X246462Y334425D01*
X246116Y334942D01*
X245598Y335288D01*
X245481Y335878D01*
X247942Y338339D01*
X248384Y339000D01*
X248539Y339781D01*
X248539Y339781D01*
Y353126D01*
X248555Y353149D01*
X248624Y353500D01*
X244376D01*
X244445Y353149D01*
X244461Y353126D01*
Y340625D01*
X242597Y338762D01*
X242007Y338879D01*
X241662Y339397D01*
X240940Y339879D01*
X240576Y339951D01*
X240089Y340051D01*
X239989Y340538D01*
X239917Y340902D01*
X239718Y341200D01*
X236336Y337819D01*
X232955Y334437D01*
X233108Y334335D01*
X233248Y333769D01*
X232807Y333328D01*
X232365Y332667D01*
X232210Y331886D01*
Y329251D01*
X232365Y328470D01*
X232807Y327809D01*
X233440Y327176D01*
X233445Y327149D01*
X233927Y326428D01*
X234649Y325945D01*
X235500Y325776D01*
X236351Y325945D01*
X236478Y326030D01*
X239145D01*
X239925Y326185D01*
X240448Y326535D01*
X240590Y326534D01*
X240898Y326468D01*
X241055Y326388D01*
X241440Y325812D01*
X242161Y325330D01*
X242526Y325258D01*
X243013Y325158D01*
X243112Y324671D01*
X243185Y324307D01*
X243667Y323585D01*
X244092Y323301D01*
Y322699D01*
X243667Y322415D01*
X243185Y321693D01*
X243112Y321329D01*
X243013Y320842D01*
X242526Y320742D01*
X242161Y320670D01*
X241440Y320188D01*
X240958Y319466D01*
X240885Y319102D01*
X240786Y318615D01*
X240299Y318515D01*
X239934Y318443D01*
X239213Y317961D01*
X238731Y317239D01*
X238658Y316875D01*
X238559Y316388D01*
X238071Y316288D01*
X237707Y316216D01*
X236986Y315734D01*
X236504Y315012D01*
X236431Y314648D01*
X236332Y314161D01*
X235844Y314061D01*
X235480Y313989D01*
X234758Y313507D01*
X234276Y312785D01*
X234204Y312421D01*
X234104Y311933D01*
X233617Y311834D01*
X233253Y311761D01*
X232531Y311279D01*
X232049Y310558D01*
X231977Y310194D01*
X231877Y309706D01*
X231390Y309607D01*
X231026Y309534D01*
X230304Y309052D01*
X229822Y308331D01*
X229750Y307966D01*
X229650Y307479D01*
X229163Y307380D01*
X228799Y307307D01*
X228077Y306825D01*
X227793Y306400D01*
X227191D01*
X226907Y306825D01*
X226186Y307307D01*
X225821Y307380D01*
X225334Y307479D01*
X225235Y307966D01*
X225162Y308331D01*
X224680Y309052D01*
X223958Y309534D01*
X223594Y309607D01*
X223107Y309706D01*
X223007Y310194D01*
X222935Y310558D01*
X222453Y311279D01*
X221731Y311761D01*
X221367Y311834D01*
X220880Y311933D01*
X220780Y312421D01*
X220708Y312785D01*
X220226Y313507D01*
X219504Y313989D01*
X219140Y314061D01*
X218653Y314161D01*
X218553Y314648D01*
X218481Y315012D01*
X218282Y315310D01*
X214901Y311929D01*
X211519Y308547D01*
X211540Y308534D01*
X211388Y308034D01*
X204943D01*
X202505Y310471D01*
X198029Y305995D01*
X202505Y301518D01*
X204943Y303955D01*
X212616D01*
X213396Y304111D01*
X214058Y304553D01*
X214598Y305093D01*
X215165Y304952D01*
X215550Y304376D01*
X216136Y303984D01*
X216314Y303508D01*
X216329Y303373D01*
X216116Y303055D01*
X215961Y302274D01*
Y297500D01*
X215497Y297256D01*
X214848Y297906D01*
X212457Y295514D01*
X212102Y295554D01*
X211913Y296040D01*
X214314Y298440D01*
X212429Y300325D01*
X210191Y298087D01*
X207754Y295651D01*
X207679Y295468D01*
X206845D01*
X206064Y295313D01*
X205490Y294930D01*
X204691Y295729D01*
X200771Y291810D01*
X204412Y288168D01*
Y288168D01*
X204647Y287933D01*
Y287433D01*
X203799Y286584D01*
X203649Y286555D01*
X202927Y286072D01*
X202446Y285351D01*
X202276Y284500D01*
X202446Y283649D01*
X202927Y282927D01*
X203649Y282445D01*
X204500Y282276D01*
X205351Y282445D01*
X206072Y282927D01*
X206401Y283419D01*
X207781Y284799D01*
X208310Y284271D01*
X212229Y288191D01*
X209492Y290928D01*
X209683Y291390D01*
X212411D01*
X214848Y288953D01*
X219324Y293429D01*
X218569Y294185D01*
X219442Y295058D01*
X219680Y295414D01*
X219769Y295457D01*
X220304Y295465D01*
X234711Y281058D01*
X235372Y280616D01*
X236153Y280461D01*
X245126D01*
X245149Y280445D01*
X246000Y280276D01*
X246851Y280445D01*
X247572Y280927D01*
X248055Y281649D01*
X248224Y282500D01*
X248078Y283233D01*
X248495Y283524D01*
X250460Y281558D01*
X251122Y281116D01*
X251902Y280961D01*
X258047D01*
Y279047D01*
X265953D01*
Y286953D01*
X258047D01*
Y285039D01*
X252747D01*
X242240Y295546D01*
X242431Y296008D01*
X258696D01*
X258942Y295508D01*
X258547Y294993D01*
X258149Y294032D01*
X258013Y293000D01*
X258149Y291968D01*
X258547Y291007D01*
X259181Y290181D01*
X260007Y289547D01*
X260968Y289149D01*
X262000Y289013D01*
X263032Y289149D01*
X263993Y289547D01*
X264819Y290181D01*
X265453Y291007D01*
X265851Y291968D01*
X265987Y293000D01*
X265851Y294032D01*
X265453Y294993D01*
X265058Y295508D01*
X265304Y296008D01*
X266108D01*
X268142Y293975D01*
X268013Y293000D01*
X268149Y291968D01*
X268547Y291007D01*
X269181Y290181D01*
X270007Y289547D01*
X270968Y289149D01*
X272000Y289013D01*
X273032Y289149D01*
X273993Y289547D01*
X274819Y290181D01*
X275453Y291007D01*
X275851Y291968D01*
X275987Y293000D01*
X275851Y294032D01*
X275453Y294993D01*
X274819Y295819D01*
X273993Y296453D01*
X273032Y296851D01*
X272000Y296987D01*
X271025Y296859D01*
X268395Y299489D01*
X267733Y299931D01*
X266953Y300086D01*
X265377D01*
X265130Y300586D01*
X265453Y301007D01*
X265851Y301968D01*
X265987Y303000D01*
X265851Y304032D01*
X265453Y304993D01*
X264819Y305819D01*
X263993Y306453D01*
X263032Y306851D01*
X262000Y306987D01*
X260968Y306851D01*
X260007Y306453D01*
X259181Y305819D01*
X258547Y304993D01*
X258149Y304032D01*
X258013Y303000D01*
X258149Y301968D01*
X258547Y301007D01*
X258870Y300586D01*
X258623Y300086D01*
X242154D01*
X238800Y303440D01*
X238917Y304030D01*
X239435Y304376D01*
X239917Y305098D01*
X239989Y305462D01*
X240089Y305949D01*
X240576Y306049D01*
X240940Y306121D01*
X241662Y306603D01*
X242144Y307325D01*
X242216Y307689D01*
X242316Y308176D01*
X242803Y308276D01*
X243167Y308348D01*
X243889Y308830D01*
X244371Y309552D01*
X244443Y309916D01*
X244543Y310403D01*
X245030Y310503D01*
X245394Y310576D01*
X246116Y311057D01*
X246598Y311779D01*
X246672Y312148D01*
X246842Y312219D01*
X247622Y312064D01*
X282495D01*
X284018Y310541D01*
X284013Y310500D01*
X284149Y309468D01*
X284547Y308507D01*
X285181Y307681D01*
X286007Y307047D01*
X286968Y306649D01*
X288000Y306513D01*
X289032Y306649D01*
X289993Y307047D01*
X290819Y307681D01*
X291453Y308507D01*
X291851Y309468D01*
X291987Y310500D01*
X291851Y311532D01*
X291453Y312493D01*
X290819Y313319D01*
X289993Y313953D01*
X289032Y314351D01*
X288000Y314487D01*
X286968Y314351D01*
X286267Y314060D01*
X284782Y315545D01*
X284120Y315987D01*
X283340Y316142D01*
X259446D01*
X259295Y316642D01*
X259721Y316928D01*
X260204Y317649D01*
X260373Y318500D01*
X260204Y319351D01*
X259721Y320073D01*
X259000Y320555D01*
X258149Y320724D01*
X257298Y320555D01*
X256576Y320073D01*
X256094Y319351D01*
X256001Y318884D01*
X255250Y318132D01*
X250920D01*
X250570Y318657D01*
X246812Y322415D01*
X246386Y322699D01*
Y323301D01*
X246812Y323585D01*
X250570Y327343D01*
X251052Y328065D01*
X251058Y328092D01*
X263576Y340610D01*
X278532D01*
Y339492D01*
X284469D01*
Y340610D01*
X292047D01*
Y332602D01*
X299953D01*
Y356256D01*
X292047D01*
Y344689D01*
X284469D01*
Y345035D01*
X278532D01*
Y344689D01*
X263854D01*
X263662Y345151D01*
X283442Y364930D01*
X283884Y365592D01*
X284039Y366372D01*
Y377079D01*
X284469D01*
Y377811D01*
X292047D01*
Y366067D01*
X299953D01*
Y389721D01*
D02*
G37*
G36*
X271122Y382421D02*
X266366D01*
Y381689D01*
X263724D01*
Y382224D01*
X258575D01*
Y377075D01*
X263724D01*
Y377610D01*
X266366D01*
Y376878D01*
X271122D01*
Y382421D01*
D02*
G37*
G36*
X187000Y383122D02*
X184335D01*
Y380457D01*
X187000D01*
Y383122D01*
D02*
G37*
G36*
X177472Y384122D02*
X171961D01*
X171110Y383953D01*
X170388Y383471D01*
X169906Y382750D01*
X169737Y381899D01*
X169906Y381048D01*
X170388Y380326D01*
X171110Y379844D01*
X171961Y379675D01*
X177472D01*
X178323Y379844D01*
X179045Y380326D01*
X179527Y381048D01*
X179696Y381899D01*
X179527Y382750D01*
X179045Y383471D01*
X178323Y383953D01*
X177472Y384122D01*
D02*
G37*
G36*
X138783Y379122D02*
X136528D01*
X135677Y378953D01*
X134955Y378471D01*
X134473Y377750D01*
X134403Y377399D01*
X138783D01*
Y379122D01*
D02*
G37*
G36*
X187000Y379457D02*
X184335D01*
Y376791D01*
X187000D01*
Y379457D01*
D02*
G37*
G36*
X190665Y383122D02*
X188000D01*
Y379957D01*
Y376791D01*
X190665D01*
Y377417D01*
X203835D01*
Y375791D01*
X206500D01*
Y378957D01*
Y382122D01*
X203835D01*
Y381496D01*
X190665D01*
Y383122D01*
D02*
G37*
G36*
X126622Y394867D02*
X121079D01*
Y388930D01*
X121811D01*
Y387012D01*
X121079D01*
Y381075D01*
X121438D01*
Y379920D01*
X120419Y378901D01*
X119928Y378573D01*
X119446Y377851D01*
X119276Y377000D01*
X119446Y376149D01*
X119928Y375428D01*
X120649Y374945D01*
X121500Y374776D01*
X122351Y374945D01*
X123073Y375428D01*
X123555Y376149D01*
X123584Y376298D01*
X124919Y377633D01*
X125361Y378294D01*
X125516Y379075D01*
Y381075D01*
X126622D01*
Y387012D01*
X125890D01*
Y388930D01*
X126622D01*
Y394867D01*
D02*
G37*
G36*
X177472Y379122D02*
X171961D01*
X171110Y378953D01*
X170388Y378471D01*
X169906Y377750D01*
X169737Y376899D01*
X169906Y376048D01*
X170388Y375326D01*
X171110Y374844D01*
X171961Y374675D01*
X177472D01*
X178323Y374844D01*
X179045Y375326D01*
X179527Y376048D01*
X179696Y376899D01*
X179527Y377750D01*
X179045Y378471D01*
X178323Y378953D01*
X177472Y379122D01*
D02*
G37*
G36*
X138783Y376399D02*
X134403D01*
X134473Y376048D01*
X134955Y375326D01*
X135677Y374844D01*
X136528Y374675D01*
X138783D01*
Y376399D01*
D02*
G37*
G36*
X251791Y375468D02*
Y373844D01*
X253416D01*
X253346Y374195D01*
X252864Y374916D01*
X252142Y375398D01*
X251791Y375468D01*
D02*
G37*
G36*
X250791D02*
X250440Y375398D01*
X249719Y374916D01*
X249237Y374195D01*
X249167Y373844D01*
X250791D01*
Y375468D01*
D02*
G37*
G36*
X253416Y372844D02*
X251791D01*
Y371219D01*
X252142Y371289D01*
X252864Y371771D01*
X253346Y372493D01*
X253416Y372844D01*
D02*
G37*
G36*
X250791D02*
X249167D01*
X249237Y372493D01*
X249719Y371771D01*
X250440Y371289D01*
X250791Y371219D01*
Y372844D01*
D02*
G37*
G36*
X177472Y374123D02*
X171961D01*
X171110Y373953D01*
X170388Y373471D01*
X169906Y372750D01*
X169737Y371899D01*
X169906Y371048D01*
X170388Y370326D01*
X171110Y369844D01*
X171961Y369675D01*
X177472D01*
X178323Y369844D01*
X179045Y370326D01*
X179527Y371048D01*
X179696Y371899D01*
X179527Y372750D01*
X179045Y373471D01*
X178323Y373953D01*
X177472Y374123D01*
D02*
G37*
G36*
X142039D02*
X136528D01*
X135677Y373953D01*
X134955Y373471D01*
X134473Y372750D01*
X134304Y371899D01*
X134473Y371048D01*
X134955Y370326D01*
X135677Y369844D01*
X136528Y369675D01*
X142039D01*
X142890Y369844D01*
X143612Y370326D01*
X144094Y371048D01*
X144263Y371899D01*
X144094Y372750D01*
X143612Y373471D01*
X142890Y373953D01*
X142039Y374123D01*
D02*
G37*
G36*
X132438Y370624D02*
Y369000D01*
X134062D01*
X133992Y369351D01*
X133510Y370073D01*
X132789Y370555D01*
X132438Y370624D01*
D02*
G37*
G36*
X131438D02*
X131087Y370555D01*
X130365Y370073D01*
X129883Y369351D01*
X129813Y369000D01*
X131438D01*
Y370624D01*
D02*
G37*
G36*
X142039Y369123D02*
X136528D01*
X135677Y368953D01*
X134955Y368471D01*
X134543Y367854D01*
X134190Y368000D01*
X132438D01*
Y366376D01*
X132789Y366445D01*
X133510Y366928D01*
X133922Y367545D01*
X134393Y367350D01*
X134304Y366899D01*
X134473Y366048D01*
X134955Y365326D01*
X135677Y364844D01*
X136528Y364675D01*
X142039D01*
X142890Y364844D01*
X143612Y365326D01*
X144094Y366048D01*
X144263Y366899D01*
X144094Y367750D01*
X143612Y368471D01*
X142890Y368953D01*
X142039Y369123D01*
D02*
G37*
G36*
X131438Y368000D02*
X129813D01*
X129883Y367649D01*
X130365Y366928D01*
X131087Y366445D01*
X131438Y366376D01*
Y368000D01*
D02*
G37*
G36*
X177472Y369123D02*
X171961D01*
X171110Y368953D01*
X170388Y368471D01*
X169906Y367750D01*
X169737Y366899D01*
X169906Y366048D01*
X170388Y365326D01*
X171110Y364844D01*
X171961Y364675D01*
X177472D01*
X178323Y364844D01*
X179045Y365326D01*
X179527Y366048D01*
X179696Y366899D01*
X179527Y367750D01*
X179045Y368471D01*
X178323Y368953D01*
X177472Y369123D01*
D02*
G37*
G36*
Y364123D02*
X171961D01*
X171110Y363953D01*
X170388Y363471D01*
X169906Y362750D01*
X169737Y361899D01*
X169906Y361048D01*
X170388Y360326D01*
X171110Y359844D01*
X171961Y359675D01*
X177472D01*
X178323Y359844D01*
X179045Y360326D01*
X179527Y361048D01*
X179696Y361899D01*
X179527Y362750D01*
X179045Y363471D01*
X178323Y363953D01*
X177472Y364123D01*
D02*
G37*
G36*
X142039D02*
X136528D01*
X135677Y363953D01*
X134955Y363471D01*
X134473Y362750D01*
X134304Y361899D01*
X134473Y361048D01*
X134955Y360326D01*
X135677Y359844D01*
X136528Y359675D01*
X142039D01*
X142890Y359844D01*
X143612Y360326D01*
X144094Y361048D01*
X144263Y361899D01*
X144094Y362750D01*
X143612Y363471D01*
X142890Y363953D01*
X142039Y364123D01*
D02*
G37*
G36*
X177472Y359122D02*
X171961D01*
X171110Y358953D01*
X170388Y358471D01*
X169906Y357750D01*
X169737Y356899D01*
X169906Y356048D01*
X170388Y355326D01*
X171110Y354844D01*
X171961Y354675D01*
X177472D01*
X178323Y354844D01*
X179045Y355326D01*
X179527Y356048D01*
X179696Y356899D01*
X179527Y357750D01*
X179045Y358471D01*
X178323Y358953D01*
X177472Y359122D01*
D02*
G37*
G36*
X142039D02*
X136528D01*
X135677Y358953D01*
X134955Y358471D01*
X134473Y357750D01*
X134304Y356899D01*
X134473Y356048D01*
X134955Y355326D01*
X135677Y354844D01*
X136528Y354675D01*
X142039D01*
X142890Y354844D01*
X143612Y355326D01*
X144094Y356048D01*
X144263Y356899D01*
X144094Y357750D01*
X143612Y358471D01*
X142890Y358953D01*
X142039Y359122D01*
D02*
G37*
G36*
X247000Y356124D02*
Y354500D01*
X248624D01*
X248555Y354851D01*
X248073Y355573D01*
X247351Y356055D01*
X247000Y356124D01*
D02*
G37*
G36*
X246000D02*
X245649Y356055D01*
X244928Y355573D01*
X244445Y354851D01*
X244376Y354500D01*
X246000D01*
Y356124D01*
D02*
G37*
G36*
X167000Y345224D02*
X166149Y345055D01*
X165427Y344572D01*
X165399Y344529D01*
X162000D01*
X161415Y344413D01*
X160919Y344081D01*
X153655Y336818D01*
X153323Y336321D01*
X153207Y335736D01*
Y330101D01*
X153164Y330072D01*
X152682Y329351D01*
X152512Y328500D01*
X152682Y327649D01*
X153164Y326927D01*
X153885Y326445D01*
X154736Y326276D01*
X155587Y326445D01*
X156309Y326927D01*
X156791Y327649D01*
X156960Y328500D01*
X156791Y329351D01*
X156309Y330072D01*
X156266Y330101D01*
Y335103D01*
X162634Y341471D01*
X165399D01*
X165427Y341427D01*
X166149Y340945D01*
X167000Y340776D01*
X167851Y340945D01*
X168572Y341427D01*
X169054Y342149D01*
X169224Y343000D01*
X169054Y343851D01*
X168572Y344572D01*
X167851Y345055D01*
X167000Y345224D01*
D02*
G37*
G36*
X266351Y339624D02*
Y338000D01*
X267975D01*
X267906Y338351D01*
X267424Y339072D01*
X266702Y339555D01*
X266351Y339624D01*
D02*
G37*
G36*
X265351D02*
X265000Y339555D01*
X264279Y339072D01*
X263796Y338351D01*
X263727Y338000D01*
X265351D01*
Y339624D01*
D02*
G37*
G36*
X284469Y338736D02*
X282000D01*
Y336465D01*
X284469D01*
Y338736D01*
D02*
G37*
G36*
X281000D02*
X278532D01*
Y336465D01*
X281000D01*
Y338736D01*
D02*
G37*
G36*
X267975Y337000D02*
X266351D01*
Y335376D01*
X266702Y335445D01*
X267424Y335928D01*
X267906Y336649D01*
X267975Y337000D01*
D02*
G37*
G36*
X265351D02*
X263727D01*
X263796Y336649D01*
X264279Y335928D01*
X265000Y335445D01*
X265351Y335376D01*
Y337000D01*
D02*
G37*
G36*
X284469Y335465D02*
X282000D01*
Y333193D01*
X284469D01*
Y335465D01*
D02*
G37*
G36*
X281000D02*
X278532D01*
Y333193D01*
X281000D01*
Y335465D01*
D02*
G37*
G36*
X141500Y332613D02*
Y330988D01*
X143124D01*
X143054Y331339D01*
X142572Y332061D01*
X141851Y332543D01*
X141500Y332613D01*
D02*
G37*
G36*
X140500D02*
X140149Y332543D01*
X139427Y332061D01*
X138945Y331339D01*
X138876Y330988D01*
X140500D01*
Y332613D01*
D02*
G37*
G36*
X143124Y329988D02*
X141500D01*
Y328364D01*
X141851Y328434D01*
X142572Y328916D01*
X143054Y329637D01*
X143124Y329988D01*
D02*
G37*
G36*
X140500D02*
X138876D01*
X138945Y329637D01*
X139427Y328916D01*
X140149Y328434D01*
X140500Y328364D01*
Y329988D01*
D02*
G37*
G36*
X197500Y324124D02*
Y322500D01*
X199124D01*
X199055Y322851D01*
X198573Y323572D01*
X197851Y324055D01*
X197500Y324124D01*
D02*
G37*
G36*
X196500D02*
X196149Y324055D01*
X195428Y323572D01*
X194946Y322851D01*
X194876Y322500D01*
X196500D01*
Y324124D01*
D02*
G37*
G36*
X288500Y324421D02*
Y321000D01*
X291921D01*
X291851Y321532D01*
X291453Y322493D01*
X290819Y323319D01*
X289993Y323953D01*
X289032Y324351D01*
X288500Y324421D01*
D02*
G37*
G36*
X287500D02*
X286968Y324351D01*
X286007Y323953D01*
X285181Y323319D01*
X284547Y322493D01*
X284149Y321532D01*
X284079Y321000D01*
X287500D01*
Y324421D01*
D02*
G37*
G36*
X139000Y324555D02*
X128000D01*
Y320555D01*
X139000D01*
Y324555D01*
D02*
G37*
G36*
X199124Y321500D02*
X197500D01*
Y319876D01*
X197851Y319945D01*
X198573Y320427D01*
X199055Y321149D01*
X199124Y321500D01*
D02*
G37*
G36*
X196500D02*
X194876D01*
X194946Y321149D01*
X195428Y320427D01*
X196149Y319945D01*
X196500Y319876D01*
Y321500D01*
D02*
G37*
G36*
X291921Y320000D02*
X288500D01*
Y316579D01*
X289032Y316649D01*
X289993Y317047D01*
X290819Y317681D01*
X291453Y318507D01*
X291851Y319468D01*
X291921Y320000D01*
D02*
G37*
G36*
X287500D02*
X284079D01*
X284149Y319468D01*
X284547Y318507D01*
X285181Y317681D01*
X286007Y317047D01*
X286968Y316649D01*
X287500Y316579D01*
Y320000D01*
D02*
G37*
G36*
X139000Y319555D02*
X128000D01*
Y315555D01*
X139000D01*
Y319555D01*
D02*
G37*
G36*
X197494Y315482D02*
X195610Y313597D01*
X197494Y311713D01*
X199379Y313597D01*
X197494Y315482D01*
D02*
G37*
G36*
X159449Y313032D02*
X155602D01*
Y311547D01*
X159449D01*
Y313032D01*
D02*
G37*
G36*
X154602D02*
X150756D01*
Y311547D01*
X154602D01*
Y313032D01*
D02*
G37*
G36*
X194903Y312890D02*
X193018Y311005D01*
X194903Y309121D01*
X196787Y311005D01*
X194903Y312890D01*
D02*
G37*
G36*
X200086D02*
X198202Y311005D01*
X200086Y309121D01*
X201971Y311005D01*
X200086Y312890D01*
D02*
G37*
G36*
X159449Y310547D02*
X155602D01*
Y309063D01*
X159449D01*
Y310547D01*
D02*
G37*
G36*
X154602D02*
X150756D01*
Y309063D01*
X154602D01*
Y310547D01*
D02*
G37*
G36*
X197494Y310298D02*
X195610Y308414D01*
X197494Y306529D01*
X199379Y308414D01*
X197494Y310298D01*
D02*
G37*
G36*
X272500Y306921D02*
Y303500D01*
X275921D01*
X275851Y304032D01*
X275453Y304993D01*
X274819Y305819D01*
X273993Y306453D01*
X273032Y306851D01*
X272500Y306921D01*
D02*
G37*
G36*
X271500D02*
X270968Y306851D01*
X270007Y306453D01*
X269181Y305819D01*
X268547Y304993D01*
X268149Y304032D01*
X268079Y303500D01*
X271500D01*
Y306921D01*
D02*
G37*
G36*
X209837Y302917D02*
X207952Y301032D01*
X209837Y299147D01*
X211722Y301032D01*
X209837Y302917D01*
D02*
G37*
G36*
X275921Y302500D02*
X272500D01*
Y299079D01*
X273032Y299149D01*
X273993Y299547D01*
X274819Y300181D01*
X275453Y301007D01*
X275851Y301968D01*
X275921Y302500D01*
D02*
G37*
G36*
X271500D02*
X268079D01*
X268149Y301968D01*
X268547Y301007D01*
X269181Y300181D01*
X270007Y299547D01*
X270968Y299149D01*
X271500Y299079D01*
Y302500D01*
D02*
G37*
G36*
X197500Y300641D02*
Y299016D01*
X199124D01*
X199055Y299367D01*
X198573Y300089D01*
X197851Y300571D01*
X197500Y300641D01*
D02*
G37*
G36*
X196500D02*
X196149Y300571D01*
X195428Y300089D01*
X194946Y299367D01*
X194876Y299016D01*
X196500D01*
Y300641D01*
D02*
G37*
G36*
X207245Y300325D02*
X205361Y298440D01*
X207245Y296555D01*
X209130Y298440D01*
X207245Y300325D01*
D02*
G37*
G36*
X291953Y304453D02*
X284047D01*
Y296547D01*
X291953D01*
Y304453D01*
D02*
G37*
G36*
X199124Y298016D02*
X197500D01*
Y296392D01*
X197851Y296462D01*
X198573Y296944D01*
X199055Y297665D01*
X199124Y298016D01*
D02*
G37*
G36*
X196500D02*
X194876D01*
X194946Y297665D01*
X195428Y296944D01*
X196149Y296462D01*
X196500Y296392D01*
Y298016D01*
D02*
G37*
G36*
X253916Y294624D02*
Y293000D01*
X255540D01*
X255470Y293351D01*
X254988Y294073D01*
X254267Y294555D01*
X253916Y294624D01*
D02*
G37*
G36*
X252916D02*
X252565Y294555D01*
X251843Y294073D01*
X251361Y293351D01*
X251291Y293000D01*
X252916D01*
Y294624D01*
D02*
G37*
G36*
X255540Y292000D02*
X253916D01*
Y290376D01*
X254267Y290445D01*
X254988Y290928D01*
X255470Y291649D01*
X255540Y292000D01*
D02*
G37*
G36*
X252916D02*
X251291D01*
X251361Y291649D01*
X251843Y290928D01*
X252565Y290445D01*
X252916Y290376D01*
Y292000D01*
D02*
G37*
G36*
X194000Y286197D02*
Y284573D01*
X195624D01*
X195554Y284924D01*
X195072Y285645D01*
X194351Y286127D01*
X194000Y286197D01*
D02*
G37*
G36*
X193000D02*
X192649Y286127D01*
X191928Y285645D01*
X191446Y284924D01*
X191376Y284573D01*
X193000D01*
Y286197D01*
D02*
G37*
G36*
X195624Y283573D02*
X194000D01*
Y281948D01*
X194351Y282018D01*
X195072Y282500D01*
X195554Y283222D01*
X195624Y283573D01*
D02*
G37*
G36*
X193000D02*
X191376D01*
X191446Y283222D01*
X191928Y282500D01*
X192649Y282018D01*
X193000Y281948D01*
Y283573D01*
D02*
G37*
G36*
X272000Y286987D02*
X270968Y286851D01*
X270007Y286453D01*
X269181Y285819D01*
X268547Y284993D01*
X268149Y284032D01*
X268013Y283000D01*
X268149Y281968D01*
X268547Y281007D01*
X269181Y280181D01*
X270007Y279547D01*
X270968Y279149D01*
X272000Y279013D01*
X273032Y279149D01*
X273993Y279547D01*
X274819Y280181D01*
X275453Y281007D01*
X275851Y281968D01*
X275987Y283000D01*
X275851Y284032D01*
X275453Y284993D01*
X274819Y285819D01*
X273993Y286453D01*
X273032Y286851D01*
X272000Y286987D01*
D02*
G37*
G36*
X154736Y302224D02*
X153885Y302055D01*
X153164Y301572D01*
X152682Y300851D01*
X152512Y300000D01*
X152682Y299149D01*
X152707Y299111D01*
X145919Y292322D01*
X145587Y291825D01*
X145471Y291240D01*
Y280953D01*
X143047D01*
Y273047D01*
X150953D01*
Y280953D01*
X148529D01*
Y290607D01*
X155818Y297895D01*
X156064Y298264D01*
X156309Y298428D01*
X156791Y299149D01*
X156960Y300000D01*
X156791Y300851D01*
X156309Y301572D01*
X155587Y302055D01*
X154736Y302224D01*
D02*
G37*
G36*
X187000Y280987D02*
X185968Y280851D01*
X185007Y280453D01*
X184181Y279819D01*
X183547Y278993D01*
X183149Y278032D01*
X183013Y277000D01*
X183149Y275968D01*
X183547Y275007D01*
X184181Y274181D01*
X185007Y273547D01*
X185968Y273149D01*
X187000Y273013D01*
X188032Y273149D01*
X188993Y273547D01*
X189819Y274181D01*
X190453Y275007D01*
X190851Y275968D01*
X190987Y277000D01*
X190851Y278032D01*
X190453Y278993D01*
X189819Y279819D01*
X188993Y280453D01*
X188032Y280851D01*
X187000Y280987D01*
D02*
G37*
G36*
X177000D02*
X175968Y280851D01*
X175007Y280453D01*
X174181Y279819D01*
X173547Y278993D01*
X173149Y278032D01*
X173013Y277000D01*
X173149Y275968D01*
X173547Y275007D01*
X174181Y274181D01*
X175007Y273547D01*
X175968Y273149D01*
X177000Y273013D01*
X178032Y273149D01*
X178993Y273547D01*
X179819Y274181D01*
X180453Y275007D01*
X180851Y275968D01*
X180987Y277000D01*
X180851Y278032D01*
X180453Y278993D01*
X179819Y279819D01*
X178993Y280453D01*
X178032Y280851D01*
X177000Y280987D01*
D02*
G37*
G36*
X167000D02*
X165968Y280851D01*
X165007Y280453D01*
X164181Y279819D01*
X163547Y278993D01*
X163149Y278032D01*
X163013Y277000D01*
X163149Y275968D01*
X163547Y275007D01*
X164181Y274181D01*
X165007Y273547D01*
X165968Y273149D01*
X167000Y273013D01*
X168032Y273149D01*
X168993Y273547D01*
X169819Y274181D01*
X170453Y275007D01*
X170851Y275968D01*
X170987Y277000D01*
X170851Y278032D01*
X170453Y278993D01*
X169819Y279819D01*
X168993Y280453D01*
X168032Y280851D01*
X167000Y280987D01*
D02*
G37*
G36*
X157000D02*
X155968Y280851D01*
X155007Y280453D01*
X154181Y279819D01*
X153547Y278993D01*
X153149Y278032D01*
X153013Y277000D01*
X153149Y275968D01*
X153547Y275007D01*
X154181Y274181D01*
X155007Y273547D01*
X155968Y273149D01*
X157000Y273013D01*
X158032Y273149D01*
X158993Y273547D01*
X159819Y274181D01*
X160453Y275007D01*
X160851Y275968D01*
X160987Y277000D01*
X160851Y278032D01*
X160453Y278993D01*
X159819Y279819D01*
X158993Y280453D01*
X158032Y280851D01*
X157000Y280987D01*
D02*
G37*
%LPD*%
G36*
X212749Y394120D02*
X212978Y393667D01*
X212822Y393344D01*
X212669Y393116D01*
X212538Y392457D01*
X212669Y391798D01*
X212822Y391569D01*
X213012Y391177D01*
X212822Y390785D01*
X212669Y390557D01*
X212538Y389898D01*
X212669Y389239D01*
X212822Y389010D01*
X213012Y388618D01*
X212822Y388226D01*
X212669Y387998D01*
X212538Y387339D01*
X212669Y386680D01*
X212822Y386451D01*
X213012Y386059D01*
X212822Y385667D01*
X212669Y385438D01*
X212538Y384780D01*
X212643Y384250D01*
X212361Y383750D01*
X210264D01*
X210165Y383831D01*
Y389209D01*
X209039D01*
Y391382D01*
X209378D01*
Y392837D01*
X210121D01*
X210804Y392973D01*
X211383Y393360D01*
X212228Y394205D01*
X212749Y394120D01*
D02*
G37*
G36*
X225471Y365373D02*
Y364540D01*
X218014Y357083D01*
X217682Y356587D01*
X217566Y356001D01*
Y343535D01*
X217295Y343129D01*
X217231Y342812D01*
X216689Y342647D01*
X216076Y343260D01*
Y351793D01*
X215960Y352379D01*
X215629Y352875D01*
X211254Y357249D01*
Y364781D01*
X211810Y365337D01*
X213509D01*
X213601Y365275D01*
X214260Y365144D01*
X219969D01*
X220627Y365275D01*
X220687Y365315D01*
X221206Y365259D01*
X221427Y364928D01*
X222149Y364445D01*
X223000Y364276D01*
X223851Y364445D01*
X224572Y364928D01*
X224971Y365523D01*
X225471Y365373D01*
D02*
G37*
G36*
X207801Y365994D02*
X208204Y365456D01*
X208195Y365414D01*
Y356616D01*
X208312Y356031D01*
X208643Y355534D01*
X213018Y351160D01*
Y349229D01*
X212556Y349037D01*
X209681Y351912D01*
X209566Y351798D01*
X208028Y353335D01*
X208824Y354132D01*
X204348Y358608D01*
X199872Y354132D01*
X204348Y349655D01*
X205144Y350452D01*
X206682Y348914D01*
X205761Y347993D01*
X207874Y345880D01*
X207835Y345525D01*
X207349Y345336D01*
X205226Y347458D01*
X203346Y345578D01*
X200924D01*
X200732Y346040D01*
X203814Y349121D01*
X199337Y353597D01*
X198529Y352790D01*
X198029Y352997D01*
Y356366D01*
X207669Y366006D01*
X207801Y365994D01*
D02*
G37*
G36*
X228077Y303680D02*
X231835Y299922D01*
X232557Y299440D01*
X232584Y299434D01*
X247024Y284995D01*
X246733Y284578D01*
X246000Y284724D01*
X245149Y284555D01*
X245126Y284539D01*
X236997D01*
X223616Y297921D01*
Y300389D01*
X226907Y303680D01*
X227191Y304106D01*
X227793D01*
X228077Y303680D01*
D02*
G37*
D12*
X211000Y374500D02*
X217071D01*
X217114Y374543D01*
X230000Y387226D02*
X230056Y387282D01*
X243830D01*
X243886Y387339D01*
X238632Y374543D02*
X243886D01*
X237409Y375765D02*
X238632Y374543D01*
X237409Y375765D02*
Y383750D01*
X238439Y384780D01*
X243886D01*
X255884Y316603D02*
X257780Y318500D01*
X249479Y316603D02*
X255884D01*
X247118Y318963D02*
X249479Y316603D01*
X257780Y318500D02*
X258149D01*
X154736Y298976D02*
Y300000D01*
X230000Y360000D02*
X231000Y359000D01*
X260953D01*
X227500Y363906D02*
X249446D01*
X227000D02*
X227500D01*
X249446D02*
X254539Y369000D01*
X222631Y366500D02*
X223000D01*
X222265Y366866D02*
X222631Y366500D01*
X217114Y366866D02*
X222265D01*
X219095Y356001D02*
X227000Y363906D01*
X221970Y377030D02*
X227000Y372000D01*
Y363906D02*
Y372000D01*
X254539Y369000D02*
X260953D01*
X243813Y384707D02*
X243886Y384780D01*
Y371984D02*
Y374543D01*
X252150Y386150D02*
X255047D01*
X248293Y382293D02*
X252150Y386150D01*
X243958Y382293D02*
X248293D01*
X251146Y389898D02*
X260398D01*
X248587Y392457D02*
X251146Y389898D01*
X243886Y392457D02*
X248587D01*
X261543Y391043D02*
Y394000D01*
X260398Y389898D02*
X261543Y391043D01*
X253441Y395016D02*
X254457Y394000D01*
X243886Y395016D02*
X253441D01*
X243886Y382221D02*
X243958Y382293D01*
X254839Y379661D02*
X254850Y379650D01*
X243886Y379661D02*
X254839D01*
X217186Y377030D02*
X221970D01*
X217114Y377102D02*
X217186Y377030D01*
X219095Y342532D02*
Y356001D01*
Y342532D02*
X221228Y340399D01*
X209725Y356616D02*
X214547Y351793D01*
Y342626D02*
Y351793D01*
Y342626D02*
X219001Y338172D01*
X209725Y356616D02*
Y365414D01*
X211177Y366866D01*
X217114D01*
X210264Y382221D02*
X217114D01*
X207000Y378957D02*
X210264Y382221D01*
X196500Y351958D02*
Y357000D01*
Y351958D02*
X199337Y349121D01*
X208925Y369425D02*
X217114D01*
X196500Y357000D02*
X208925Y369425D01*
X162000Y343000D02*
X167000D01*
X154736Y335736D02*
X162000Y343000D01*
X154736Y328500D02*
Y335736D01*
X147000Y291240D02*
X154736Y298976D01*
X147000Y277000D02*
Y291240D01*
D31*
X281500Y379850D02*
D03*
Y386150D02*
D03*
Y335965D02*
D03*
Y342264D02*
D03*
D37*
X260953Y386150D02*
D03*
X255047D02*
D03*
D40*
X207000Y386043D02*
D03*
Y378957D02*
D03*
X280500Y414378D02*
D03*
Y421465D02*
D03*
X187500Y379957D02*
D03*
Y387043D02*
D03*
D43*
X139044Y310055D02*
X144099Y305000D01*
X127500Y310055D02*
X139044D01*
X135469Y294457D02*
Y297555D01*
X132969Y300055D02*
X135469Y297555D01*
X127500Y300055D02*
X132969D01*
X135469Y294457D02*
X138425Y291500D01*
X235500Y328000D02*
X235569Y328069D01*
X239145D01*
X242566Y331491D01*
X234249Y331886D02*
X238210Y335847D01*
X234249Y329251D02*
Y331886D01*
Y329251D02*
X235500Y328000D01*
X196957Y343415D02*
X200012D01*
X200135Y343538D01*
X205226D01*
X205366Y343399D01*
X194000Y346372D02*
X196957Y343415D01*
X121500Y377000D02*
Y377098D01*
X123477Y379075D01*
Y383670D01*
X123850Y384043D01*
X204500Y284500D02*
X204598D01*
X208149Y288051D01*
X208449D01*
X187673Y387217D02*
X192665D01*
X187500Y387043D02*
X187673Y387217D01*
X192665D02*
X197500Y392051D01*
X246500Y339781D02*
Y354000D01*
X240437Y333718D02*
X246500Y339781D01*
X242566Y331491D02*
X242664D01*
X238210Y335847D02*
Y335945D01*
X274431Y373344D02*
X274500Y373275D01*
X274431Y373344D02*
Y379475D01*
X274256Y379650D02*
X274431Y379475D01*
X167324Y305000D02*
X182776Y289547D01*
X144099Y305000D02*
X167324D01*
X182776Y289547D02*
X186354D01*
X286943Y310500D02*
X288000D01*
X283340Y314103D02*
X286943Y310500D01*
X247622Y314103D02*
X283340D01*
X244989Y316736D02*
X247622Y314103D01*
X244891Y316736D02*
X244989D01*
X264000Y403945D02*
X274256Y393689D01*
X264000Y403945D02*
Y405913D01*
X274256Y386150D02*
Y393689D01*
X227500Y311000D02*
Y325219D01*
X216774Y335945D02*
X227500Y325219D01*
X221576Y297076D02*
X236153Y282500D01*
X246000D01*
X221576Y297076D02*
Y301495D01*
X223456Y303374D01*
X251902Y283000D02*
X262000D01*
X231529Y303374D02*
X251902Y283000D01*
X266953Y298047D02*
X272000Y293000D01*
X241309Y298047D02*
X266953D01*
X233756Y305601D02*
X241309Y298047D01*
X216676Y310055D02*
X216774D01*
X212616Y305995D02*
X216676Y310055D01*
X202505Y305995D02*
X212616D01*
X204551Y291949D02*
X205364D01*
X206845Y293429D01*
X214848D01*
X214929D02*
X218000Y296500D01*
X214848Y293429D02*
X214929D01*
X218000Y296500D02*
Y302274D01*
X221228Y305503D01*
Y305601D01*
X148000Y318500D02*
Y375938D01*
X142039Y381899D02*
X148000Y375938D01*
X139284Y381899D02*
X142039D01*
X148000Y318500D02*
X149531Y316968D01*
X155283D01*
X155299Y316953D01*
X240272Y411443D02*
X247096D01*
X247539Y411886D01*
X209820Y347853D02*
Y348660D01*
X204348Y354132D02*
X209820Y348660D01*
Y347853D02*
X209959Y347714D01*
Y342760D02*
Y347714D01*
Y342760D02*
X216774Y335945D01*
X174379Y347379D02*
X185803Y335955D01*
X207758D01*
X212222Y331491D01*
X212320D01*
X169379Y347379D02*
X174379D01*
X163000Y353757D02*
X169379Y347379D01*
X163000Y353757D02*
Y365938D01*
X142039Y386899D02*
X163000Y365938D01*
X139284Y386899D02*
X142039D01*
X175500Y350500D02*
X187045Y338955D01*
X209310D01*
X214547Y333718D01*
X170500Y350500D02*
X175500D01*
X166000Y355000D02*
X170500Y350500D01*
X166000Y355000D02*
Y367938D01*
X142039Y391899D02*
X166000Y367938D01*
X139284Y391899D02*
X142039D01*
X206500Y379457D02*
X207000Y378957D01*
X188000Y379457D02*
X206500D01*
X187500Y379957D02*
X188000Y379457D01*
X187500Y387043D02*
Y393000D01*
Y387043D02*
X187500Y387043D01*
X187500Y393000D02*
X195248Y400748D01*
X207000D01*
X187425Y386968D02*
X187500Y387043D01*
X174786Y386968D02*
X187425D01*
X174716Y386899D02*
X174786Y386968D01*
X207000Y394252D02*
X207000Y394252D01*
Y386043D02*
Y394252D01*
X123850Y384043D02*
Y391899D01*
X123850Y384043D02*
X123850Y384043D01*
X130150Y384043D02*
Y384240D01*
X132739Y386829D01*
X139214D01*
X139284Y386899D01*
X130150Y391899D02*
X139284D01*
X282000Y366372D02*
Y379850D01*
X244891Y329264D02*
X282000Y366372D01*
X262732Y342650D02*
X281500D01*
X247118Y327037D02*
X262732Y342650D01*
X294220D02*
X296000Y344429D01*
X281500Y342650D02*
X294220D01*
X296000Y377894D02*
Y377898D01*
X294047Y379850D02*
X296000Y377898D01*
X282000Y379850D02*
X294047D01*
X274256Y379650D02*
Y386150D01*
X261150Y379650D02*
X261150Y379650D01*
X268744D01*
X260953Y386150D02*
X260953Y386150D01*
X268744D01*
X221457Y412772D02*
Y421531D01*
Y412772D02*
X222342Y411886D01*
X221457Y421531D02*
X230217D01*
X247539Y411886D02*
X248425Y412772D01*
Y421531D01*
X280500Y409500D02*
Y414378D01*
X276913Y405913D02*
X280500Y409500D01*
X264000Y405913D02*
X276913D01*
X264000Y420087D02*
X265378Y421465D01*
X280500D01*
X230217Y421531D02*
X239665D01*
X248425D01*
X262555D02*
X264000Y420087D01*
X248425Y421531D02*
X262555D01*
D44*
X288000Y320500D02*
D03*
Y310500D02*
D03*
X272000Y303000D02*
D03*
X262000D02*
D03*
X272000Y293000D02*
D03*
X262000D02*
D03*
X272000Y283000D02*
D03*
X260953Y359000D02*
D03*
X187000Y277000D02*
D03*
X177000D02*
D03*
X167000D02*
D03*
X157000D02*
D03*
D45*
X288000Y300500D02*
D03*
X262000Y283000D02*
D03*
X260953Y369000D02*
D03*
D46*
X147000Y277000D02*
D03*
D47*
X297500Y415000D02*
D03*
X127000D02*
D03*
X297500Y281000D02*
D03*
X127000D02*
D03*
D48*
X141000Y330488D02*
D03*
X138425Y291500D02*
D03*
X235500Y328000D02*
D03*
X253416Y292500D02*
D03*
X194000Y346372D02*
D03*
X197000Y322000D02*
D03*
Y298516D02*
D03*
X121500Y377000D02*
D03*
X131938Y368500D02*
D03*
X193500Y284072D02*
D03*
X204500Y284500D02*
D03*
X211000Y374500D02*
D03*
X197500Y392051D02*
D03*
X167000Y396687D02*
D03*
X265851Y337500D02*
D03*
X251291Y373344D02*
D03*
X246500Y354000D02*
D03*
X274500Y373275D02*
D03*
X230000Y387226D02*
D03*
X186354Y289547D02*
D03*
X258149Y318500D02*
D03*
X154736Y300000D02*
D03*
X227500Y311000D02*
D03*
X246000Y282500D02*
D03*
X230000Y360000D02*
D03*
X223000Y366500D02*
D03*
X167000Y343000D02*
D03*
X154736Y328500D02*
D03*
D49*
X127500Y310055D02*
D03*
Y300055D02*
D03*
Y320055D02*
D03*
D50*
X208449Y288051D02*
D03*
X204551Y291949D02*
D03*
D51*
X202505Y305995D02*
D03*
X197494Y311005D02*
D03*
X214848Y293429D02*
D03*
X209837Y298440D02*
D03*
D52*
X204348Y354132D02*
D03*
X199337Y349121D02*
D03*
D53*
X209820Y347853D02*
D03*
X205366Y343399D02*
D03*
D54*
X207000Y400748D02*
D03*
Y394252D02*
D03*
D55*
X130150Y384043D02*
D03*
X123850D02*
D03*
X130150Y391899D02*
D03*
X123850D02*
D03*
D56*
X139284Y356899D02*
D03*
Y361899D02*
D03*
Y366899D02*
D03*
Y371899D02*
D03*
Y376899D02*
D03*
Y381899D02*
D03*
Y386899D02*
D03*
Y391899D02*
D03*
X174716Y356899D02*
D03*
Y361899D02*
D03*
Y366899D02*
D03*
Y371899D02*
D03*
Y376899D02*
D03*
Y381899D02*
D03*
Y386899D02*
D03*
Y391899D02*
D03*
D57*
X217114Y366866D02*
D03*
Y369425D02*
D03*
Y371984D02*
D03*
Y374543D02*
D03*
Y377102D02*
D03*
Y379661D02*
D03*
Y382221D02*
D03*
Y384780D02*
D03*
Y387339D02*
D03*
Y389898D02*
D03*
Y392457D02*
D03*
Y395016D02*
D03*
Y397575D02*
D03*
Y400134D02*
D03*
X243886Y366866D02*
D03*
Y369425D02*
D03*
Y371984D02*
D03*
Y374543D02*
D03*
Y377102D02*
D03*
Y379661D02*
D03*
Y382221D02*
D03*
Y384780D02*
D03*
Y387339D02*
D03*
Y389898D02*
D03*
Y392457D02*
D03*
Y395016D02*
D03*
Y397575D02*
D03*
Y400134D02*
D03*
D58*
X264000Y405913D02*
D03*
Y420087D02*
D03*
D59*
X254457Y394000D02*
D03*
X261543D02*
D03*
D60*
X274256Y386150D02*
D03*
X268744D02*
D03*
X274256Y379650D02*
D03*
X268744D02*
D03*
D61*
X155102Y311047D02*
D03*
D62*
X155299Y316953D02*
D03*
D63*
X296000Y377894D02*
D03*
Y344429D02*
D03*
D64*
X223456Y342626D02*
D03*
X221228Y340399D02*
D03*
X219001Y338172D02*
D03*
X216774Y335945D02*
D03*
X214547Y333718D02*
D03*
X212320Y331491D02*
D03*
X210093Y329264D02*
D03*
X207866Y327037D02*
D03*
X231529Y303374D02*
D03*
X233756Y305601D02*
D03*
X235983Y307828D02*
D03*
X238210Y310055D02*
D03*
X240437Y312282D02*
D03*
X242664Y314509D02*
D03*
X244891Y316736D02*
D03*
X247118Y318963D02*
D03*
D65*
X207866D02*
D03*
X210093Y316736D02*
D03*
X212320Y314509D02*
D03*
X214547Y312282D02*
D03*
X216774Y310055D02*
D03*
X219001Y307828D02*
D03*
X221228Y305601D02*
D03*
X223456Y303374D02*
D03*
X247118Y327037D02*
D03*
X244891Y329264D02*
D03*
X242664Y331491D02*
D03*
X240437Y333718D02*
D03*
X238210Y335945D02*
D03*
X235983Y338172D02*
D03*
X233756Y340399D02*
D03*
X231529Y342626D02*
D03*
D66*
X254850Y379650D02*
D03*
X261150D02*
D03*
D67*
X229823Y411000D02*
D03*
X232382D02*
D03*
X234941D02*
D03*
X237500D02*
D03*
X240059D02*
D03*
D68*
X222342Y411886D02*
D03*
X247539D02*
D03*
D69*
X221457Y421531D02*
D03*
X248425D02*
D03*
D70*
X230217D02*
D03*
X239665D02*
D03*
D71*
X229860Y405860D02*
Y410963D01*
X227785Y403785D02*
X229860Y405860D01*
X212785Y403785D02*
X227785D01*
X211500Y402500D02*
X212785Y403785D01*
X211500Y396000D02*
Y402500D01*
X210121Y394621D02*
X211500Y396000D01*
X207369Y394621D02*
X210121D01*
X207000Y394252D02*
X207369Y394621D01*
X229823Y411000D02*
X229860Y410963D01*
X243856Y397604D02*
X243886Y397575D01*
X237557Y397604D02*
X243856D01*
X232411Y402750D02*
X237557Y397604D01*
X232411Y402750D02*
Y410970D01*
X232382Y411000D02*
X232411Y410970D01*
X243856Y400104D02*
X243886Y400134D01*
X238593Y400104D02*
X243856D01*
X234911Y403785D02*
X238593Y400104D01*
X234911Y403785D02*
Y410970D01*
X234941Y411000D01*
M02*
