M48
;Layer_Color=9474304
;FILE_FORMAT=2:5
INCH,TZ
;TYPE=PLATED
T1F00S00C0.01181
T2F00S00C0.03543
;TYPE=NON_PLATED
T3F00S00C0.12598
%
T01
X186354Y289547
X193500Y284072
X204500Y284500
X197000Y298516
X227500Y311000
X253416Y292500
X246000Y282500
X154736Y300000
X138425Y291500
X141000Y330488
X154736Y328500
X131938Y368500
X121500Y377000
X167000Y396687
X197500Y392051
X211000Y374500
X223000Y366500
X230000Y360000
X246500Y354000
X251291Y373344
X274500Y373275
X265851Y337500
X258149Y318500
X235500Y328000
X197000Y322000
X194000Y346372
X167000Y343000
X230000Y387226
T02
X157000Y277000
X167000
X177000
X187000
X262000Y283000
Y293000
Y303000
X272000
Y293000
Y283000
X288000Y300500
Y310500
X147000Y277000
X288000Y320500
X260953Y359000
Y369000
T03
X297500Y281000
X127000
Y415000
X297500
M30
