G04*
G04 #@! TF.GenerationSoftware,Altium Limited,Altium Designer,19.0.15 (446)*
G04*
G04 Layer_Color=32896*
%FSLAX25Y25*%
%MOIN*%
G70*
G01*
G75*
%ADD10C,0.00984*%
%ADD11C,0.00787*%
%ADD12C,0.01000*%
%ADD13C,0.00800*%
%ADD94C,0.02362*%
%ADD95C,0.00394*%
%ADD96C,0.01575*%
D10*
X175209Y395245D02*
X174470Y395671D01*
Y394819D01*
X175209Y395245D01*
X217606Y364012D02*
X216868Y364438D01*
Y363586D01*
X217606Y364012D01*
X296492Y390886D02*
X295754Y391312D01*
Y390460D01*
X296492Y390886D01*
X229655Y344993D02*
X228916Y345419D01*
Y344566D01*
X229655Y344993D01*
D11*
X187386Y314000D02*
X187348Y315000D01*
X187236Y315995D01*
X187050Y316979D01*
X186791Y317946D01*
X186460Y318890D01*
X186060Y319808D01*
X185592Y320693D01*
X185060Y321540D01*
X184466Y322346D01*
X183812Y323105D01*
X183105Y323813D01*
X182346Y324465D01*
X181541Y325060D01*
X180693Y325592D01*
X179808Y326060D01*
X178890Y326461D01*
X177946Y326791D01*
X176979Y327050D01*
X175995Y327236D01*
X175000Y327348D01*
X174000Y327386D01*
X173000Y327348D01*
X172005Y327236D01*
X171021Y327050D01*
X170054Y326791D01*
X169110Y326461D01*
X168192Y326060D01*
X167307Y325592D01*
X166460Y325060D01*
X165654Y324465D01*
X164895Y323813D01*
X164188Y323105D01*
X163534Y322346D01*
X162940Y321540D01*
X162408Y320693D01*
X161940Y319808D01*
X161539Y318890D01*
X161209Y317946D01*
X160950Y316979D01*
X160764Y315995D01*
X160652Y315000D01*
X160614Y314000D01*
X160652Y313000D01*
X160764Y312005D01*
X160950Y311021D01*
X161209Y310054D01*
X161539Y309110D01*
X161940Y308192D01*
X162408Y307307D01*
X162940Y306459D01*
X163534Y305654D01*
X164188Y304895D01*
X164895Y304187D01*
X165654Y303535D01*
X166460Y302940D01*
X167307Y302408D01*
X168192Y301940D01*
X169110Y301539D01*
X170054Y301209D01*
X171021Y300950D01*
X172005Y300764D01*
X173000Y300652D01*
X174000Y300614D01*
X175000Y300652D01*
X175995Y300764D01*
X176979Y300950D01*
X177946Y301209D01*
X178890Y301539D01*
X179808Y301940D01*
X180693Y302408D01*
X181541Y302940D01*
X182346Y303535D01*
X183105Y304187D01*
X183812Y304895D01*
X184466Y305654D01*
X185060Y306459D01*
X185592Y307307D01*
X186060Y308192D01*
X186460Y309110D01*
X186791Y310054D01*
X187050Y311021D01*
X187236Y312005D01*
X187348Y313000D01*
X187386Y314000D01*
X283000Y295500D02*
X293000D01*
Y325500D01*
X283000D02*
X293000D01*
X283000Y295500D02*
Y325500D01*
X201114Y309892D02*
X201392Y309613D01*
X198608Y307386D02*
X198886Y307108D01*
X213456Y297327D02*
X213735Y297048D01*
X210951Y294821D02*
X211229Y294543D01*
X200451Y352740D02*
X200729Y353018D01*
X202956Y350234D02*
X203235Y350513D01*
X208567Y344374D02*
X208846Y344652D01*
X206340Y346601D02*
X206618Y346879D01*
X205228Y382303D02*
Y382697D01*
X208772Y382303D02*
Y382697D01*
X126803Y382469D02*
X127197D01*
X126803Y385618D02*
X127197D01*
X144795Y353729D02*
X169205D01*
X144795Y395068D02*
X169205D01*
X144795Y353729D02*
Y395068D01*
X169205Y353729D02*
Y395068D01*
X222232Y362831D02*
Y404169D01*
X238768Y362831D02*
Y404169D01*
X222232Y362831D02*
X238768D01*
X222232Y404169D02*
X238768D01*
X257898Y404142D02*
X259276D01*
X255142Y406898D02*
X257898Y404142D01*
X255142Y406898D02*
Y421858D01*
X268724Y404142D02*
X270102D01*
X272858Y406898D01*
Y421858D01*
X255142D02*
X259276D01*
X268724D02*
X272858D01*
X257803Y392228D02*
X258197D01*
X257803Y395772D02*
X258197D01*
X271303Y384772D02*
X271697D01*
X271303Y387528D02*
X271697D01*
X271303Y378272D02*
X271697D01*
X271303Y381028D02*
X271697D01*
X282272Y417724D02*
Y418118D01*
X278728Y417724D02*
Y418118D01*
X283075Y382803D02*
Y383197D01*
X279925Y382803D02*
Y383197D01*
X283075Y338917D02*
Y339311D01*
X279925Y338917D02*
Y339311D01*
X257000Y288833D02*
Y308000D01*
Y278000D02*
Y308000D01*
X277000Y278000D02*
Y308000D01*
X257000Y278000D02*
X277000D01*
X257000Y308000D02*
X277000D01*
X255953Y354000D02*
Y374000D01*
X265953D01*
Y354000D02*
Y374000D01*
X255953Y354000D02*
X265953D01*
X155299Y319512D02*
Y321480D01*
X154315Y320496D02*
X156283D01*
X286492Y339311D02*
Y383012D01*
X305508Y339311D02*
Y383012D01*
X300528D02*
X305508D01*
X286492D02*
X291472D01*
X300528Y339311D02*
X305508D01*
X286492D02*
X291472D01*
X227492Y307132D02*
X243360Y323000D01*
X211624D02*
X227492Y338868D01*
X211624Y323000D02*
X227492Y307132D01*
Y338868D02*
X243360Y323000D01*
X126803Y390324D02*
X127197D01*
X126803Y393474D02*
X127197D01*
X189272Y383303D02*
Y383697D01*
X185728Y383303D02*
Y383697D01*
X252095Y378468D02*
Y380831D01*
X250689Y416217D02*
Y417398D01*
X219193Y433146D02*
X250689D01*
Y425665D02*
Y433146D01*
X219193Y425665D02*
Y433146D01*
Y416217D02*
Y417398D01*
D12*
X116000Y326055D02*
X138500D01*
X116000Y294055D02*
X138500D01*
X251500Y297500D02*
X257000D01*
X251500Y289000D02*
Y297500D01*
Y289000D02*
X257000D01*
D13*
X202828Y296828D02*
X200000Y294000D01*
X198115Y295885D01*
X197172Y296828D02*
X196230Y297770D01*
X196701Y297299D01*
X199529Y300126D01*
Y299184D01*
X193471Y318741D02*
X194414D01*
X195356Y317799D01*
Y316856D01*
X193471Y314971D01*
X192529D01*
X191586Y315914D01*
Y316856D01*
X192529Y319684D02*
Y320626D01*
X191586Y321569D01*
X190644D01*
X190173Y321097D01*
Y320155D01*
X190644Y319684D01*
X190173Y320155D01*
X189230D01*
X188759Y319684D01*
Y318741D01*
X189701Y317799D01*
X190644D01*
X223971Y288241D02*
X224914D01*
X225856Y287299D01*
Y286356D01*
X223971Y284471D01*
X223029D01*
X222086Y285414D01*
Y286356D01*
X221615Y291540D02*
X223500Y289655D01*
X222086Y288241D01*
X221615Y289655D01*
X221144Y290126D01*
X220201D01*
X219259Y289184D01*
Y288241D01*
X220201Y287299D01*
X221144D01*
X192259Y343971D02*
Y344914D01*
X193201Y345856D01*
X194144D01*
X196029Y343971D01*
Y343029D01*
X195086Y342086D01*
X194144D01*
X192259Y339259D02*
X189431Y342086D01*
X192259Y342086D01*
X190374Y340201D01*
X203235Y339311D02*
X200407Y342139D01*
X198993Y340725D01*
Y339782D01*
X199936Y338840D01*
X200878D01*
X202292Y340253D01*
X201349Y339311D02*
Y337426D01*
X200407Y336484D02*
X199464Y335541D01*
X199936Y336012D01*
X197108Y338840D01*
X198051D01*
X201332Y378166D02*
X201999Y377499D01*
Y376166D01*
X201332Y375500D01*
X198667D01*
X198000Y376166D01*
Y377499D01*
X198667Y378166D01*
X198000Y382165D02*
Y379499D01*
X200666Y382165D01*
X201332D01*
X201999Y381498D01*
Y380165D01*
X201332Y379499D01*
X198000Y386163D02*
Y383497D01*
X200666Y386163D01*
X201332D01*
X201999Y385497D01*
Y384164D01*
X201332Y383497D01*
X201999Y394894D02*
Y392228D01*
X199999D01*
Y393561D01*
Y392228D01*
X198000D01*
X201999Y396227D02*
X198000D01*
Y398226D01*
X198667Y398893D01*
X199333D01*
X199999Y398226D01*
Y396227D01*
Y398226D01*
X200666Y398893D01*
X201332D01*
X201999Y398226D01*
Y396227D01*
X198000Y400226D02*
Y401559D01*
Y400892D01*
X201999D01*
X201332Y400226D01*
X132000Y376000D02*
Y379999D01*
X130001D01*
X129334Y379332D01*
Y377999D01*
X130001Y377333D01*
X132000D01*
X130667D02*
X129334Y376000D01*
X126002D02*
Y379999D01*
X128001Y377999D01*
X125336D01*
X169000Y403499D02*
Y400166D01*
X168333Y399500D01*
X167001D01*
X166334Y400166D01*
Y403499D01*
X165001Y399500D02*
X163668D01*
X164335D01*
Y403499D01*
X165001Y402832D01*
X161669D02*
X161003Y403499D01*
X159670D01*
X159003Y402832D01*
Y402166D01*
X159670Y401499D01*
X160336D01*
X159670D01*
X159003Y400833D01*
Y400166D01*
X159670Y399500D01*
X161003D01*
X161669Y400166D01*
X251000Y406499D02*
Y403166D01*
X250334Y402500D01*
X249001D01*
X248334Y403166D01*
Y406499D01*
X247001Y402500D02*
X245668D01*
X246335D01*
Y406499D01*
X247001Y405832D01*
X241670Y402500D02*
Y406499D01*
X243669Y404499D01*
X241003D01*
X274834Y398832D02*
X275501Y399499D01*
X276834D01*
X277500Y398832D01*
Y396166D01*
X276834Y395500D01*
X275501D01*
X274834Y396166D01*
X270835Y395500D02*
X273501D01*
X270835Y398166D01*
Y398832D01*
X271502Y399499D01*
X272835D01*
X273501Y398832D01*
X269503D02*
X268836Y399499D01*
X267503D01*
X266837Y398832D01*
Y396166D01*
X267503Y395500D01*
X268836D01*
X269503Y396166D01*
Y398832D01*
X277500Y389500D02*
Y393499D01*
X275501D01*
X274834Y392832D01*
Y391499D01*
X275501Y390833D01*
X277500D01*
X276167D02*
X274834Y389500D01*
X273501D02*
X272168D01*
X272835D01*
Y393499D01*
X273501Y392832D01*
X267503Y393499D02*
X268836Y392832D01*
X270169Y391499D01*
Y390166D01*
X269503Y389500D01*
X268170D01*
X267503Y390166D01*
Y390833D01*
X268170Y391499D01*
X270169D01*
X277500Y372000D02*
Y375999D01*
X275501D01*
X274834Y375332D01*
Y373999D01*
X275501Y373333D01*
X277500D01*
X276167D02*
X274834Y372000D01*
X273501D02*
X272168D01*
X272835D01*
Y375999D01*
X273501Y375332D01*
X267503Y375999D02*
X270169D01*
Y373999D01*
X268836Y374666D01*
X268170D01*
X267503Y373999D01*
Y372666D01*
X268170Y372000D01*
X269503D01*
X270169Y372666D01*
X282061Y402166D02*
X282727Y401499D01*
Y400166D01*
X282061Y399500D01*
X279395D01*
X278728Y400166D01*
Y401499D01*
X279395Y402166D01*
X278728Y406165D02*
Y403499D01*
X281394Y406165D01*
X282061D01*
X282727Y405498D01*
Y404165D01*
X282061Y403499D01*
X278728Y407497D02*
Y408830D01*
Y408164D01*
X282727D01*
X282061Y407497D01*
X283258Y373166D02*
X283924Y372499D01*
Y371166D01*
X283258Y370500D01*
X280592D01*
X279925Y371166D01*
Y372499D01*
X280592Y373166D01*
X279925Y374499D02*
Y375832D01*
Y375165D01*
X283924D01*
X283258Y374499D01*
X282832Y349280D02*
X283499Y348614D01*
Y347281D01*
X282832Y346614D01*
X280166D01*
X279500Y347281D01*
Y348614D01*
X280166Y349280D01*
X279500Y353279D02*
Y350613D01*
X282166Y353279D01*
X282832D01*
X283499Y352612D01*
Y351279D01*
X282832Y350613D01*
X275500Y369999D02*
X272834D01*
X274167D01*
Y366000D01*
X271501Y369999D02*
X268835Y366000D01*
Y369999D02*
X271501Y366000D01*
X275500Y356500D02*
Y360499D01*
X273501D01*
X272834Y359832D01*
Y358499D01*
X273501Y357833D01*
X275500D01*
X274167D02*
X272834Y356500D01*
X271501Y360499D02*
X268835Y356500D01*
Y360499D02*
X271501Y356500D01*
X260000Y275000D02*
Y276666D01*
Y275833D01*
X264998D01*
X264165Y275000D01*
X270000Y276332D02*
Y273000D01*
X273332Y276332D01*
X274165D01*
X274998Y275499D01*
Y273833D01*
X274165Y273000D01*
X264998Y312332D02*
Y309000D01*
X262499D01*
X263332Y310666D01*
Y311499D01*
X262499Y312332D01*
X260833D01*
X260000Y311499D01*
Y309833D01*
X260833Y309000D01*
X274998Y312332D02*
X274165Y310666D01*
X272499Y309000D01*
X270833D01*
X270000Y309833D01*
Y311499D01*
X270833Y312332D01*
X271666D01*
X272499Y311499D01*
Y309000D01*
X187000Y333499D02*
Y329500D01*
X185001D01*
X184334Y330166D01*
Y330833D01*
X185001Y331499D01*
X187000D01*
X185001D01*
X184334Y332166D01*
Y332832D01*
X185001Y333499D01*
X187000D01*
X183001D02*
X180335D01*
X181668D01*
Y329500D01*
X179003D02*
X177670D01*
X178336D01*
Y333499D01*
X179003Y332832D01*
X132000Y396000D02*
Y399999D01*
X130001D01*
X129334Y399332D01*
Y397999D01*
X130001Y397333D01*
X132000D01*
X130667D02*
X129334Y396000D01*
X128001Y399332D02*
X127335Y399999D01*
X126002D01*
X125336Y399332D01*
Y398666D01*
X126002Y397999D01*
X126668D01*
X126002D01*
X125336Y397333D01*
Y396666D01*
X126002Y396000D01*
X127335D01*
X128001Y396666D01*
X189332Y394894D02*
X189999Y394228D01*
Y392895D01*
X189332Y392228D01*
X186667D01*
X186000Y392895D01*
Y394228D01*
X186667Y394894D01*
X186000Y396227D02*
Y397560D01*
Y396894D01*
X189999D01*
X189332Y396227D01*
Y399559D02*
X189999Y400226D01*
Y401559D01*
X189332Y402225D01*
X188666D01*
X187999Y401559D01*
X187333Y402225D01*
X186667D01*
X186000Y401559D01*
Y400226D01*
X186667Y399559D01*
X187333D01*
X187999Y400226D01*
X188666Y399559D01*
X189332D01*
X187999Y400226D02*
Y401559D01*
D94*
X166449Y391131D02*
X166004Y392054D01*
X165005Y392282D01*
X164204Y391643D01*
Y390618D01*
X165005Y389979D01*
X166004Y390208D01*
X166449Y391131D01*
X227350Y366768D02*
X226906Y367691D01*
X225906Y367919D01*
X225105Y367280D01*
Y366255D01*
X225906Y365616D01*
X226906Y365844D01*
X227350Y366768D01*
X228673Y333300D02*
X228228Y334224D01*
X227229Y334452D01*
X226428Y333813D01*
Y332788D01*
X227229Y332149D01*
X228228Y332377D01*
X228673Y333300D01*
D95*
X230020Y406769D02*
D03*
D96*
X251504Y384575D02*
Y387724D01*
M02*
