G04*
G04 #@! TF.GenerationSoftware,Altium Limited,Altium Designer,19.0.15 (446)*
G04*
G04 Layer_Color=16711935*
%FSLAX25Y25*%
%MOIN*%
G70*
G01*
G75*
%ADD14R,0.04737X0.04343*%
%ADD20R,0.03950X0.03950*%
%ADD23R,0.05131X0.05131*%
%ADD26C,0.06706*%
%ADD27R,0.06706X0.06706*%
%ADD28R,0.06706X0.06706*%
%ADD29C,0.20485*%
%ADD30C,0.03162*%
%ADD72R,0.21800X0.07800*%
G04:AMPARAMS|DCode=73|XSize=43.43mil|YSize=39.5mil|CornerRadius=0mil|HoleSize=0mil|Usage=FLASHONLY|Rotation=225.000|XOffset=0mil|YOffset=0mil|HoleType=Round|Shape=Rectangle|*
%AMROTATEDRECTD73*
4,1,4,0.00139,0.02932,0.02932,0.00139,-0.00139,-0.02932,-0.02932,-0.00139,0.00139,0.02932,0.0*
%
%ADD73ROTATEDRECTD73*%

%ADD74P,0.07256X4X270.0*%
%ADD75P,0.07256X4X360.0*%
G04:AMPARAMS|DCode=76|XSize=47.37mil|YSize=43.43mil|CornerRadius=0mil|HoleSize=0mil|Usage=FLASHONLY|Rotation=135.000|XOffset=0mil|YOffset=0mil|HoleType=Round|Shape=Rectangle|*
%AMROTATEDRECTD76*
4,1,4,0.03210,-0.00139,0.00139,-0.03210,-0.03210,0.00139,-0.00139,0.03210,0.03210,-0.00139,0.0*
%
%ADD76ROTATEDRECTD76*%

%ADD77R,0.03556X0.04540*%
%ADD78R,0.04343X0.04737*%
%ADD79O,0.08674X0.03162*%
%ADD80O,0.07887X0.02178*%
%ADD81R,0.07099X0.11036*%
%ADD82R,0.05131X0.05131*%
%ADD83R,0.03556X0.04343*%
%ADD84R,0.07493X0.02769*%
%ADD85R,0.07887X0.02769*%
%ADD86R,0.06706X0.22453*%
G04:AMPARAMS|DCode=87|XSize=31.62mil|YSize=84.77mil|CornerRadius=0mil|HoleSize=0mil|Usage=FLASHONLY|Rotation=225.000|XOffset=0mil|YOffset=0mil|HoleType=Round|Shape=Round|*
%AMOVALD87*
21,1,0.05315,0.03162,0.00000,0.00000,315.0*
1,1,0.03162,-0.01879,0.01879*
1,1,0.03162,0.01879,-0.01879*
%
%ADD87OVALD87*%

G04:AMPARAMS|DCode=88|XSize=31.62mil|YSize=84.77mil|CornerRadius=0mil|HoleSize=0mil|Usage=FLASHONLY|Rotation=135.000|XOffset=0mil|YOffset=0mil|HoleType=Round|Shape=Round|*
%AMOVALD88*
21,1,0.05315,0.03162,0.00000,0.00000,225.0*
1,1,0.03162,0.01879,0.01879*
1,1,0.03162,-0.01879,-0.01879*
%
%ADD88OVALD88*%

%ADD89R,0.03950X0.03950*%
%ADD90R,0.02375X0.06115*%
%ADD91R,0.07099X0.06312*%
%ADD92R,0.06509X0.05918*%
%ADD93R,0.08280X0.08280*%
D14*
X281500Y379850D02*
D03*
Y386150D02*
D03*
Y335965D02*
D03*
Y342264D02*
D03*
D20*
X260953Y386150D02*
D03*
X255047D02*
D03*
D23*
X207000Y386043D02*
D03*
Y378957D02*
D03*
X280500Y414378D02*
D03*
Y421465D02*
D03*
X187500Y379957D02*
D03*
Y387043D02*
D03*
D26*
X288000Y320500D02*
D03*
Y310500D02*
D03*
X272000Y303000D02*
D03*
X262000D02*
D03*
X272000Y293000D02*
D03*
X262000D02*
D03*
X272000Y283000D02*
D03*
X260953Y359000D02*
D03*
X187000Y277000D02*
D03*
X177000D02*
D03*
X167000D02*
D03*
X157000D02*
D03*
D27*
X288000Y300500D02*
D03*
X262000Y283000D02*
D03*
X260953Y369000D02*
D03*
D28*
X147000Y277000D02*
D03*
D29*
X297500Y415000D02*
D03*
X127000D02*
D03*
X297500Y281000D02*
D03*
X127000D02*
D03*
D30*
X141000Y330488D02*
D03*
X138425Y291500D02*
D03*
X235500Y328000D02*
D03*
X253416Y292500D02*
D03*
X194000Y346372D02*
D03*
X197000Y322000D02*
D03*
Y298516D02*
D03*
X121500Y377000D02*
D03*
X131938Y368500D02*
D03*
X193500Y284072D02*
D03*
X204500Y284500D02*
D03*
X211000Y374500D02*
D03*
X197500Y392051D02*
D03*
X167000Y396687D02*
D03*
X265851Y337500D02*
D03*
X251291Y373344D02*
D03*
X246500Y354000D02*
D03*
X274500Y373275D02*
D03*
X230000Y387226D02*
D03*
X186354Y289547D02*
D03*
X258149Y318500D02*
D03*
X154736Y300000D02*
D03*
X227500Y311000D02*
D03*
X246000Y282500D02*
D03*
X230000Y360000D02*
D03*
X223000Y366500D02*
D03*
X167000Y343000D02*
D03*
X154736Y328500D02*
D03*
D72*
X127500Y310055D02*
D03*
Y300055D02*
D03*
Y320055D02*
D03*
D73*
X208449Y288051D02*
D03*
X204551Y291949D02*
D03*
D74*
X202505Y305995D02*
D03*
X197494Y311005D02*
D03*
X214848Y293429D02*
D03*
X209837Y298440D02*
D03*
D75*
X204348Y354132D02*
D03*
X199337Y349121D02*
D03*
D76*
X209820Y347853D02*
D03*
X205366Y343399D02*
D03*
D77*
X207000Y400748D02*
D03*
Y394252D02*
D03*
D78*
X130150Y384043D02*
D03*
X123850D02*
D03*
X130150Y391899D02*
D03*
X123850D02*
D03*
D79*
X139284Y356899D02*
D03*
Y361899D02*
D03*
Y366899D02*
D03*
Y371899D02*
D03*
Y376899D02*
D03*
Y381899D02*
D03*
Y386899D02*
D03*
Y391899D02*
D03*
X174716Y356899D02*
D03*
Y361899D02*
D03*
Y366899D02*
D03*
Y371899D02*
D03*
Y376899D02*
D03*
Y381899D02*
D03*
Y386899D02*
D03*
Y391899D02*
D03*
D80*
X217114Y366866D02*
D03*
Y369425D02*
D03*
Y371984D02*
D03*
Y374543D02*
D03*
Y377102D02*
D03*
Y379661D02*
D03*
Y382221D02*
D03*
Y384780D02*
D03*
Y387339D02*
D03*
Y389898D02*
D03*
Y392457D02*
D03*
Y395016D02*
D03*
Y397575D02*
D03*
Y400134D02*
D03*
X243886Y366866D02*
D03*
Y369425D02*
D03*
Y371984D02*
D03*
Y374543D02*
D03*
Y377102D02*
D03*
Y379661D02*
D03*
Y382221D02*
D03*
Y384780D02*
D03*
Y387339D02*
D03*
Y389898D02*
D03*
Y392457D02*
D03*
Y395016D02*
D03*
Y397575D02*
D03*
Y400134D02*
D03*
D81*
X264000Y405913D02*
D03*
Y420087D02*
D03*
D82*
X254457Y394000D02*
D03*
X261543D02*
D03*
D83*
X274256Y386150D02*
D03*
X268744D02*
D03*
X274256Y379650D02*
D03*
X268744D02*
D03*
D84*
X155102Y311047D02*
D03*
D85*
X155299Y316953D02*
D03*
D86*
X296000Y377894D02*
D03*
Y344429D02*
D03*
D87*
X223456Y342626D02*
D03*
X221228Y340399D02*
D03*
X219001Y338172D02*
D03*
X216774Y335945D02*
D03*
X214547Y333718D02*
D03*
X212320Y331491D02*
D03*
X210093Y329264D02*
D03*
X207866Y327037D02*
D03*
X231529Y303374D02*
D03*
X233756Y305601D02*
D03*
X235983Y307828D02*
D03*
X238210Y310055D02*
D03*
X240437Y312282D02*
D03*
X242664Y314509D02*
D03*
X244891Y316736D02*
D03*
X247118Y318963D02*
D03*
D88*
X207866D02*
D03*
X210093Y316736D02*
D03*
X212320Y314509D02*
D03*
X214547Y312282D02*
D03*
X216774Y310055D02*
D03*
X219001Y307828D02*
D03*
X221228Y305601D02*
D03*
X223456Y303374D02*
D03*
X247118Y327037D02*
D03*
X244891Y329264D02*
D03*
X242664Y331491D02*
D03*
X240437Y333718D02*
D03*
X238210Y335945D02*
D03*
X235983Y338172D02*
D03*
X233756Y340399D02*
D03*
X231529Y342626D02*
D03*
D89*
X254850Y379650D02*
D03*
X261150D02*
D03*
D90*
X229823Y411000D02*
D03*
X232382D02*
D03*
X234941D02*
D03*
X237500D02*
D03*
X240059D02*
D03*
D91*
X222342Y411886D02*
D03*
X247539D02*
D03*
D92*
X221457Y421531D02*
D03*
X248425D02*
D03*
D93*
X230217D02*
D03*
X239665D02*
D03*
M02*
