G04*
G04 #@! TF.GenerationSoftware,Altium Limited,Altium Designer,19.0.15 (446)*
G04*
G04 Layer_Physical_Order=1*
G04 Layer_Color=255*
%FSLAX25Y25*%
%MOIN*%
G70*
G01*
G75*
%ADD12C,0.01000*%
%ADD31R,0.03937X0.03543*%
%ADD32R,0.07480X0.12598*%
%ADD33R,0.07480X0.03543*%
%ADD34R,0.03347X0.01772*%
%ADD35R,0.04724X0.04724*%
%ADD36R,0.06299X0.05906*%
%ADD37R,0.03150X0.03150*%
%ADD38R,0.03543X0.02756*%
%ADD39R,0.01772X0.06890*%
%ADD40R,0.04331X0.04331*%
%ADD41R,0.05906X0.03543*%
%ADD42R,0.03740X0.03347*%
%ADD43C,0.02000*%
%ADD44C,0.05906*%
%ADD45R,0.05906X0.05906*%
%ADD46R,0.05906X0.05906*%
%ADD47C,0.19685*%
%ADD48C,0.02362*%
G36*
X287806Y425000D02*
X289820Y422922D01*
X289809Y422690D01*
X288701Y421393D01*
X287809Y419938D01*
X287156Y418361D01*
X286758Y416701D01*
X286624Y415000D01*
X286758Y413299D01*
X287156Y411639D01*
X287809Y410062D01*
X288701Y408607D01*
X289809Y407309D01*
X291107Y406201D01*
X292562Y405309D01*
X294139Y404656D01*
X295799Y404258D01*
X297500Y404124D01*
X299201Y404258D01*
X300861Y404656D01*
X302438Y405309D01*
X303893Y406201D01*
X305062Y407199D01*
X307500Y404684D01*
X307500Y291000D01*
X305279Y288688D01*
X305190Y288690D01*
X303893Y289799D01*
X302438Y290691D01*
X300861Y291344D01*
X299201Y291742D01*
X297500Y291876D01*
X295799Y291742D01*
X294139Y291344D01*
X292562Y290691D01*
X291107Y289799D01*
X289809Y288690D01*
X288701Y287393D01*
X287809Y285938D01*
X287156Y284361D01*
X286758Y282701D01*
X286624Y281000D01*
X286758Y279299D01*
X287156Y277639D01*
X287809Y276062D01*
X288701Y274607D01*
X289809Y273309D01*
X289914Y273220D01*
X289939Y272720D01*
X287806Y270500D01*
X137007D01*
X134672Y272951D01*
X134690Y273309D01*
X135799Y274607D01*
X136691Y276062D01*
X137344Y277639D01*
X137742Y279299D01*
X137876Y281000D01*
X137742Y282701D01*
X137344Y284361D01*
X136691Y285938D01*
X135799Y287393D01*
X134690Y288690D01*
X133393Y289799D01*
X131938Y290691D01*
X130361Y291344D01*
X128701Y291742D01*
X127000Y291876D01*
X125299Y291742D01*
X123639Y291344D01*
X122062Y290691D01*
X120607Y289799D01*
X119512Y288863D01*
X117000Y291500D01*
Y405007D01*
X119304Y407310D01*
X119309Y407309D01*
X120607Y406201D01*
X122062Y405309D01*
X123639Y404656D01*
X125299Y404258D01*
X127000Y404124D01*
X128701Y404258D01*
X130361Y404656D01*
X131938Y405309D01*
X133393Y406201D01*
X134690Y407309D01*
X135799Y408607D01*
X136691Y410062D01*
X137344Y411639D01*
X137742Y413299D01*
X137876Y415000D01*
X137742Y416701D01*
X137344Y418361D01*
X136691Y419938D01*
X135799Y421393D01*
X134693Y422688D01*
X137007Y425000D01*
X287806Y425000D01*
D02*
G37*
%LPC*%
G36*
X190307Y408862D02*
X186854D01*
Y406591D01*
X190307D01*
Y408862D01*
D02*
G37*
G36*
X176500Y406016D02*
X174031D01*
Y405283D01*
X154839D01*
X154839Y405283D01*
X154058Y405128D01*
X153397Y404686D01*
X145187Y396476D01*
X143831D01*
Y393705D01*
Y390933D01*
X148071D01*
Y393593D01*
X155683Y401205D01*
X174031D01*
Y400472D01*
X176500D01*
Y403244D01*
Y406016D01*
D02*
G37*
G36*
X190307Y405590D02*
X186854D01*
Y403319D01*
X190307D01*
Y405590D01*
D02*
G37*
G36*
X185854Y408862D02*
X182402D01*
Y408130D01*
X180043D01*
X179263Y407974D01*
X178601Y407532D01*
X177500Y406431D01*
Y403244D01*
Y400472D01*
X179969D01*
Y403132D01*
X180888Y404051D01*
X182402D01*
Y403319D01*
X185854D01*
Y406090D01*
Y408862D01*
D02*
G37*
G36*
X209598D02*
X201693D01*
Y403319D01*
X209598D01*
Y404051D01*
X214551D01*
X221278Y397324D01*
X221087Y396862D01*
X213902D01*
Y395634D01*
X209598D01*
Y395870D01*
X201693D01*
Y390327D01*
X209598D01*
Y391555D01*
X210833D01*
X211169Y391055D01*
X211062Y390519D01*
Y378581D01*
X211218Y377801D01*
X211660Y377139D01*
X211706Y377093D01*
X211500Y376709D01*
Y374500D01*
X211000D01*
Y374000D01*
X208876D01*
X208945Y373649D01*
X209427Y372927D01*
X209587Y372821D01*
X209598Y372721D01*
X209167Y372235D01*
X201693D01*
Y366692D01*
X209598D01*
Y367944D01*
X210817D01*
X211164Y367444D01*
X211062Y366931D01*
Y354994D01*
X211218Y354213D01*
X211660Y353552D01*
X214369Y350842D01*
Y349687D01*
X213902D01*
Y348411D01*
X209598D01*
Y348600D01*
X201693D01*
Y343057D01*
X209598D01*
Y344333D01*
X210802D01*
X211160Y343833D01*
X211062Y343344D01*
Y331406D01*
X211218Y330626D01*
X211660Y329964D01*
X214369Y327255D01*
Y326099D01*
X213902D01*
Y324800D01*
X209598D01*
Y324966D01*
X201693D01*
Y324109D01*
X197580D01*
X197000Y324224D01*
X196149Y324055D01*
X195428Y323572D01*
X194946Y322851D01*
X194776Y322000D01*
X194946Y321149D01*
X195428Y320427D01*
X196149Y319945D01*
X197000Y319776D01*
X197851Y319945D01*
X197978Y320030D01*
X201693D01*
Y319422D01*
X209598D01*
Y320722D01*
X213902D01*
Y320556D01*
X221807D01*
Y326099D01*
X218447D01*
Y328099D01*
X218447Y328099D01*
X218292Y328880D01*
X217850Y329541D01*
X216702Y330690D01*
X216893Y331152D01*
X218923D01*
X228189Y321886D01*
X228851Y321444D01*
X229631Y321289D01*
X233193D01*
Y320556D01*
X240284D01*
X240393Y320056D01*
X238866Y318529D01*
X215047D01*
X214462Y318413D01*
X213966Y318081D01*
X210919Y315034D01*
X210587Y314538D01*
X210471Y313953D01*
Y308282D01*
X208524Y306335D01*
X184178D01*
X183029Y307485D01*
Y308780D01*
X185854D01*
Y311551D01*
Y314323D01*
X182402D01*
Y312867D01*
X181940Y312676D01*
X180034Y314581D01*
X179538Y314913D01*
X178953Y315029D01*
X155567D01*
X154982Y314913D01*
X154486Y314581D01*
X151469Y311565D01*
X151137Y311069D01*
X151113Y310945D01*
X142614D01*
Y308415D01*
X139165D01*
Y310122D01*
X132835D01*
Y308996D01*
X129845D01*
X128338Y310502D01*
Y327311D01*
X133031D01*
Y326579D01*
X138961D01*
Y325561D01*
X134558Y321159D01*
X134116Y320497D01*
X133961Y319717D01*
Y317209D01*
X132835D01*
Y310878D01*
X139165D01*
Y312514D01*
X141500D01*
X142085Y312630D01*
X142581Y312962D01*
X145581Y315962D01*
X145913Y316458D01*
X146029Y317043D01*
Y330402D01*
X152825D01*
X153050Y329902D01*
X152682Y329351D01*
X152512Y328500D01*
X152682Y327649D01*
X153164Y326927D01*
X153885Y326445D01*
X154736Y326276D01*
X155587Y326445D01*
X156309Y326927D01*
X156791Y327649D01*
X156960Y328500D01*
X156791Y329351D01*
X156423Y329902D01*
X156648Y330402D01*
X169417D01*
Y339291D01*
X161384D01*
Y346079D01*
X162193D01*
Y351622D01*
X156256D01*
Y346079D01*
X158325D01*
Y341545D01*
X157825Y341338D01*
X153546Y345617D01*
X153737Y346079D01*
X154469D01*
Y351622D01*
X148531D01*
Y346079D01*
X149845D01*
X149926Y345579D01*
X149713Y345344D01*
X149515Y345225D01*
X149252Y345277D01*
X143562D01*
X143150Y345488D01*
Y353394D01*
X134850D01*
Y345488D01*
X137471D01*
Y344500D01*
X137587Y343915D01*
X137784Y343621D01*
X137533Y343121D01*
X128029D01*
Y346079D01*
X129469D01*
Y351622D01*
X123531D01*
Y346079D01*
X124971D01*
Y342177D01*
X125087Y341592D01*
X125419Y341096D01*
X126004Y340510D01*
X126500Y340178D01*
X127086Y340062D01*
X134330D01*
X134588Y339650D01*
X134582Y339562D01*
X134471Y339000D01*
Y338421D01*
X133031D01*
Y332878D01*
X138969D01*
Y338062D01*
X142614D01*
Y332634D01*
X142114Y332367D01*
X141851Y332543D01*
X141000Y332712D01*
X140149Y332543D01*
X139469Y332088D01*
X138969Y332122D01*
Y332122D01*
X133031D01*
Y331390D01*
X127144D01*
X122039Y336494D01*
Y352155D01*
X122845Y352961D01*
X123531D01*
Y352378D01*
X129469D01*
Y357921D01*
X128539D01*
Y371866D01*
X129272D01*
Y372107D01*
X134005D01*
X134500Y372008D01*
X134500Y372008D01*
X139815D01*
X140398Y372124D01*
X140898Y371810D01*
Y365598D01*
X139575D01*
Y358874D01*
X146299D01*
Y360197D01*
X147919D01*
X149461Y358655D01*
Y357921D01*
X148531D01*
Y352378D01*
X154469D01*
Y353110D01*
X156256D01*
Y352378D01*
X162193D01*
Y357921D01*
X156256D01*
Y357189D01*
X154469D01*
Y357921D01*
X153539D01*
Y359500D01*
X153384Y360280D01*
X152942Y360942D01*
X150206Y363678D01*
X149544Y364120D01*
X148764Y364275D01*
X146299D01*
Y365598D01*
X144976D01*
Y372823D01*
X148071D01*
Y378366D01*
X138591D01*
Y376086D01*
X134896D01*
X134402Y376185D01*
X129272D01*
Y376622D01*
X124458D01*
X124011Y377061D01*
Y377250D01*
X124158Y377378D01*
X129272D01*
Y382134D01*
X128539D01*
Y385524D01*
X129075D01*
Y388286D01*
X129537Y388477D01*
X130345Y387668D01*
X130345Y387668D01*
X131007Y387226D01*
X131630Y387102D01*
Y385764D01*
X132461D01*
Y381839D01*
X131827D01*
Y378067D01*
X133729D01*
X134500Y377914D01*
X135059D01*
X135830Y378067D01*
X137173D01*
Y379183D01*
X139829Y381839D01*
X142559D01*
X142756Y381878D01*
X148071D01*
Y382610D01*
X161819D01*
Y377350D01*
X164658D01*
Y375594D01*
X164813Y374814D01*
X165255Y374153D01*
X167780Y371628D01*
X168441Y371186D01*
X169221Y371031D01*
X174031D01*
Y370298D01*
X175158D01*
Y369233D01*
X174655Y368731D01*
X169692D01*
X168912Y368576D01*
X168250Y368134D01*
X165460Y365343D01*
X165018Y364682D01*
X164862Y363902D01*
Y357921D01*
X163933D01*
Y352378D01*
X166921D01*
X167145Y352099D01*
X166934Y351622D01*
X163933D01*
Y346079D01*
X165471D01*
Y344601D01*
X165427Y344572D01*
X164945Y343851D01*
X164776Y343000D01*
X164945Y342149D01*
X165427Y341427D01*
X166149Y340945D01*
X167000Y340776D01*
X167851Y340945D01*
X168572Y341427D01*
X169054Y342149D01*
X169224Y343000D01*
X169054Y343851D01*
X168572Y344572D01*
X168529Y344601D01*
Y346079D01*
X169870D01*
Y348841D01*
X170332Y349032D01*
X170840Y348525D01*
X171501Y348083D01*
X172165Y347951D01*
X172401Y347480D01*
X170558Y345637D01*
X170116Y344975D01*
X169961Y344195D01*
Y330123D01*
X170116Y329343D01*
X170558Y328681D01*
X174031Y325208D01*
Y322548D01*
X179969D01*
Y328092D01*
X176981D01*
X176757Y328370D01*
X176967Y328847D01*
X179969D01*
Y331119D01*
X177000D01*
Y331619D01*
X176500D01*
Y334391D01*
X174039D01*
Y343350D01*
X177112Y346423D01*
X179969D01*
Y351967D01*
X176425D01*
X176228Y352006D01*
X173126D01*
X169870Y355262D01*
Y357921D01*
X168941D01*
Y363057D01*
X170537Y364653D01*
X175500D01*
X176280Y364808D01*
X176942Y365250D01*
X178639Y366947D01*
X179081Y367608D01*
X179236Y368389D01*
Y370298D01*
X179969D01*
Y375841D01*
X174031D01*
Y375109D01*
X170066D01*
X168736Y376439D01*
Y377350D01*
X171299D01*
Y382461D01*
X173377D01*
X173846Y382294D01*
X173846D01*
X174031Y382057D01*
X174031Y381863D01*
Y379869D01*
X176500D01*
Y382141D01*
X174619D01*
X174313Y382605D01*
X174317Y382641D01*
X174942Y383058D01*
X178442Y386558D01*
X178884Y387220D01*
X179039Y388000D01*
Y394173D01*
X179969D01*
Y399716D01*
X174031D01*
Y394173D01*
X174961D01*
Y388845D01*
X172655Y386539D01*
X171299D01*
Y391949D01*
X169039D01*
Y395813D01*
X169054Y395836D01*
X169224Y396687D01*
X169054Y397538D01*
X168572Y398260D01*
X167851Y398742D01*
X167000Y398911D01*
X166149Y398742D01*
X165427Y398260D01*
X164945Y397538D01*
X164776Y396687D01*
X164945Y395836D01*
X164961Y395813D01*
Y391949D01*
X161819D01*
Y386689D01*
X148071D01*
Y387421D01*
X138591D01*
Y385839D01*
X138204Y385762D01*
X137895Y385556D01*
X137580Y385607D01*
X137391Y385787D01*
X137370Y386110D01*
X137370Y386238D01*
Y391689D01*
X138591D01*
Y390933D01*
X142831D01*
Y393705D01*
Y396476D01*
X138591D01*
Y395767D01*
X137370D01*
Y396425D01*
X135000D01*
Y393752D01*
X134500D01*
Y393252D01*
X131630D01*
Y392805D01*
X131168Y392614D01*
X129075Y394707D01*
Y396972D01*
X123925D01*
Y391823D01*
X126191D01*
X126879Y391135D01*
X126687Y390673D01*
X123925D01*
Y385524D01*
X124461D01*
Y382134D01*
X123728D01*
Y378491D01*
X123228Y378339D01*
X123073Y378573D01*
X122351Y379055D01*
X122000Y379124D01*
Y377000D01*
Y374876D01*
X122351Y374945D01*
X123073Y375428D01*
X123228Y375661D01*
X123728Y375509D01*
Y371866D01*
X124461D01*
Y357921D01*
X123531D01*
Y357039D01*
X122000D01*
X121220Y356884D01*
X120558Y356442D01*
X118558Y354442D01*
X118116Y353780D01*
X117961Y353000D01*
Y335650D01*
X118116Y334869D01*
X118558Y334208D01*
X124260Y328506D01*
Y309658D01*
X124415Y308877D01*
X124857Y308216D01*
X127558Y305515D01*
X128220Y305073D01*
X129000Y304918D01*
X132835D01*
Y303791D01*
X139165D01*
Y305356D01*
X142614D01*
Y302055D01*
X145530D01*
Y301342D01*
X144419Y300231D01*
X144087Y299735D01*
X143971Y299150D01*
Y297772D01*
X142532D01*
Y292228D01*
X148468D01*
Y297772D01*
X147029D01*
Y298516D01*
X148087Y299574D01*
X148190Y299626D01*
X148729Y299608D01*
X150531Y297806D01*
Y292280D01*
X156468D01*
Y297823D01*
X156304D01*
X156152Y298323D01*
X156309Y298428D01*
X156791Y299149D01*
X156851Y299451D01*
X157393Y299615D01*
X160090Y296919D01*
X160586Y296587D01*
X161172Y296471D01*
X163531D01*
Y292280D01*
X169468D01*
Y297070D01*
X169930Y297261D01*
X171531Y295660D01*
Y292280D01*
X177469D01*
Y297410D01*
X177469Y297582D01*
X177969Y297789D01*
X179562Y296196D01*
Y288463D01*
X179718Y287683D01*
X180160Y287021D01*
X184550Y282631D01*
X185212Y282189D01*
X185992Y282033D01*
X192626D01*
X192649Y282018D01*
X193500Y281849D01*
X194351Y282018D01*
X195072Y282500D01*
X195554Y283222D01*
X195724Y284072D01*
X195554Y284924D01*
X195072Y285645D01*
X194351Y286127D01*
X193500Y286296D01*
X192649Y286127D01*
X192626Y286112D01*
X186837D01*
X186080Y286868D01*
X186327Y287329D01*
X186354Y287323D01*
X187205Y287493D01*
X187927Y287975D01*
X188409Y288696D01*
X188578Y289547D01*
X188409Y290398D01*
X188393Y290421D01*
Y295787D01*
X190307D01*
Y301331D01*
X182402D01*
Y299777D01*
X181940Y299586D01*
X179969Y301557D01*
Y304217D01*
X174031D01*
Y298673D01*
X177085D01*
X177435Y298323D01*
X177228Y297823D01*
X177068Y297823D01*
X173694D01*
X170436Y301081D01*
X169940Y301413D01*
X169354Y301529D01*
X163084D01*
X163067Y301555D01*
X163335Y302055D01*
X169417D01*
Y310945D01*
X155828D01*
X155637Y311407D01*
X156201Y311971D01*
X178319D01*
X179312Y310978D01*
X179121Y310516D01*
X177500D01*
Y307744D01*
Y304972D01*
X179969D01*
Y305543D01*
X180261Y305690D01*
X180468Y305720D01*
X182464Y303725D01*
X182960Y303393D01*
X183545Y303277D01*
X209157D01*
X209742Y303393D01*
X210239Y303725D01*
X213081Y306568D01*
X213413Y307064D01*
X213476Y307383D01*
X213902Y307564D01*
X213994Y307564D01*
X218923D01*
X228189Y298298D01*
X228851Y297856D01*
X229631Y297701D01*
X233193D01*
Y296969D01*
X241098D01*
Y302461D01*
X258084D01*
X258149Y301968D01*
X258547Y301007D01*
X259181Y300181D01*
X260007Y299547D01*
X260968Y299149D01*
X262000Y299013D01*
X263032Y299149D01*
X263993Y299547D01*
X264819Y300181D01*
X265453Y301007D01*
X265851Y301968D01*
X265987Y303000D01*
X265851Y304032D01*
X265453Y304993D01*
X264819Y305819D01*
X263993Y306453D01*
X263032Y306851D01*
X262000Y306987D01*
X260968Y306851D01*
X260215Y306539D01*
X234845D01*
X234282Y307102D01*
X234473Y307564D01*
X236646D01*
Y309836D01*
X233193D01*
Y308844D01*
X232731Y308653D01*
X229560Y311824D01*
X229555Y311851D01*
X229072Y312573D01*
X228351Y313055D01*
X227500Y313224D01*
X226649Y313055D01*
X225927Y312573D01*
X225445Y311851D01*
X225276Y311000D01*
X225445Y310149D01*
X225927Y309427D01*
X226649Y308945D01*
X226676Y308940D01*
X232558Y303058D01*
X232844Y302867D01*
X233193Y302512D01*
Y301779D01*
X230476D01*
X221807Y310448D01*
Y313107D01*
X214024D01*
X213758Y313548D01*
X215681Y315471D01*
X239500D01*
X240085Y315587D01*
X240581Y315919D01*
X243032Y318369D01*
X243239Y318339D01*
X243531Y318192D01*
Y317226D01*
X246000D01*
Y319998D01*
Y322770D01*
X243778Y322770D01*
X243633Y323270D01*
X244419Y324056D01*
X250430D01*
X255935Y318551D01*
X255925Y318500D01*
X256094Y317649D01*
X256576Y316928D01*
X257298Y316445D01*
X258149Y316276D01*
X259000Y316445D01*
X259721Y316928D01*
X260204Y317649D01*
X260373Y318500D01*
X260204Y319351D01*
X259721Y320073D01*
X259000Y320555D01*
X258149Y320724D01*
X258098Y320714D01*
X252145Y326667D01*
X251648Y326999D01*
X251063Y327115D01*
X243786D01*
X243200Y326999D01*
X242704Y326667D01*
X241560Y325523D01*
X241098Y325715D01*
Y326099D01*
X237413D01*
X237187Y326599D01*
X237555Y327149D01*
X237624Y327500D01*
X233376D01*
X233445Y327149D01*
X233813Y326599D01*
X233587Y326099D01*
X233193D01*
Y325367D01*
X230476D01*
X221807Y334035D01*
Y336695D01*
X215141D01*
Y342499D01*
X216785Y344144D01*
X221807D01*
Y349687D01*
X218447D01*
Y351687D01*
X218447Y351687D01*
X218292Y352467D01*
X217850Y353129D01*
X216702Y354277D01*
X216893Y354739D01*
X218923D01*
X228189Y345473D01*
X228851Y345031D01*
X229631Y344876D01*
X233193D01*
Y344144D01*
X241098D01*
Y349687D01*
X233193D01*
Y348955D01*
X230476D01*
X221807Y357623D01*
Y360282D01*
X215141D01*
Y366087D01*
X216785Y367731D01*
X220644D01*
X220922Y367231D01*
X220776Y366500D01*
X220945Y365649D01*
X221427Y364928D01*
X222149Y364445D01*
X223000Y364276D01*
X223259Y364328D01*
X227823Y359764D01*
X227945Y359149D01*
X228428Y358428D01*
X229149Y357945D01*
X230000Y357776D01*
X230851Y357945D01*
X231573Y358428D01*
X232055Y359149D01*
X232224Y360000D01*
X232055Y360851D01*
X231573Y361573D01*
X230851Y362055D01*
X230000Y362224D01*
X229741Y362172D01*
X225177Y366736D01*
X225055Y367351D01*
X224572Y368073D01*
X223851Y368555D01*
X223000Y368724D01*
X222307Y368586D01*
X221807Y368882D01*
Y373275D01*
X218447D01*
Y375274D01*
X218447Y375275D01*
X218292Y376055D01*
X217850Y376716D01*
X216702Y377865D01*
X216893Y378327D01*
X218923D01*
X228189Y369061D01*
X228851Y368619D01*
X229631Y368464D01*
X233193D01*
Y367731D01*
X241098D01*
Y373275D01*
X233193D01*
Y372542D01*
X230476D01*
X221807Y381211D01*
Y383870D01*
X215141D01*
Y389674D01*
X216785Y391319D01*
X221807D01*
Y396142D01*
X222269Y396333D01*
X225954Y392649D01*
X226615Y392207D01*
X227396Y392051D01*
X227396Y392051D01*
X233193D01*
Y391319D01*
X241098D01*
Y396862D01*
X233193D01*
Y396130D01*
X228240D01*
X216838Y407532D01*
X216176Y407974D01*
X215396Y408130D01*
X209598D01*
Y408862D01*
D02*
G37*
G36*
X134000Y396425D02*
X131630D01*
Y394252D01*
X134000D01*
Y396425D01*
D02*
G37*
G36*
X198000Y394176D02*
Y392551D01*
X199624D01*
X199555Y392902D01*
X199073Y393624D01*
X198351Y394106D01*
X198000Y394176D01*
D02*
G37*
G36*
X197000D02*
X196649Y394106D01*
X195928Y393624D01*
X195446Y392902D01*
X195376Y392551D01*
X197000D01*
Y394176D01*
D02*
G37*
G36*
X249468Y394020D02*
X247000D01*
Y391748D01*
X249468D01*
Y394020D01*
D02*
G37*
G36*
X246000D02*
X243531D01*
Y391748D01*
X246000D01*
Y394020D01*
D02*
G37*
G36*
X199624Y391551D02*
X198000D01*
Y389927D01*
X198351Y389997D01*
X199073Y390479D01*
X199555Y391200D01*
X199624Y391551D01*
D02*
G37*
G36*
X197000D02*
X195376D01*
X195446Y391200D01*
X195928Y390479D01*
X196649Y389997D01*
X197000Y389927D01*
Y391551D01*
D02*
G37*
G36*
X249468Y390748D02*
X247000D01*
Y388476D01*
X249468D01*
Y390748D01*
D02*
G37*
G36*
X246000D02*
X243531D01*
Y388476D01*
X246000D01*
Y390748D01*
D02*
G37*
G36*
X230500Y389351D02*
Y387726D01*
X232124D01*
X232055Y388077D01*
X231573Y388799D01*
X230851Y389281D01*
X230500Y389351D01*
D02*
G37*
G36*
X229500D02*
X229149Y389281D01*
X228428Y388799D01*
X227945Y388077D01*
X227876Y387726D01*
X229500D01*
Y389351D01*
D02*
G37*
G36*
X232124Y386726D02*
X230500D01*
Y385102D01*
X230851Y385172D01*
X231573Y385654D01*
X232055Y386375D01*
X232124Y386726D01*
D02*
G37*
G36*
X229500D02*
X227876D01*
X227945Y386375D01*
X228428Y385654D01*
X229149Y385172D01*
X229500Y385102D01*
Y386726D01*
D02*
G37*
G36*
X190307Y385227D02*
X186854D01*
Y382956D01*
X190307D01*
Y385227D01*
D02*
G37*
G36*
X185854D02*
X182402D01*
Y382956D01*
X185854D01*
Y385227D01*
D02*
G37*
G36*
X239098Y383909D02*
X238901Y383870D01*
X237646D01*
Y381598D01*
X241098D01*
Y381673D01*
X241138Y381870D01*
X241098Y382067D01*
Y383870D01*
X239296D01*
X239098Y383909D01*
D02*
G37*
G36*
X236646Y383870D02*
X233193D01*
Y381598D01*
X236646D01*
Y383870D01*
D02*
G37*
G36*
X179969Y382141D02*
X177500D01*
Y379869D01*
X179969D01*
Y382141D01*
D02*
G37*
G36*
X190307Y395870D02*
X182402D01*
Y390327D01*
X187423D01*
X196736Y381014D01*
X197398Y380572D01*
X198178Y380416D01*
X201693D01*
Y379684D01*
X209598D01*
Y385227D01*
X201693D01*
Y384495D01*
X199023D01*
X190307Y393211D01*
Y395870D01*
D02*
G37*
G36*
Y381956D02*
X186854D01*
Y379684D01*
X190307D01*
Y381956D01*
D02*
G37*
G36*
X185854D02*
X182402D01*
Y379684D01*
X185854D01*
Y381956D01*
D02*
G37*
G36*
X241098Y380598D02*
X237646D01*
Y378327D01*
X241098D01*
Y380598D01*
D02*
G37*
G36*
X236646D02*
X233193D01*
Y378327D01*
X236646D01*
Y380598D01*
D02*
G37*
G36*
X121000Y379124D02*
X120649Y379055D01*
X119928Y378573D01*
X119446Y377851D01*
X119376Y377500D01*
X121000D01*
Y379124D01*
D02*
G37*
G36*
X179969Y378869D02*
X177500D01*
Y376597D01*
X179969D01*
Y378869D01*
D02*
G37*
G36*
X176500D02*
X174031D01*
Y376597D01*
X176500D01*
Y378869D01*
D02*
G37*
G36*
X210500Y376624D02*
X210149Y376555D01*
X209427Y376073D01*
X208945Y375351D01*
X208876Y375000D01*
X210500D01*
Y376624D01*
D02*
G37*
G36*
X121000Y376500D02*
X119376D01*
X119446Y376149D01*
X119928Y375428D01*
X120649Y374945D01*
X121000Y374876D01*
Y376500D01*
D02*
G37*
G36*
X275000Y375399D02*
Y373775D01*
X276624D01*
X276555Y374126D01*
X276073Y374847D01*
X275351Y375329D01*
X275000Y375399D01*
D02*
G37*
G36*
X274000D02*
X273649Y375329D01*
X272927Y374847D01*
X272445Y374126D01*
X272376Y373775D01*
X274000D01*
Y375399D01*
D02*
G37*
G36*
X276624Y372775D02*
X275000D01*
Y371150D01*
X275351Y371220D01*
X276073Y371702D01*
X276555Y372424D01*
X276624Y372775D01*
D02*
G37*
G36*
X274000D02*
X272376D01*
X272445Y372424D01*
X272927Y371702D01*
X273649Y371220D01*
X274000Y371150D01*
Y372775D01*
D02*
G37*
G36*
X249468Y387720D02*
X243531D01*
Y382177D01*
X244461D01*
Y378135D01*
X244616Y377355D01*
X245058Y376693D01*
X249231Y372520D01*
X249237Y372493D01*
X249719Y371771D01*
X250440Y371289D01*
X251291Y371120D01*
X252142Y371289D01*
X252864Y371771D01*
X253346Y372493D01*
X253515Y373344D01*
X253346Y374195D01*
X252864Y374916D01*
X252142Y375398D01*
X252115Y375404D01*
X248539Y378980D01*
Y382177D01*
X249468D01*
Y387720D01*
D02*
G37*
G36*
Y370270D02*
X247000D01*
Y367998D01*
X249468D01*
Y370270D01*
D02*
G37*
G36*
X246000D02*
X243531D01*
Y367998D01*
X246000D01*
Y370270D01*
D02*
G37*
G36*
X264906Y372953D02*
X257000D01*
Y365047D01*
X264906D01*
Y372953D01*
D02*
G37*
G36*
X249468Y366998D02*
X247000D01*
Y364726D01*
X249468D01*
Y366998D01*
D02*
G37*
G36*
X246000D02*
X243531D01*
Y364726D01*
X246000D01*
Y366998D01*
D02*
G37*
G36*
X190307Y361593D02*
X186854D01*
Y359321D01*
X190307D01*
Y361593D01*
D02*
G37*
G36*
X185854D02*
X182402D01*
Y359321D01*
X185854D01*
Y361593D01*
D02*
G37*
G36*
X131938Y370724D02*
X131087Y370555D01*
X130365Y370073D01*
X129883Y369351D01*
X129714Y368500D01*
X129883Y367649D01*
X130365Y366928D01*
X130857Y366599D01*
X131662Y365794D01*
Y363598D01*
X131701Y363401D01*
Y358874D01*
X138425D01*
Y365598D01*
X135740D01*
Y366639D01*
X135585Y367419D01*
X135143Y368081D01*
X135143Y368081D01*
X134022Y369201D01*
X133992Y369351D01*
X133510Y370073D01*
X132789Y370555D01*
X131938Y370724D01*
D02*
G37*
G36*
X239098Y360322D02*
X238901Y360282D01*
X237646D01*
Y358011D01*
X241098D01*
Y358085D01*
X241138Y358282D01*
X241098Y358479D01*
Y360282D01*
X239296D01*
X239098Y360322D01*
D02*
G37*
G36*
X236646Y360282D02*
X233193D01*
Y358011D01*
X236646D01*
Y360282D01*
D02*
G37*
G36*
X190307Y372235D02*
X182402D01*
Y366692D01*
X187423D01*
X196736Y357379D01*
X197398Y356937D01*
X198178Y356782D01*
X201693D01*
Y356049D01*
X209598D01*
Y361593D01*
X201693D01*
Y360860D01*
X199023D01*
X190307Y369576D01*
Y372235D01*
D02*
G37*
G36*
Y358321D02*
X186854D01*
Y356049D01*
X190307D01*
Y358321D01*
D02*
G37*
G36*
X185854D02*
X182402D01*
Y356049D01*
X185854D01*
Y358321D01*
D02*
G37*
G36*
X179969Y358266D02*
X177500D01*
Y355994D01*
X179969D01*
Y358266D01*
D02*
G37*
G36*
X176500D02*
X174031D01*
Y355994D01*
X176500D01*
Y358266D01*
D02*
G37*
G36*
X260953Y362987D02*
X259921Y362851D01*
X258959Y362453D01*
X258134Y361819D01*
X257500Y360993D01*
X257102Y360032D01*
X256966Y359000D01*
X257102Y357968D01*
X257500Y357007D01*
X258134Y356181D01*
X258959Y355547D01*
X259921Y355149D01*
X260953Y355013D01*
X261985Y355149D01*
X262946Y355547D01*
X263772Y356181D01*
X264405Y357007D01*
X264804Y357968D01*
X264940Y359000D01*
X264804Y360032D01*
X264405Y360993D01*
X263772Y361819D01*
X262946Y362453D01*
X261985Y362851D01*
X260953Y362987D01*
D02*
G37*
G36*
X241098Y357011D02*
X237646D01*
Y354739D01*
X241098D01*
Y357011D01*
D02*
G37*
G36*
X236646D02*
X233193D01*
Y354739D01*
X236646D01*
Y357011D01*
D02*
G37*
G36*
X179969Y354994D02*
X177500D01*
Y352722D01*
X179969D01*
Y354994D01*
D02*
G37*
G36*
X176500D02*
X174031D01*
Y352722D01*
X176500D01*
Y354994D01*
D02*
G37*
G36*
X249468Y363970D02*
X243531D01*
Y358427D01*
X244461D01*
Y354874D01*
X244445Y354851D01*
X244276Y354000D01*
X244445Y353149D01*
X244928Y352428D01*
X245649Y351945D01*
X246500Y351776D01*
X247351Y351945D01*
X248073Y352428D01*
X248555Y353149D01*
X248724Y354000D01*
X248555Y354851D01*
X248539Y354874D01*
Y358427D01*
X249468D01*
Y363970D01*
D02*
G37*
G36*
X194500Y348496D02*
Y346872D01*
X196124D01*
X196054Y347223D01*
X195572Y347944D01*
X194851Y348427D01*
X194500Y348496D01*
D02*
G37*
G36*
X193500D02*
X193149Y348427D01*
X192428Y347944D01*
X191946Y347223D01*
X191876Y346872D01*
X193500D01*
Y348496D01*
D02*
G37*
G36*
X249468Y346520D02*
X247000D01*
Y344248D01*
X249468D01*
Y346520D01*
D02*
G37*
G36*
X246000D02*
X243531D01*
Y344248D01*
X246000D01*
Y346520D01*
D02*
G37*
G36*
X196124Y345872D02*
X194500D01*
Y344248D01*
X194851Y344318D01*
X195572Y344799D01*
X196054Y345521D01*
X196124Y345872D01*
D02*
G37*
G36*
X193500D02*
X191876D01*
X191946Y345521D01*
X192428Y344799D01*
X193149Y344318D01*
X193500Y344248D01*
Y345872D01*
D02*
G37*
G36*
X249468Y343248D02*
X247000D01*
Y340976D01*
X249468D01*
Y343248D01*
D02*
G37*
G36*
X246000D02*
X243531D01*
Y340976D01*
X246000D01*
Y343248D01*
D02*
G37*
G36*
X190307Y337958D02*
X186854D01*
Y335686D01*
X190307D01*
Y337958D01*
D02*
G37*
G36*
X185854D02*
X182402D01*
Y335686D01*
X185854D01*
Y337958D01*
D02*
G37*
G36*
X249468Y340220D02*
X243531D01*
Y334677D01*
X249468D01*
Y335410D01*
X265180D01*
X265851Y335276D01*
X266702Y335445D01*
X267424Y335928D01*
X267906Y336649D01*
X268075Y337500D01*
X267906Y338351D01*
X267424Y339072D01*
X266702Y339555D01*
X265851Y339724D01*
X265000Y339555D01*
X264900Y339488D01*
X249468D01*
Y340220D01*
D02*
G37*
G36*
X241098Y336695D02*
X237646D01*
Y334423D01*
X241098D01*
Y336695D01*
D02*
G37*
G36*
X236646D02*
X233193D01*
Y334423D01*
X236646D01*
Y336695D01*
D02*
G37*
G36*
X190307Y348600D02*
X182402D01*
Y343057D01*
X187423D01*
X196736Y333744D01*
X197398Y333302D01*
X198178Y333147D01*
X201693D01*
Y332414D01*
X209598D01*
Y337958D01*
X201693D01*
Y337225D01*
X199023D01*
X190307Y345941D01*
Y348600D01*
D02*
G37*
G36*
Y334686D02*
X186854D01*
Y332414D01*
X190307D01*
Y334686D01*
D02*
G37*
G36*
X185854D02*
X182402D01*
Y332414D01*
X185854D01*
Y334686D01*
D02*
G37*
G36*
X179969Y334391D02*
X177500D01*
Y332119D01*
X179969D01*
Y334391D01*
D02*
G37*
G36*
X241098Y333423D02*
X237146D01*
X233193D01*
Y331152D01*
X233530D01*
Y328978D01*
X233445Y328851D01*
X233376Y328500D01*
X237624D01*
X237609Y328580D01*
Y331152D01*
X241098D01*
Y333423D01*
D02*
G37*
G36*
X247000Y322770D02*
Y320498D01*
X249468D01*
Y322770D01*
X247000D01*
D02*
G37*
G36*
X249468Y319498D02*
X247000D01*
Y317226D01*
X249468D01*
Y319498D01*
D02*
G37*
G36*
X288000Y324487D02*
X286968Y324351D01*
X286007Y323953D01*
X285181Y323319D01*
X284547Y322493D01*
X284149Y321532D01*
X284013Y320500D01*
X284149Y319468D01*
X284547Y318507D01*
X285181Y317681D01*
X286007Y317047D01*
X286968Y316649D01*
X288000Y316513D01*
X289032Y316649D01*
X289993Y317047D01*
X290819Y317681D01*
X291453Y318507D01*
X291851Y319468D01*
X291987Y320500D01*
X291851Y321532D01*
X291453Y322493D01*
X290819Y323319D01*
X289993Y323953D01*
X289032Y324351D01*
X288000Y324487D01*
D02*
G37*
G36*
X190307Y314323D02*
X186854D01*
Y312051D01*
X190307D01*
Y314323D01*
D02*
G37*
G36*
X239098Y313146D02*
X238901Y313107D01*
X237646D01*
Y310836D01*
X241098D01*
Y310910D01*
X241138Y311107D01*
X241098Y311304D01*
Y313107D01*
X239296D01*
X239098Y313146D01*
D02*
G37*
G36*
X236646Y313107D02*
X233193D01*
Y310836D01*
X236646D01*
Y313107D01*
D02*
G37*
G36*
X190307Y324966D02*
X182402D01*
Y319422D01*
X187423D01*
X196736Y310109D01*
X197398Y309667D01*
X198178Y309512D01*
X201693D01*
Y308780D01*
X209598D01*
Y314323D01*
X201693D01*
Y313590D01*
X199023D01*
X190307Y322306D01*
Y324966D01*
D02*
G37*
G36*
Y311051D02*
X186854D01*
Y308780D01*
X190307D01*
Y311051D01*
D02*
G37*
G36*
X176500Y310516D02*
X174031D01*
Y308244D01*
X176500D01*
Y310516D01*
D02*
G37*
G36*
X241098Y309836D02*
X237646D01*
Y307564D01*
X241098D01*
Y309836D01*
D02*
G37*
G36*
X288000Y314487D02*
X286968Y314351D01*
X286007Y313953D01*
X285181Y313319D01*
X284547Y312493D01*
X284257Y311792D01*
X283151D01*
X282370Y311637D01*
X281709Y311195D01*
X279058Y308544D01*
X278616Y307882D01*
X278461Y307102D01*
Y279845D01*
X276655Y278039D01*
X226621D01*
X221146Y283514D01*
X221337Y283976D01*
X221807D01*
Y289520D01*
X213902D01*
Y283976D01*
X216239D01*
Y283498D01*
X216395Y282717D01*
X216837Y282056D01*
X224334Y274558D01*
X224996Y274116D01*
X225776Y273961D01*
X225776Y273961D01*
X277500D01*
X278280Y274116D01*
X278942Y274558D01*
X281942Y277558D01*
X282384Y278220D01*
X282539Y279000D01*
Y306257D01*
X283995Y307714D01*
X285156D01*
X285181Y307681D01*
X286007Y307047D01*
X286968Y306649D01*
X288000Y306513D01*
X289032Y306649D01*
X289993Y307047D01*
X290819Y307681D01*
X291453Y308507D01*
X291851Y309468D01*
X291987Y310500D01*
X291851Y311532D01*
X291453Y312493D01*
X290819Y313319D01*
X289993Y313953D01*
X289032Y314351D01*
X288000Y314487D01*
D02*
G37*
G36*
X176500Y307244D02*
X174031D01*
Y304972D01*
X176500D01*
Y307244D01*
D02*
G37*
G36*
X221807Y302512D02*
X213902D01*
Y301189D01*
X209598D01*
Y301331D01*
X201693D01*
Y300598D01*
X197713D01*
X197000Y300740D01*
X196149Y300571D01*
X195428Y300089D01*
X194946Y299367D01*
X194776Y298516D01*
X194946Y297665D01*
X195428Y296944D01*
X196149Y296462D01*
X197000Y296292D01*
X197851Y296462D01*
X197938Y296520D01*
X201693D01*
Y295787D01*
X209598D01*
Y297110D01*
X213902D01*
Y296969D01*
X221807D01*
Y302512D01*
D02*
G37*
G36*
X291953Y304453D02*
X288500D01*
Y301000D01*
X291953D01*
Y304453D01*
D02*
G37*
G36*
X287500D02*
X284047D01*
Y301000D01*
X287500D01*
Y304453D01*
D02*
G37*
G36*
X249468Y316471D02*
X243531D01*
Y310927D01*
X249468D01*
Y311660D01*
X265008D01*
X269812Y306856D01*
X269782Y306280D01*
X269181Y305819D01*
X268547Y304993D01*
X268149Y304032D01*
X268013Y303000D01*
X268149Y301968D01*
X268547Y301007D01*
X269181Y300181D01*
X270007Y299547D01*
X270968Y299149D01*
X272000Y299013D01*
X273032Y299149D01*
X273993Y299547D01*
X274819Y300181D01*
X275453Y301007D01*
X275851Y301968D01*
X275987Y303000D01*
X275851Y304032D01*
X275453Y304993D01*
X274819Y305819D01*
X274039Y306418D01*
Y307551D01*
X273884Y308331D01*
X273442Y308993D01*
X267294Y315141D01*
X266633Y315583D01*
X265852Y315738D01*
X249468D01*
Y316471D01*
D02*
G37*
G36*
Y299020D02*
X247000D01*
Y296748D01*
X249468D01*
Y299020D01*
D02*
G37*
G36*
X246000D02*
X243531D01*
Y296748D01*
X246000D01*
Y299020D01*
D02*
G37*
G36*
X291953Y300000D02*
X288500D01*
Y296547D01*
X291953D01*
Y300000D01*
D02*
G37*
G36*
X287500D02*
X284047D01*
Y296547D01*
X287500D01*
Y300000D01*
D02*
G37*
G36*
X249468Y295748D02*
X247000D01*
Y293476D01*
X249468D01*
Y295748D01*
D02*
G37*
G36*
X246000D02*
X243531D01*
Y293476D01*
X246000D01*
Y295748D01*
D02*
G37*
G36*
X253416Y294724D02*
X252565Y294555D01*
X251843Y294073D01*
X251515Y293581D01*
X250624Y292690D01*
X249468D01*
Y292721D01*
X243531D01*
Y287177D01*
X249468D01*
Y288612D01*
X251468D01*
X252249Y288767D01*
X252910Y289209D01*
X254117Y290416D01*
X254267Y290445D01*
X254988Y290928D01*
X255470Y291649D01*
X255640Y292500D01*
X255470Y293351D01*
X254988Y294073D01*
X254267Y294555D01*
X253416Y294724D01*
D02*
G37*
G36*
X138925Y293624D02*
Y292000D01*
X140550D01*
X140480Y292351D01*
X139998Y293073D01*
X139276Y293555D01*
X138925Y293624D01*
D02*
G37*
G36*
X137925D02*
X137574Y293555D01*
X136853Y293073D01*
X136371Y292351D01*
X136301Y292000D01*
X137925D01*
Y293624D01*
D02*
G37*
G36*
X140550Y291000D02*
X138925D01*
Y289376D01*
X139276Y289445D01*
X139998Y289928D01*
X140480Y290649D01*
X140550Y291000D01*
D02*
G37*
G36*
X137925D02*
X136301D01*
X136371Y290649D01*
X136853Y289928D01*
X137574Y289445D01*
X137925Y289376D01*
Y291000D01*
D02*
G37*
G36*
X272000Y296987D02*
X270968Y296851D01*
X270007Y296453D01*
X269181Y295819D01*
X268547Y294993D01*
X268149Y294032D01*
X268013Y293000D01*
X268149Y291968D01*
X268547Y291007D01*
X269181Y290181D01*
X270007Y289547D01*
X270968Y289149D01*
X272000Y289013D01*
X273032Y289149D01*
X273993Y289547D01*
X274819Y290181D01*
X275453Y291007D01*
X275851Y291968D01*
X275987Y293000D01*
X275851Y294032D01*
X275453Y294993D01*
X274819Y295819D01*
X273993Y296453D01*
X273032Y296851D01*
X272000Y296987D01*
D02*
G37*
G36*
X262000D02*
X260968Y296851D01*
X260007Y296453D01*
X259181Y295819D01*
X258547Y294993D01*
X258149Y294032D01*
X258013Y293000D01*
X258141Y292025D01*
X250655Y284539D01*
X246874D01*
X246851Y284555D01*
X246000Y284724D01*
X245149Y284555D01*
X244427Y284072D01*
X243945Y283351D01*
X243776Y282500D01*
X243945Y281649D01*
X244427Y280927D01*
X245149Y280445D01*
X246000Y280276D01*
X246851Y280445D01*
X246874Y280461D01*
X251500D01*
X252280Y280616D01*
X252942Y281058D01*
X257585Y285701D01*
X258047Y285510D01*
Y279047D01*
X265953D01*
Y286953D01*
X259490D01*
X259298Y287415D01*
X261025Y289142D01*
X262000Y289013D01*
X263032Y289149D01*
X263993Y289547D01*
X264819Y290181D01*
X265453Y291007D01*
X265851Y291968D01*
X265987Y293000D01*
X265851Y294032D01*
X265453Y294993D01*
X264819Y295819D01*
X263993Y296453D01*
X263032Y296851D01*
X262000Y296987D01*
D02*
G37*
G36*
X177469Y291524D02*
X171531D01*
Y287454D01*
X171070Y287263D01*
X169468Y288864D01*
Y291524D01*
X163531D01*
Y285980D01*
X166585D01*
X173558Y279007D01*
X173547Y278993D01*
X173149Y278032D01*
X173013Y277000D01*
X173149Y275968D01*
X173547Y275007D01*
X174181Y274181D01*
X175007Y273547D01*
X175968Y273149D01*
X177000Y273013D01*
X178032Y273149D01*
X178993Y273547D01*
X179819Y274181D01*
X180453Y275007D01*
X180851Y275968D01*
X180987Y277000D01*
X180851Y278032D01*
X180453Y278993D01*
X179819Y279819D01*
X178993Y280453D01*
X178032Y280851D01*
X177398Y280934D01*
X172814Y285518D01*
X173006Y285980D01*
X174585D01*
X183077Y277488D01*
X183013Y277000D01*
X183149Y275968D01*
X183547Y275007D01*
X184181Y274181D01*
X185007Y273547D01*
X185968Y273149D01*
X187000Y273013D01*
X188032Y273149D01*
X188993Y273547D01*
X189819Y274181D01*
X190453Y275007D01*
X190851Y275968D01*
X190987Y277000D01*
X190851Y278032D01*
X190453Y278993D01*
X189819Y279819D01*
X188993Y280453D01*
X188032Y280851D01*
X187000Y280987D01*
X185968Y280851D01*
X185624Y280709D01*
X177469Y288864D01*
Y291524D01*
D02*
G37*
G36*
X241098Y289520D02*
X237646D01*
Y287248D01*
X241098D01*
Y289520D01*
D02*
G37*
G36*
X236646D02*
X233193D01*
Y287248D01*
X236646D01*
Y289520D01*
D02*
G37*
G36*
X156468Y291524D02*
X150531D01*
Y287403D01*
X150070Y287212D01*
X148468Y288813D01*
Y291472D01*
X142532D01*
Y285929D01*
X145585D01*
X150099Y281415D01*
X149908Y280953D01*
X143047D01*
Y273047D01*
X150953D01*
Y279908D01*
X151415Y280099D01*
X153246Y278267D01*
X153149Y278032D01*
X153013Y277000D01*
X153149Y275968D01*
X153547Y275007D01*
X154181Y274181D01*
X155007Y273547D01*
X155968Y273149D01*
X157000Y273013D01*
X158032Y273149D01*
X158993Y273547D01*
X159819Y274181D01*
X160453Y275007D01*
X160851Y275968D01*
X160987Y277000D01*
X160855Y278003D01*
X160888Y278042D01*
X161339Y278226D01*
X163081Y276484D01*
X163149Y275968D01*
X163547Y275007D01*
X164181Y274181D01*
X165007Y273547D01*
X165968Y273149D01*
X167000Y273013D01*
X168032Y273149D01*
X168993Y273547D01*
X169819Y274181D01*
X170453Y275007D01*
X170851Y275968D01*
X170987Y277000D01*
X170851Y278032D01*
X170453Y278993D01*
X169819Y279819D01*
X168993Y280453D01*
X168032Y280851D01*
X167000Y280987D01*
X165968Y280851D01*
X165007Y280453D01*
X164935Y280398D01*
X156468Y288864D01*
Y291524D01*
D02*
G37*
G36*
X205000Y286624D02*
Y285000D01*
X206624D01*
X206555Y285351D01*
X206072Y286072D01*
X205351Y286555D01*
X205000Y286624D01*
D02*
G37*
G36*
X204000D02*
X203649Y286555D01*
X202927Y286072D01*
X202446Y285351D01*
X202376Y285000D01*
X204000D01*
Y286624D01*
D02*
G37*
G36*
X241098Y286248D02*
X237646D01*
Y283976D01*
X241098D01*
Y286248D01*
D02*
G37*
G36*
X236646D02*
X233193D01*
Y283976D01*
X236646D01*
Y286248D01*
D02*
G37*
G36*
X272500Y286921D02*
Y283500D01*
X275921D01*
X275851Y284032D01*
X275453Y284993D01*
X274819Y285819D01*
X273993Y286453D01*
X273032Y286851D01*
X272500Y286921D01*
D02*
G37*
G36*
X271500D02*
X270968Y286851D01*
X270007Y286453D01*
X269181Y285819D01*
X268547Y284993D01*
X268149Y284032D01*
X268079Y283500D01*
X271500D01*
Y286921D01*
D02*
G37*
G36*
X206624Y284000D02*
X205000D01*
Y282376D01*
X205351Y282445D01*
X206072Y282927D01*
X206555Y283649D01*
X206624Y284000D01*
D02*
G37*
G36*
X204000D02*
X202376D01*
X202446Y283649D01*
X202927Y282927D01*
X203649Y282445D01*
X204000Y282376D01*
Y284000D01*
D02*
G37*
G36*
X275921Y282500D02*
X272500D01*
Y279079D01*
X273032Y279149D01*
X273993Y279547D01*
X274819Y280181D01*
X275453Y281007D01*
X275851Y281968D01*
X275921Y282500D01*
D02*
G37*
G36*
X271500D02*
X268079D01*
X268149Y281968D01*
X268547Y281007D01*
X269181Y280181D01*
X270007Y279547D01*
X270968Y279149D01*
X271500Y279079D01*
Y282500D01*
D02*
G37*
%LPD*%
D12*
X157295Y301876D02*
Y306500D01*
Y301876D02*
X161172Y298000D01*
X144114Y306886D02*
X144500Y306500D01*
X136071Y306886D02*
X144114D01*
X136000Y306957D02*
X136071Y306886D01*
X242000Y323800D02*
X243786Y325586D01*
X242000Y319500D02*
Y323800D01*
X239500Y317000D02*
X242000Y319500D01*
X251063Y325586D02*
X258149Y318500D01*
X243786Y325586D02*
X251063D01*
X215047Y317000D02*
X239500D01*
X212000Y313953D02*
X215047Y317000D01*
X212000Y307649D02*
Y313953D01*
X209157Y304806D02*
X212000Y307649D01*
X183545Y304806D02*
X209157D01*
X181500Y306851D02*
X183545Y304806D01*
X178953Y313500D02*
X181500Y310953D01*
Y306851D02*
Y310953D01*
X155567Y313500D02*
X178953D01*
X152550Y310483D02*
X155567Y313500D01*
X152550Y306873D02*
Y310483D01*
X152177Y306500D02*
X152550Y306873D01*
X152534Y296017D02*
X153500Y295051D01*
X152534Y296017D02*
Y297966D01*
X149618Y300882D02*
X152534Y297966D01*
X154736Y300000D02*
Y306500D01*
X229750Y360000D02*
X230000D01*
X223250Y366500D02*
X229750Y360000D01*
X223000Y366500D02*
X223250D01*
X136000Y314043D02*
X141500D01*
X144500Y317043D01*
Y334846D01*
X166902Y348850D02*
X167000Y348752D01*
Y343000D02*
Y348752D01*
X154736Y328500D02*
Y334846D01*
X145924Y339591D02*
X146686Y338830D01*
Y335220D02*
Y338830D01*
X136591Y339591D02*
X145924D01*
X136000Y339000D02*
X136591Y339591D01*
X149618Y334846D02*
Y340553D01*
X148580Y341591D02*
X149618Y340553D01*
X127086Y341591D02*
X148580D01*
X152177Y334846D02*
Y340823D01*
X149252Y343748D02*
X152177Y340823D01*
X139752Y343748D02*
X149252D01*
X139000Y344500D02*
X139752Y343748D01*
X136000Y335650D02*
Y339000D01*
X146686Y335220D02*
X147059Y334846D01*
X126500Y342177D02*
X127086Y341591D01*
X126500Y342177D02*
Y348850D01*
X139000Y344500D02*
Y349441D01*
X151500Y345500D02*
X157209Y339791D01*
Y334933D02*
Y339791D01*
Y334933D02*
X157295Y334846D01*
X151500Y345500D02*
Y348850D01*
X159224D02*
X159854Y348220D01*
Y334846D02*
Y348220D01*
Y302146D02*
Y306500D01*
Y302146D02*
X162000Y300000D01*
X161172Y298000D02*
X165414D01*
X162000Y300000D02*
X169354D01*
X165414Y298000D02*
X166000Y297414D01*
Y295551D02*
Y297414D01*
Y295551D02*
X166500Y295051D01*
X169354Y300000D02*
X174303Y295051D01*
X174500D01*
X149618Y300882D02*
Y306500D01*
X145500Y295000D02*
Y299150D01*
X147059Y300709D01*
Y306500D01*
D31*
X246500Y391248D02*
D03*
Y384949D02*
D03*
Y367498D02*
D03*
Y361199D02*
D03*
Y343748D02*
D03*
Y337449D02*
D03*
Y319998D02*
D03*
Y313699D02*
D03*
Y296248D02*
D03*
Y289949D02*
D03*
X177000Y403244D02*
D03*
Y396945D02*
D03*
Y379369D02*
D03*
Y373070D02*
D03*
Y331619D02*
D03*
Y325320D02*
D03*
Y307744D02*
D03*
Y301445D02*
D03*
Y355494D02*
D03*
Y349195D02*
D03*
X136000Y329350D02*
D03*
Y335650D02*
D03*
X126500Y355150D02*
D03*
Y348850D02*
D03*
X166902Y355150D02*
D03*
Y348850D02*
D03*
X159224Y355150D02*
D03*
Y348850D02*
D03*
X151500Y355150D02*
D03*
Y348850D02*
D03*
X145500Y295000D02*
D03*
Y288701D02*
D03*
X153500Y295051D02*
D03*
Y288752D02*
D03*
X166500Y295051D02*
D03*
Y288752D02*
D03*
X174500Y295051D02*
D03*
Y288752D02*
D03*
D32*
X166559Y384650D02*
D03*
D33*
X143331Y375594D02*
D03*
Y384650D02*
D03*
Y393705D02*
D03*
D34*
X134500Y379953D02*
D03*
Y374047D02*
D03*
D35*
X135063Y362236D02*
D03*
X142937D02*
D03*
D36*
X139000Y349441D02*
D03*
D37*
X126500Y388099D02*
D03*
Y394398D02*
D03*
D38*
X126500Y374244D02*
D03*
Y379756D02*
D03*
D39*
X144500Y306500D02*
D03*
X147059D02*
D03*
X149618D02*
D03*
X152177D02*
D03*
X154736D02*
D03*
X157295D02*
D03*
X159854D02*
D03*
X162413D02*
D03*
X164972D02*
D03*
X167532D02*
D03*
X144500Y334846D02*
D03*
X147059D02*
D03*
X149618D02*
D03*
X152177D02*
D03*
X154736D02*
D03*
X157295D02*
D03*
X159854D02*
D03*
X162413D02*
D03*
X164972D02*
D03*
X167532D02*
D03*
D40*
X136000Y314043D02*
D03*
Y306957D02*
D03*
D41*
X186354Y406090D02*
D03*
Y393098D02*
D03*
X205646D02*
D03*
Y406090D02*
D03*
X237146Y286748D02*
D03*
Y299740D02*
D03*
X217854D02*
D03*
Y286748D02*
D03*
X186354Y382456D02*
D03*
Y369464D02*
D03*
X205646D02*
D03*
Y382456D02*
D03*
X237146Y310336D02*
D03*
Y323328D02*
D03*
X217854D02*
D03*
Y310336D02*
D03*
X186354Y358821D02*
D03*
Y345829D02*
D03*
X205646D02*
D03*
Y358821D02*
D03*
X237146Y333923D02*
D03*
Y346915D02*
D03*
X217854D02*
D03*
Y333923D02*
D03*
X186354Y335186D02*
D03*
Y322194D02*
D03*
X205646D02*
D03*
Y335186D02*
D03*
X237146Y357511D02*
D03*
Y370503D02*
D03*
X217854D02*
D03*
Y357511D02*
D03*
X186354Y311551D02*
D03*
Y298559D02*
D03*
X205646D02*
D03*
Y311551D02*
D03*
X237146Y381098D02*
D03*
Y394091D02*
D03*
X217854D02*
D03*
Y381098D02*
D03*
D42*
X134500Y393752D02*
D03*
Y388437D02*
D03*
D43*
X141000Y324717D02*
Y330488D01*
X136000Y319717D02*
X141000Y324717D01*
X136000Y314043D02*
Y319717D01*
X235500Y328000D02*
X235569Y328069D01*
Y333152D01*
X236341Y333923D01*
X237146D01*
X206142Y393595D02*
X216177D01*
X217358D01*
X213102Y390519D02*
X216177Y393595D01*
X213102Y378581D02*
Y390519D01*
Y378581D02*
X216408Y375275D01*
Y371275D02*
Y375275D01*
Y371275D02*
X217180Y370503D01*
X217854D01*
X206165Y369983D02*
X216154D01*
X217335D01*
X213102Y366931D02*
X216154Y369983D01*
X213102Y354994D02*
Y366931D01*
Y354994D02*
X216408Y351687D01*
Y347687D02*
Y351687D01*
Y347687D02*
X217180Y346915D01*
X217854D01*
X206189Y346372D02*
X216130D01*
X217311D01*
X213102Y343344D02*
X216130Y346372D01*
X213102Y331406D02*
Y343344D01*
Y331406D02*
X216408Y328099D01*
Y324099D02*
Y328099D01*
Y324099D02*
X217180Y323328D01*
X217854D01*
X126500Y388099D02*
X126500Y388098D01*
Y379756D02*
Y388098D01*
Y355150D02*
Y374244D01*
X120000Y335650D02*
X126299Y329350D01*
X120000Y353000D02*
X122000Y355000D01*
X120000Y335650D02*
Y353000D01*
X122000Y355000D02*
X126350D01*
X126500Y355150D01*
X126500Y355150D01*
X126299Y329350D02*
X136000D01*
X253318Y292500D02*
X253416D01*
X251468Y290651D02*
X253318Y292500D01*
X247202Y290651D02*
X251468D01*
X246500Y289949D02*
X247202Y290651D01*
X197000Y322000D02*
X197069Y322069D01*
X205521D01*
X205646Y322194D01*
X197000Y298516D02*
X197043Y298559D01*
X205646D01*
X131938Y368402D02*
Y368500D01*
Y368402D02*
X133701Y366639D01*
Y363598D02*
Y366639D01*
Y363598D02*
X135063Y362236D01*
X185992Y284072D02*
X193500D01*
X181602Y288463D02*
X185992Y284072D01*
X181602Y288463D02*
Y297040D01*
X177197Y301445D02*
X181602Y297040D01*
X177000Y301445D02*
X177197D01*
X187535Y393098D02*
X198178Y382456D01*
X205646D01*
X177197Y368389D02*
Y372873D01*
X177000Y373070D02*
X177197Y372873D01*
X175500Y366692D02*
X177197Y368389D01*
X169692Y366692D02*
X175500D01*
X166902Y363902D02*
X169692Y366692D01*
X166902Y355150D02*
Y363902D01*
X167000Y385090D02*
Y396687D01*
X166559Y384650D02*
X167000Y385090D01*
X265800Y337449D02*
X265851Y337500D01*
X246500Y337449D02*
X265800D01*
X246500Y378135D02*
X251291Y373344D01*
X246500Y378135D02*
Y384949D01*
Y354000D02*
Y361199D01*
X277500Y276000D02*
X280500Y279000D01*
X225776Y276000D02*
X277500D01*
X218279Y283498D02*
X225776Y276000D01*
X218279Y283498D02*
Y286324D01*
X280500Y307102D02*
X283151Y309753D01*
X287253D01*
X288000Y310500D01*
X280500Y279000D02*
Y307102D01*
X217854Y286748D02*
X218279Y286324D01*
X186354Y289547D02*
Y298559D01*
X272000Y303000D02*
Y307551D01*
X265852Y313699D02*
X272000Y307551D01*
X246500Y313699D02*
X265852D01*
X260500Y304500D02*
X262000Y303000D01*
X234000Y304500D02*
X260500D01*
X227500Y311000D02*
X234000Y304500D01*
X251500Y282500D02*
X262000Y293000D01*
X246000Y282500D02*
X251500D01*
X166697Y384512D02*
X166709Y384500D01*
X166697Y375594D02*
Y384512D01*
X166559Y384650D02*
X166697Y384512D01*
Y375594D02*
X169221Y373070D01*
X177000D01*
X166709Y384500D02*
X173500D01*
X177000Y388000D01*
Y396945D01*
X172000Y330123D02*
Y344195D01*
X176031Y348226D01*
Y348423D01*
X176803Y349195D01*
X177000D01*
X172000Y330123D02*
X176803Y325320D01*
X177000D01*
X176803Y301445D02*
X177000D01*
X237146Y381098D02*
X238327D01*
X239098Y381870D01*
X237146Y357511D02*
X238327D01*
X239098Y358282D01*
X237146Y310336D02*
X238327D01*
X239098Y311107D01*
X166253Y277747D02*
X167000Y277000D01*
X164701Y277747D02*
X166253D01*
X153697Y288752D02*
X164701Y277747D01*
X153500Y288752D02*
X153697D01*
X129000Y306957D02*
X136000D01*
X126299Y309658D02*
X129000Y306957D01*
X126299Y309658D02*
Y329350D01*
X157000Y277000D02*
Y277398D01*
X145697Y288701D02*
X157000Y277398D01*
X145500Y288701D02*
X145697D01*
X176253Y277747D02*
X177000Y277000D01*
X176253Y277747D02*
Y279196D01*
X166697Y288752D02*
X176253Y279196D01*
X166500Y288752D02*
X166697D01*
X186449Y277000D02*
X187000D01*
X174697Y288752D02*
X186449Y277000D01*
X174500Y288752D02*
X174697D01*
X151500Y355150D02*
Y359500D01*
X148764Y362236D02*
X151500Y359500D01*
X142937Y362236D02*
X148764D01*
X176228Y349967D02*
X177000Y349195D01*
X172282Y349967D02*
X176228D01*
X167098Y355150D02*
X172282Y349967D01*
X166902Y355150D02*
X167098D01*
X151500D02*
X159224D01*
X142937Y375201D02*
X143331Y375594D01*
X142937Y362236D02*
Y375201D01*
X142559Y383878D02*
X143331Y384650D01*
X138984Y383878D02*
X142559D01*
X135059Y379953D02*
X138984Y383878D01*
X134500Y379953D02*
X135059D01*
X133827Y389110D02*
X134500Y388437D01*
Y379953D02*
Y388437D01*
X126500Y374244D02*
X126598Y374146D01*
X134402D01*
X134500Y374047D01*
X141362Y375594D02*
X143331D01*
X139815Y374047D02*
X141362Y375594D01*
X134500Y374047D02*
X139815D01*
X126500Y394398D02*
X131787Y389110D01*
X133827D01*
X134500Y393752D02*
X134524Y393728D01*
X143307D01*
X143331Y393705D01*
X145299D02*
X154839Y403244D01*
X143331Y393705D02*
X145299D01*
X154839Y403244D02*
X177000D01*
X143331Y384650D02*
X166559D01*
X177000Y403244D02*
X177197D01*
X180043Y406090D01*
X186354D01*
X177000Y379369D02*
X177197D01*
X177000Y355494D02*
X177197D01*
X186232Y358699D02*
X186354Y358821D01*
X177000Y307744D02*
X177197D01*
X185752Y310949D02*
X186354Y311551D01*
X177000Y331619D02*
X177197D01*
X185992Y334824D02*
X186354Y335186D01*
X217264Y299150D02*
X217854Y299740D01*
X206236Y299150D02*
X217264D01*
X205646Y298559D02*
X206236Y299150D01*
X217287Y322761D02*
X217854Y323328D01*
X206213Y322761D02*
X217287D01*
X205646Y322194D02*
X206213Y322761D01*
X217311Y346372D02*
X217854Y346915D01*
X205646Y345829D02*
X206189Y346372D01*
X217335Y369983D02*
X217854Y370503D01*
X205646Y369464D02*
X206165Y369983D01*
X217358Y393595D02*
X217854Y394091D01*
X205646Y393098D02*
X206142Y393595D01*
X205646Y406090D02*
X215396D01*
X227396Y394091D01*
X237146D01*
X186354Y393098D02*
X187535D01*
X198178Y358821D02*
X205646D01*
X187535Y369464D02*
X198178Y358821D01*
X186354Y369464D02*
X187535D01*
X198178Y335186D02*
X205646D01*
X187535Y345829D02*
X198178Y335186D01*
X186354Y345829D02*
X187535D01*
X198178Y311551D02*
X205646D01*
X187535Y322194D02*
X198178Y311551D01*
X186354Y322194D02*
X187535D01*
X229631Y370503D02*
X237146D01*
X219035Y381098D02*
X229631Y370503D01*
X217854Y381098D02*
X219035D01*
X229631Y346915D02*
X237146D01*
X219035Y357511D02*
X229631Y346915D01*
X217854Y357511D02*
X219035D01*
X229631Y323328D02*
X237146D01*
X219035Y333923D02*
X229631Y323328D01*
X217854Y333923D02*
X219035D01*
X229631Y299740D02*
X237146D01*
X219035Y310336D02*
X229631Y299740D01*
X217854Y310336D02*
X219035D01*
D44*
X288000Y320500D02*
D03*
Y310500D02*
D03*
X272000Y303000D02*
D03*
X262000D02*
D03*
X272000Y293000D02*
D03*
X262000D02*
D03*
X272000Y283000D02*
D03*
X260953Y359000D02*
D03*
X187000Y277000D02*
D03*
X177000D02*
D03*
X167000D02*
D03*
X157000D02*
D03*
D45*
X288000Y300500D02*
D03*
X262000Y283000D02*
D03*
X260953Y369000D02*
D03*
D46*
X147000Y277000D02*
D03*
D47*
X297500Y415000D02*
D03*
X127000D02*
D03*
X297500Y281000D02*
D03*
X127000D02*
D03*
D48*
X141000Y330488D02*
D03*
X138425Y291500D02*
D03*
X235500Y328000D02*
D03*
X253416Y292500D02*
D03*
X194000Y346372D02*
D03*
X197000Y322000D02*
D03*
Y298516D02*
D03*
X121500Y377000D02*
D03*
X131938Y368500D02*
D03*
X193500Y284072D02*
D03*
X204500Y284500D02*
D03*
X211000Y374500D02*
D03*
X197500Y392051D02*
D03*
X167000Y396687D02*
D03*
X265851Y337500D02*
D03*
X251291Y373344D02*
D03*
X246500Y354000D02*
D03*
X274500Y373275D02*
D03*
X230000Y387226D02*
D03*
X186354Y289547D02*
D03*
X258149Y318500D02*
D03*
X154736Y300000D02*
D03*
X227500Y311000D02*
D03*
X246000Y282500D02*
D03*
X230000Y360000D02*
D03*
X223000Y366500D02*
D03*
X167000Y343000D02*
D03*
X154736Y328500D02*
D03*
M02*
