G04*
G04 #@! TF.GenerationSoftware,Altium Limited,Altium Designer,19.0.15 (446)*
G04*
G04 Layer_Color=65535*
%FSLAX25Y25*%
%MOIN*%
G70*
G01*
G75*
%ADD10C,0.00984*%
%ADD11C,0.00787*%
%ADD12C,0.01000*%
%ADD13C,0.00800*%
D10*
X143823Y397642D02*
X143085Y398068D01*
Y397216D01*
X143823Y397642D01*
X143429Y366764D02*
X142691Y367190D01*
Y366338D01*
X143429Y366764D01*
X181728Y406090D02*
X180990Y406517D01*
Y405664D01*
X181728Y406090D01*
X242756Y286748D02*
X242018Y287174D01*
Y286322D01*
X242756Y286748D01*
X181728Y382456D02*
X180990Y382882D01*
Y382030D01*
X181728Y382456D01*
X242756Y310336D02*
X242018Y310762D01*
Y309909D01*
X242756Y310336D01*
X181728Y358821D02*
X180990Y359247D01*
Y358395D01*
X181728Y358821D01*
X242756Y333923D02*
X242018Y334349D01*
Y333497D01*
X242756Y333923D01*
X181728Y335186D02*
X180990Y335612D01*
Y334760D01*
X181728Y335186D01*
X242756Y357511D02*
X242018Y357937D01*
Y357085D01*
X242756Y357511D01*
X181728Y311551D02*
X180990Y311977D01*
Y311125D01*
X181728Y311551D01*
X242756Y381098D02*
X242018Y381525D01*
Y380672D01*
X242756Y381098D01*
D11*
X143220Y320034D02*
X143860Y320673D01*
X143220Y321313D01*
X248075Y387902D02*
Y388295D01*
X244925Y387902D02*
Y388295D01*
X248075Y364152D02*
Y364545D01*
X244925Y364152D02*
Y364545D01*
X248075Y340402D02*
Y340795D01*
X244925Y340402D02*
Y340795D01*
X248075Y316652D02*
Y317045D01*
X244925Y316652D02*
Y317045D01*
X248075Y292902D02*
Y293295D01*
X244925Y292902D02*
Y293295D01*
X148252Y371461D02*
X161638D01*
X148252Y397839D02*
X161638D01*
Y371461D02*
Y397839D01*
X148252Y371461D02*
Y397839D01*
X178575Y399898D02*
Y400291D01*
X175425Y399898D02*
Y400291D01*
X178575Y376023D02*
Y376416D01*
X175425Y376023D02*
Y376416D01*
X178575Y328273D02*
Y328666D01*
X175425Y328273D02*
Y328666D01*
X178575Y304398D02*
Y304791D01*
X175425Y304398D02*
Y304791D01*
X135780Y376410D02*
Y377591D01*
X133221Y376410D02*
Y377591D01*
X146087Y349244D02*
Y358299D01*
X144905Y348063D02*
X146087Y349244D01*
X143724Y348063D02*
X144905D01*
X133095Y348063D02*
X134276D01*
X131913Y349244D02*
X133095Y348063D01*
X131913Y349244D02*
Y358299D01*
X125319Y397154D02*
X127681D01*
X127878Y376803D02*
Y377197D01*
X125122Y376803D02*
Y377197D01*
X143220Y313232D02*
Y320034D01*
Y321313D02*
Y328114D01*
X168811D01*
Y313232D02*
Y328114D01*
X143220Y313232D02*
X168811D01*
X178575Y352148D02*
Y352541D01*
X175425Y352148D02*
Y352541D01*
X137575Y332303D02*
Y332697D01*
X134425Y332303D02*
Y332697D01*
X124925Y351803D02*
Y352197D01*
X128075Y351803D02*
Y352197D01*
X165327Y351803D02*
Y352197D01*
X168476Y351803D02*
Y352197D01*
X157650Y351803D02*
Y352197D01*
X160799Y351803D02*
Y352197D01*
X149925Y351803D02*
Y352197D01*
X153075Y351803D02*
Y352197D01*
X143925Y291653D02*
Y292047D01*
X147075Y291653D02*
Y292047D01*
X151925Y291705D02*
Y292098D01*
X155075Y291705D02*
Y292098D01*
X137772Y310303D02*
Y310697D01*
X134228Y310303D02*
Y310697D01*
X164925Y291705D02*
Y292098D01*
X168075Y291705D02*
Y292098D01*
X172925Y291705D02*
Y292098D01*
X176075Y291705D02*
Y292098D01*
X142000Y272000D02*
Y282000D01*
X192000D01*
X142000Y272000D02*
X192000D01*
Y282000D01*
X186158Y409437D02*
X205842D01*
X186158Y389752D02*
X205842D01*
X186158D02*
Y389949D01*
X205842Y389752D02*
Y389949D01*
Y409240D02*
Y409437D01*
X186158Y409240D02*
Y409437D01*
Y396445D02*
Y402744D01*
X205842Y396445D02*
Y402744D01*
X217657Y283402D02*
X237343D01*
X217657Y303087D02*
X237343D01*
Y302890D02*
Y303087D01*
X217657Y302890D02*
Y303087D01*
Y283402D02*
Y283598D01*
X237343Y283402D02*
Y283598D01*
Y290094D02*
Y296394D01*
X217657Y290094D02*
Y296394D01*
X186158Y385802D02*
X205842D01*
X186158Y366117D02*
X205842D01*
X186158D02*
Y366314D01*
X205842Y366117D02*
Y366314D01*
Y385605D02*
Y385802D01*
X186158Y385605D02*
Y385802D01*
Y372810D02*
Y379109D01*
X205842Y372810D02*
Y379109D01*
X217657Y306989D02*
X237343D01*
X217657Y326674D02*
X237343D01*
Y326477D02*
Y326674D01*
X217657Y326477D02*
Y326674D01*
Y306989D02*
Y307186D01*
X237343Y306989D02*
Y307186D01*
Y313682D02*
Y319981D01*
X217657Y313682D02*
Y319981D01*
X186158Y362167D02*
X205842D01*
X186158Y342482D02*
X205842D01*
X186158D02*
Y342679D01*
X205842Y342482D02*
Y342679D01*
Y361970D02*
Y362167D01*
X186158Y361970D02*
Y362167D01*
Y349175D02*
Y355474D01*
X205842Y349175D02*
Y355474D01*
X217657Y330577D02*
X237343D01*
X217657Y350262D02*
X237343D01*
Y350065D02*
Y350262D01*
X217657Y350065D02*
Y350262D01*
Y330577D02*
Y330774D01*
X237343Y330577D02*
Y330774D01*
Y337270D02*
Y343569D01*
X217657Y337270D02*
Y343569D01*
X186158Y338532D02*
X205842D01*
X186158Y318847D02*
X205842D01*
X186158D02*
Y319044D01*
X205842Y318847D02*
Y319044D01*
Y338336D02*
Y338532D01*
X186158Y338336D02*
Y338532D01*
Y325540D02*
Y331840D01*
X205842Y325540D02*
Y331840D01*
X217657Y354164D02*
X237343D01*
X217657Y373849D02*
X237343D01*
Y373653D02*
Y373849D01*
X217657Y373653D02*
Y373849D01*
Y354164D02*
Y354361D01*
X237343Y354164D02*
Y354361D01*
Y360857D02*
Y367157D01*
X217657Y360857D02*
Y367157D01*
X186158Y314898D02*
X205842D01*
X186158Y295213D02*
X205842D01*
X186158D02*
Y295409D01*
X205842Y295213D02*
Y295409D01*
Y314701D02*
Y314898D01*
X186158Y314701D02*
Y314898D01*
Y301905D02*
Y308205D01*
X205842Y301905D02*
Y308205D01*
X217657Y377752D02*
X237343D01*
X217657Y397437D02*
X237343D01*
Y397240D02*
Y397437D01*
X217657Y397240D02*
Y397437D01*
Y377752D02*
Y377949D01*
X237343Y377752D02*
Y377949D01*
Y384445D02*
Y390744D01*
X217657Y384445D02*
Y390744D01*
D12*
X305000Y346545D02*
Y396545D01*
X296750Y298284D02*
X302750D01*
X296783D02*
X299250Y300750D01*
X296750Y298250D02*
X299250Y295750D01*
X120250Y298250D02*
X122750Y295750D01*
X120250Y298250D02*
Y298284D01*
X120283D02*
X120717D01*
X120283D02*
X122750Y300750D01*
X120250Y298284D02*
X120283D01*
X120250D02*
X126250D01*
X280500Y346545D02*
Y396545D01*
X303000Y346545D02*
Y396545D01*
X142000Y308000D02*
Y308500D01*
X205000Y295158D02*
Y400000D01*
Y409842D01*
X236500Y293000D02*
Y397847D01*
Y283134D02*
Y293000D01*
X294502Y352544D02*
X293502Y351544D01*
Y349545D01*
X294502Y348545D01*
X298500D01*
X299500Y349545D01*
Y351544D01*
X298500Y352544D01*
X296501D01*
Y350545D01*
X299500Y355543D02*
Y357542D01*
X298500Y358542D01*
X296501D01*
X295501Y357542D01*
Y355543D01*
X296501Y354543D01*
X298500D01*
X299500Y355543D01*
Y361541D02*
Y363541D01*
X298500Y364540D01*
X296501D01*
X295501Y363541D01*
Y361541D01*
X296501Y360541D01*
X298500D01*
X299500Y361541D01*
X293502Y370538D02*
X299500D01*
Y367539D01*
X298500Y366540D01*
X296501D01*
X295501Y367539D01*
Y370538D01*
Y372537D02*
X298500D01*
X299500Y373537D01*
X298500Y374537D01*
X299500Y375537D01*
X298500Y376536D01*
X295501D01*
Y379535D02*
Y381535D01*
X296501Y382534D01*
X299500D01*
Y379535D01*
X298500Y378536D01*
X297501Y379535D01*
Y382534D01*
X295501Y384534D02*
X299500D01*
X297501D01*
X296501Y385533D01*
X295501Y386533D01*
Y387533D01*
X293502Y394530D02*
X299500D01*
Y391531D01*
X298500Y390532D01*
X296501D01*
X295501Y391531D01*
Y394530D01*
X284002Y348545D02*
Y352544D01*
X285002D01*
X289000Y348545D01*
X290000D01*
Y352544D01*
Y355543D02*
Y357542D01*
X289000Y358542D01*
X287001D01*
X286001Y357542D01*
Y355543D01*
X287001Y354543D01*
X289000D01*
X290000Y355543D01*
Y363541D02*
Y361541D01*
X289000Y360541D01*
X287001D01*
X286001Y361541D01*
Y363541D01*
X287001Y364540D01*
X288001D01*
Y360541D01*
D13*
X245668Y397666D02*
X245001Y396999D01*
Y395666D01*
X245668Y395000D01*
X248334D01*
X249000Y395666D01*
Y396999D01*
X248334Y397666D01*
X245668Y398999D02*
X245001Y399665D01*
Y400998D01*
X245668Y401664D01*
X246334D01*
X247001Y400998D01*
X247667Y401664D01*
X248334D01*
X249000Y400998D01*
Y399665D01*
X248334Y398999D01*
X247667D01*
X247001Y399665D01*
X246334Y398999D01*
X245668D01*
X247001Y399665D02*
Y400998D01*
X245668Y374126D02*
X245001Y373460D01*
Y372127D01*
X245668Y371461D01*
X248334D01*
X249000Y372127D01*
Y373460D01*
X248334Y374126D01*
X249000Y375459D02*
Y376792D01*
Y376126D01*
X245001D01*
X245668Y375459D01*
Y378792D02*
X245001Y379458D01*
Y380791D01*
X245668Y381457D01*
X248334D01*
X249000Y380791D01*
Y379458D01*
X248334Y378792D01*
X245668D01*
Y350166D02*
X245001Y349499D01*
Y348166D01*
X245668Y347500D01*
X248334D01*
X249000Y348166D01*
Y349499D01*
X248334Y350166D01*
X249000Y351499D02*
Y352832D01*
Y352165D01*
X245001D01*
X245668Y351499D01*
X249000Y357497D02*
Y354831D01*
X246334Y357497D01*
X245668D01*
X245001Y356830D01*
Y355497D01*
X245668Y354831D01*
Y326166D02*
X245001Y325499D01*
Y324166D01*
X245668Y323500D01*
X248334D01*
X249000Y324166D01*
Y325499D01*
X248334Y326166D01*
X249000Y327499D02*
Y328832D01*
Y328165D01*
X245001D01*
X245668Y327499D01*
X249000Y332830D02*
X245001D01*
X247001Y330831D01*
Y333497D01*
X245668Y302166D02*
X245001Y301499D01*
Y300166D01*
X245668Y299500D01*
X248334D01*
X249000Y300166D01*
Y301499D01*
X248334Y302166D01*
X249000Y303499D02*
Y304832D01*
Y304165D01*
X245001D01*
X245668Y303499D01*
X245001Y309497D02*
X245668Y308164D01*
X247001Y306831D01*
X248334D01*
X249000Y307497D01*
Y308830D01*
X248334Y309497D01*
X247667D01*
X247001Y308830D01*
Y306831D01*
X144000Y404499D02*
Y401166D01*
X144667Y400500D01*
X145999D01*
X146666Y401166D01*
Y404499D01*
X150664Y400500D02*
X147999D01*
X150664Y403166D01*
Y403832D01*
X149998Y404499D01*
X148665D01*
X147999Y403832D01*
X175668Y409666D02*
X175001Y408999D01*
Y407666D01*
X175668Y407000D01*
X178333D01*
X179000Y407666D01*
Y408999D01*
X178333Y409666D01*
Y410999D02*
X179000Y411665D01*
Y412998D01*
X178333Y413664D01*
X175668D01*
X175001Y412998D01*
Y411665D01*
X175668Y410999D01*
X176334D01*
X177001Y411665D01*
Y413664D01*
X175668Y386166D02*
X175001Y385499D01*
Y384166D01*
X175668Y383500D01*
X178333D01*
X179000Y384166D01*
Y385499D01*
X178333Y386166D01*
X179000Y387499D02*
Y388832D01*
Y388165D01*
X175001D01*
X175668Y387499D01*
X179000Y390831D02*
Y392164D01*
Y391497D01*
X175001D01*
X175668Y390831D01*
Y338166D02*
X175001Y337499D01*
Y336166D01*
X175668Y335500D01*
X178333D01*
X179000Y336166D01*
Y337499D01*
X178333Y338166D01*
X179000Y339499D02*
Y340832D01*
Y340165D01*
X175001D01*
X175668Y339499D01*
X175001Y345497D02*
Y342831D01*
X177001D01*
X176334Y344164D01*
Y344830D01*
X177001Y345497D01*
X178333D01*
X179000Y344830D01*
Y343497D01*
X178333Y342831D01*
X175668Y314217D02*
X175001Y313550D01*
Y312218D01*
X175668Y311551D01*
X178333D01*
X179000Y312218D01*
Y313550D01*
X178333Y314217D01*
X179000Y315550D02*
Y316883D01*
Y316216D01*
X175001D01*
X175668Y315550D01*
X175001Y318882D02*
Y321548D01*
X175668D01*
X178333Y318882D01*
X179000D01*
X135166Y370489D02*
X134499Y371155D01*
X133167D01*
X132500Y370489D01*
Y367823D01*
X133167Y367157D01*
X134499D01*
X135166Y367823D01*
X139164Y371155D02*
X137832Y370489D01*
X136499Y369156D01*
Y367823D01*
X137165Y367157D01*
X138498D01*
X139164Y367823D01*
Y368489D01*
X138498Y369156D01*
X136499D01*
X128500Y359500D02*
X124501D01*
Y361499D01*
X125168Y362166D01*
X126501D01*
X127167Y361499D01*
Y359500D01*
Y360833D02*
X128500Y362166D01*
Y363499D02*
Y364832D01*
Y364165D01*
X124501D01*
X125168Y363499D01*
X128500Y366831D02*
Y368164D01*
Y367497D01*
X124501D01*
X125168Y366831D01*
X124500Y402999D02*
Y399000D01*
X127166D01*
X131165Y402999D02*
X128499D01*
Y399000D01*
X131165D01*
X128499Y400999D02*
X129832D01*
X132497Y402999D02*
Y399000D01*
X134497D01*
X135163Y399666D01*
Y402332D01*
X134497Y402999D01*
X132497D01*
X136496Y399000D02*
X137829D01*
X137163D01*
Y402999D01*
X136496Y402332D01*
X123000Y373000D02*
X119001D01*
Y374999D01*
X119668Y375666D01*
X121001D01*
X121667Y374999D01*
Y373000D01*
Y374333D02*
X123000Y375666D01*
Y379664D02*
Y376999D01*
X120334Y379664D01*
X119668D01*
X119001Y378998D01*
Y377665D01*
X119668Y376999D01*
X143500Y344499D02*
Y341166D01*
X144167Y340500D01*
X145499D01*
X146166Y341166D01*
Y344499D01*
X147499Y340500D02*
X148832D01*
X148165D01*
Y344499D01*
X147499Y343832D01*
X175668Y362166D02*
X175001Y361499D01*
Y360166D01*
X175668Y359500D01*
X178333D01*
X179000Y360166D01*
Y361499D01*
X178333Y362166D01*
X179000Y363499D02*
Y364832D01*
Y364165D01*
X175001D01*
X175668Y363499D01*
Y366831D02*
X175001Y367497D01*
Y368830D01*
X175668Y369497D01*
X176334D01*
X177001Y368830D01*
Y368164D01*
Y368830D01*
X177667Y369497D01*
X178333D01*
X179000Y368830D01*
Y367497D01*
X178333Y366831D01*
X161638Y359500D02*
X157639D01*
Y361499D01*
X158306Y362166D01*
X159639D01*
X160305Y361499D01*
Y359500D01*
Y360833D02*
X161638Y362166D01*
X160971Y363499D02*
X161638Y364165D01*
Y365498D01*
X160971Y366164D01*
X158306D01*
X157639Y365498D01*
Y364165D01*
X158306Y363499D01*
X158972D01*
X159639Y364165D01*
Y366164D01*
X154000Y359500D02*
X150001D01*
Y361499D01*
X150668Y362166D01*
X152001D01*
X152667Y361499D01*
Y359500D01*
Y360833D02*
X154000Y362166D01*
X150668Y363499D02*
X150001Y364165D01*
Y365498D01*
X150668Y366164D01*
X151334D01*
X152001Y365498D01*
X152667Y366164D01*
X153333D01*
X154000Y365498D01*
Y364165D01*
X153333Y363499D01*
X152667D01*
X152001Y364165D01*
X151334Y363499D01*
X150668D01*
X152001Y364165D02*
Y365498D01*
X128500Y338000D02*
X124501D01*
Y339999D01*
X125168Y340666D01*
X126501D01*
X127167Y339999D01*
Y338000D01*
Y339333D02*
X128500Y340666D01*
X124501Y341999D02*
Y344665D01*
X125168D01*
X127833Y341999D01*
X128500D01*
X131000Y327500D02*
X127001D01*
Y329499D01*
X127668Y330166D01*
X129001D01*
X129667Y329499D01*
Y327500D01*
Y328833D02*
X131000Y330166D01*
X127001Y334165D02*
X127668Y332832D01*
X129001Y331499D01*
X130333D01*
X131000Y332165D01*
Y333498D01*
X130333Y334165D01*
X129667D01*
X129001Y333498D01*
Y331499D01*
X169500Y359500D02*
X165501D01*
Y361499D01*
X166168Y362166D01*
X167501D01*
X168167Y361499D01*
Y359500D01*
Y360833D02*
X169500Y362166D01*
X165501Y366164D02*
Y363499D01*
X167501D01*
X166834Y364832D01*
Y365498D01*
X167501Y366164D01*
X168833D01*
X169500Y365498D01*
Y364165D01*
X168833Y363499D01*
X126668Y306166D02*
X126001Y305499D01*
Y304166D01*
X126668Y303500D01*
X129333D01*
X130000Y304166D01*
Y305499D01*
X129333Y306166D01*
X130000Y307499D02*
Y308832D01*
Y308165D01*
X126001D01*
X126668Y307499D01*
X129333Y310831D02*
X130000Y311497D01*
Y312830D01*
X129333Y313497D01*
X126668D01*
X126001Y312830D01*
Y311497D01*
X126668Y310831D01*
X127334D01*
X128001Y311497D01*
Y313497D01*
M02*
